<mxfile host="app.diagrams.net" modified="2022-04-30T19:58:11.483Z" agent="5.0 (Windows NT 10.0; Win64; x64) AppleWebKit/537.36 (KHTML, like Gecko) Chrome/100.0.4896.127 Safari/537.36" etag="NOGImVuIoAHFpKFidGBg" compressed="false" version="17.4.6" type="device" pages="5">
  <diagram id="HCSXgunFZHk84Sv5gTMo" name="Simulation">
    <mxGraphModel dx="1902" dy="1979" grid="0" gridSize="10" guides="1" tooltips="1" connect="1" arrows="1" fold="1" page="1" pageScale="1" pageWidth="413" pageHeight="291" background="none" math="0" shadow="0">
      <root>
        <mxCell id="0" />
        <mxCell id="1" parent="0" />
        <mxCell id="F3flGHNFpNaX2hBKMOXN-1" value="RTL Design&lt;br&gt;(Verilog)" style="rounded=0;whiteSpace=wrap;html=1;fillColor=#FAE5C7;strokeColor=#0F8B8D;fontColor=#143642;" parent="1" vertex="1">
          <mxGeometry x="301" y="-752" width="96" height="56" as="geometry" />
        </mxCell>
        <mxCell id="F3flGHNFpNaX2hBKMOXN-3" value="&lt;div style=&quot;text-align: center ; font-size: 14px&quot;&gt;&lt;/div&gt;" style="rounded=0;whiteSpace=wrap;html=1;labelPosition=left;verticalLabelPosition=top;align=right;verticalAlign=bottom;horizontal=1;fontSize=14;fillColor=#f5f5f5;fontColor=#333333;strokeColor=#666666;" parent="1" vertex="1">
          <mxGeometry x="160" y="-629" width="511" height="184" as="geometry" />
        </mxCell>
        <mxCell id="F3flGHNFpNaX2hBKMOXN-10" style="edgeStyle=orthogonalEdgeStyle;rounded=0;orthogonalLoop=1;jettySize=auto;html=1;labelBackgroundColor=#DAD2D8;strokeColor=#A8201A;fontColor=#143642;" parent="1" source="F3flGHNFpNaX2hBKMOXN-4" target="fQLuyIxFhipDLo3BO3NM-1" edge="1">
          <mxGeometry relative="1" as="geometry">
            <mxPoint x="579" y="-528.55" as="targetPoint" />
          </mxGeometry>
        </mxCell>
        <mxCell id="F3flGHNFpNaX2hBKMOXN-4" value="(&lt;b&gt;Instantiation&lt;/b&gt;)&lt;br&gt;RTL Design&lt;br&gt;(Verilog)" style="rounded=0;whiteSpace=wrap;html=1;fillColor=#FAE5C7;strokeColor=#0F8B8D;fontColor=#143642;" parent="1" vertex="1">
          <mxGeometry x="367" y="-573.25" width="90" height="68" as="geometry" />
        </mxCell>
        <mxCell id="F3flGHNFpNaX2hBKMOXN-8" style="edgeStyle=orthogonalEdgeStyle;rounded=0;orthogonalLoop=1;jettySize=auto;html=1;entryX=0;entryY=0.5;entryDx=0;entryDy=0;labelBackgroundColor=#DAD2D8;strokeColor=#A8201A;fontColor=#143642;" parent="1" source="F3flGHNFpNaX2hBKMOXN-5" target="F3flGHNFpNaX2hBKMOXN-4" edge="1">
          <mxGeometry relative="1" as="geometry" />
        </mxCell>
        <mxCell id="F3flGHNFpNaX2hBKMOXN-17" value="Primary inputs" style="edgeLabel;html=1;align=center;verticalAlign=middle;resizable=0;points=[];fontColor=#143642;rounded=0;labelBackgroundColor=#DAD2D8;" parent="F3flGHNFpNaX2hBKMOXN-8" vertex="1" connectable="0">
          <mxGeometry x="-0.3165" y="1" relative="1" as="geometry">
            <mxPoint x="13" y="-19" as="offset" />
          </mxGeometry>
        </mxCell>
        <mxCell id="F3flGHNFpNaX2hBKMOXN-5" value="Stimulus &lt;br&gt;Generator" style="rounded=0;whiteSpace=wrap;html=1;fillColor=#dae8fc;strokeColor=#6c8ebf;" parent="1" vertex="1">
          <mxGeometry x="194" y="-605.5" width="75" height="132.5" as="geometry" />
        </mxCell>
        <mxCell id="F3flGHNFpNaX2hBKMOXN-9" value="" style="endArrow=none;html=1;rounded=0;labelBackgroundColor=#DAD2D8;strokeColor=#A8201A;fontColor=#143642;" parent="1" edge="1">
          <mxGeometry width="50" height="50" relative="1" as="geometry">
            <mxPoint x="300" y="-529" as="sourcePoint" />
            <mxPoint x="320" y="-549" as="targetPoint" />
          </mxGeometry>
        </mxCell>
        <mxCell id="F3flGHNFpNaX2hBKMOXN-14" value="" style="endArrow=none;html=1;rounded=0;labelBackgroundColor=#DAD2D8;strokeColor=#A8201A;fontColor=#143642;" parent="1" edge="1">
          <mxGeometry width="50" height="50" relative="1" as="geometry">
            <mxPoint x="501" y="-529.25" as="sourcePoint" />
            <mxPoint x="521" y="-549.25" as="targetPoint" />
          </mxGeometry>
        </mxCell>
        <mxCell id="F3flGHNFpNaX2hBKMOXN-15" value="" style="endArrow=classic;html=1;rounded=0;exitX=0.5;exitY=1;exitDx=0;exitDy=0;fillColor=#FAE5C7;strokeColor=#A8201A;dashed=1;entryX=0.441;entryY=0.013;entryDx=0;entryDy=0;entryPerimeter=0;labelBackgroundColor=#DAD2D8;fontColor=#143642;" parent="1" source="F3flGHNFpNaX2hBKMOXN-1" target="F3flGHNFpNaX2hBKMOXN-4" edge="1">
          <mxGeometry width="50" height="50" relative="1" as="geometry">
            <mxPoint x="527" y="-590" as="sourcePoint" />
            <mxPoint x="427" y="-580" as="targetPoint" />
          </mxGeometry>
        </mxCell>
        <mxCell id="F3flGHNFpNaX2hBKMOXN-18" value="Primary outputs" style="edgeLabel;html=1;align=center;verticalAlign=middle;resizable=0;points=[];fontColor=#143642;rounded=0;labelBackgroundColor=#DAD2D8;" parent="1" vertex="1" connectable="0">
          <mxGeometry x="525" y="-554" as="geometry">
            <mxPoint x="-20" as="offset" />
          </mxGeometry>
        </mxCell>
        <mxCell id="fQLuyIxFhipDLo3BO3NM-1" value="Stimulus &lt;br&gt;Observer" style="rounded=0;whiteSpace=wrap;html=1;fillColor=#dae8fc;strokeColor=#6c8ebf;" parent="1" vertex="1">
          <mxGeometry x="558" y="-605" width="78" height="132" as="geometry" />
        </mxCell>
        <mxCell id="Dwvi7tqOw5wwEL7KQ0sl-1" value="" style="rounded=0;whiteSpace=wrap;html=1;fillColor=none;strokeColor=#0F8B8D;fontColor=#143642;" vertex="1" parent="1">
          <mxGeometry x="118" y="-782" width="597" height="385" as="geometry" />
        </mxCell>
      </root>
    </mxGraphModel>
  </diagram>
  <diagram name="iVerilog" id="yMizX_ymzaaL51t_b1V6">
    <mxGraphModel dx="1902" dy="1035" grid="0" gridSize="10" guides="1" tooltips="1" connect="1" arrows="1" fold="1" page="1" pageScale="1" pageWidth="413" pageHeight="291" background="none" math="0" shadow="0">
      <root>
        <mxCell id="B6xAkh7w28Q5WrPoHjy4-0" />
        <mxCell id="B6xAkh7w28Q5WrPoHjy4-1" parent="B6xAkh7w28Q5WrPoHjy4-0" />
        <mxCell id="_hrwhroaC8WuuPhV2MUA-0" value="RTL Design&lt;br&gt;(Verilog)" style="rounded=0;whiteSpace=wrap;html=1;fillColor=#FAE5C7;strokeColor=#0F8B8D;fontColor=#143642;" parent="B6xAkh7w28Q5WrPoHjy4-1" vertex="1">
          <mxGeometry x="136" y="126" width="119" height="54" as="geometry" />
        </mxCell>
        <mxCell id="_hrwhroaC8WuuPhV2MUA-1" value="Test bench&lt;br&gt;(Verilog)" style="rounded=0;whiteSpace=wrap;html=1;fillColor=#FAE5C7;strokeColor=#0F8B8D;fontColor=#143642;" parent="B6xAkh7w28Q5WrPoHjy4-1" vertex="1">
          <mxGeometry x="138" y="230" width="118" height="53" as="geometry" />
        </mxCell>
        <mxCell id="_hrwhroaC8WuuPhV2MUA-2" value="Ã®Verilog" style="rounded=1;whiteSpace=wrap;html=1;fillColor=#d5e8d4;strokeColor=#82b366;" parent="B6xAkh7w28Q5WrPoHjy4-1" vertex="1">
          <mxGeometry x="355" y="161" width="100" height="81" as="geometry" />
        </mxCell>
        <mxCell id="_hrwhroaC8WuuPhV2MUA-3" value="" style="endArrow=classic;html=1;dashed=1;fontColor=#143642;exitX=1;exitY=0.5;exitDx=0;exitDy=0;entryX=0;entryY=0.5;entryDx=0;entryDy=0;labelBackgroundColor=#DAD2D8;strokeColor=#A8201A;" parent="B6xAkh7w28Q5WrPoHjy4-1" source="_hrwhroaC8WuuPhV2MUA-0" target="_hrwhroaC8WuuPhV2MUA-2" edge="1">
          <mxGeometry width="50" height="50" relative="1" as="geometry">
            <mxPoint x="588" y="602" as="sourcePoint" />
            <mxPoint x="638" y="552" as="targetPoint" />
          </mxGeometry>
        </mxCell>
        <mxCell id="_hrwhroaC8WuuPhV2MUA-4" value="" style="endArrow=classic;html=1;dashed=1;fontColor=#143642;exitX=1;exitY=0.5;exitDx=0;exitDy=0;labelBackgroundColor=#DAD2D8;strokeColor=#A8201A;" parent="B6xAkh7w28Q5WrPoHjy4-1" source="_hrwhroaC8WuuPhV2MUA-1" edge="1" target="_hrwhroaC8WuuPhV2MUA-2">
          <mxGeometry width="50" height="50" relative="1" as="geometry">
            <mxPoint x="588" y="602" as="sourcePoint" />
            <mxPoint x="388" y="222" as="targetPoint" />
          </mxGeometry>
        </mxCell>
        <mxCell id="_hrwhroaC8WuuPhV2MUA-5" value="" style="endArrow=classic;html=1;dashed=1;fontColor=#143642;exitX=1;exitY=0.5;exitDx=0;exitDy=0;labelBackgroundColor=#DAD2D8;strokeColor=#A8201A;entryX=0;entryY=0.5;entryDx=0;entryDy=0;" parent="B6xAkh7w28Q5WrPoHjy4-1" source="_hrwhroaC8WuuPhV2MUA-2" edge="1" target="_hrwhroaC8WuuPhV2MUA-6">
          <mxGeometry width="50" height="50" relative="1" as="geometry">
            <mxPoint x="588" y="602" as="sourcePoint" />
            <mxPoint x="578" y="217" as="targetPoint" />
          </mxGeometry>
        </mxCell>
        <mxCell id="_hrwhroaC8WuuPhV2MUA-6" value=".vcd file&lt;br&gt;(&lt;i&gt;value change dump&lt;/i&gt;)" style="rounded=0;whiteSpace=wrap;html=1;fillColor=#FAE5C7;strokeColor=#0F8B8D;fontColor=#143642;" parent="B6xAkh7w28Q5WrPoHjy4-1" vertex="1">
          <mxGeometry x="542" y="176.5" width="120" height="50" as="geometry" />
        </mxCell>
        <mxCell id="_hrwhroaC8WuuPhV2MUA-7" value="GTKWave" style="rounded=1;whiteSpace=wrap;html=1;fillColor=#e1d5e7;strokeColor=#9673a6;" parent="B6xAkh7w28Q5WrPoHjy4-1" vertex="1">
          <mxGeometry x="553.75" y="327" width="96.5" height="75" as="geometry" />
        </mxCell>
        <mxCell id="_hrwhroaC8WuuPhV2MUA-8" value="" style="endArrow=classic;html=1;dashed=1;fontColor=#143642;exitX=0.5;exitY=1;exitDx=0;exitDy=0;entryX=0.5;entryY=0;entryDx=0;entryDy=0;labelBackgroundColor=#DAD2D8;strokeColor=#A8201A;" parent="B6xAkh7w28Q5WrPoHjy4-1" source="_hrwhroaC8WuuPhV2MUA-6" target="_hrwhroaC8WuuPhV2MUA-7" edge="1">
          <mxGeometry width="50" height="50" relative="1" as="geometry">
            <mxPoint x="588" y="592" as="sourcePoint" />
            <mxPoint x="638" y="542" as="targetPoint" />
          </mxGeometry>
        </mxCell>
        <mxCell id="_hrwhroaC8WuuPhV2MUA-9" value="" style="shape=image;verticalLabelPosition=bottom;labelBackgroundColor=#DAD2D8;verticalAlign=top;aspect=fixed;imageAspect=0;image=data:image/png,iVBORw0KGgoAAAANSUhEUgAAALEAAABmCAYAAACEEnBSAAAABGdBTUEAALGPC/xhBQAAAAlwSFlzAAAOwgAADsIBFShKgAAAABJ0RVh0U29mdHdhcmUAR3JlZW5zaG90XlUIBQAAEo9JREFUeF7tnXlcVdXax52yrqlZmembmnVfvam9bwpaptbNzPT6agMIaldNUUtEAUcQEGUQERAQZxQUEmQQFRVknmQ6HDgiOIFDmU1OpVdT//DT713rOXIEWib7gAcOrj++H9hrrb0O7P3daz9rn7XWbnHuzHk0dypPV0JzVCNppjxS4jMVZ3G28pwwrz7wOh9HvSKkxM0brcRMpqMlR3E44TDi9sQh4WAC1Kpikiwudi/ycwuEctSH/Nx8pCSlGETkR0msVqtxOOkw8gvyabukpAQpKSlEVZkjR3KQxMpUbUuaDiSxhgns7e0NXz9fbNm6BesC1iF6dzQqTlUidHsoMtIyhXLUh9joPQj0D6SWXpTfkDxKYi7vKq9V2BMXS9t5ebnw8PDACtcVJDRP2xm+Ez4+a1Ci0W5Lmg4kcTJrEZ2cnFBUqCZxTx4/RfAWOi0lnVqqKiFUBUWIitqN3CO5yMnKwdHSozh14jQK8gpp/8jdEUhJTkVlRSWV5/Xwlj0qOgp5rPXldfL06hKfrTxLIkXHRFN6iVqj+7yG4FESc1EDAwKxLmgdSZqalgJXV1dYz7VGcbEaasYaH29s2ryR/W0l2BO7BzvCdiA9LZ3258cnNTkNhYWFujqzsrOQlpZ6v/5iJB5OQHh4OLvbJenKcGL3xCIkNITugIWqB/tL6g5JnJaWhgULFjD5UlBWWobTTMoq2ZYucUBMVAz7/RwO7j+IL6d+yU7oGnh6rMLUaVNw4OABJnQe7OxtsXSpAwICA2BvZ4+wsDAKFXx811ArF7A2AHOs5yAmltdVU2L++Xa29ljr50/lAtYG6gRsCOoSE4eFh8FluTOKmXD74/dj9ZrVcHR0pDAjh4USy5yXYe++OKxetRrubu5Y7e2F2V/Nwq5d39AF6Oa+EtFR0VQXl9rPx4/k5NtbNm/BvHnzsMZ7Daxt5mDjho10cXi4e8CBHV+/tX702QmJCTX+JkndIInLy46zVmYTFi1eiOXLl2Pt2rUshMggwaokPnXyFBwcHXAw/hCJoS4qZifEWifxwkULkZGRQXk8tua34+NlJ3Dq1Enk5xUgIz0DwVuDMdfahspUlzh+Xzzc3d1QkF/IhDujk6+hqIvEXCCb+TZQsdYweFswtgRvwUbW8gauC0ByShIcljmwn8l0l0hjLfChQ4ewPmg9vvpqNu0fGhpKgvOWPD0jDS6uLqz1TaTWdc7cOYiNjUVOdg7d2bjQCQmJsLe3R9zeOOTm5kKjEf9dkkfTQqVS0YnmYQSXKJEd3EAWE3OZ+QmrkvhoSSnmzZ+HE+UnqTxvZZcuXaqT2M3DDUUqbdiRnZnNWiY3lGpKSVyv1V4IDg6Gf4A/LC0nUpnqEvMLgl84/BbOW6fExER2ARxnQqn0Ql2kxvHy47pOo0jiYnUxC41UJBBvSXkoYGtri33798FzlQe1ugcPHaSWMyY2Gs7LnZDLYuWgoCCsYnehzRs3s37EGlhaWFJ9dDexs6MLdjcLtzw9PVFQUICkw0mY/MUkFk/7wN/fn+DHlv+PO8N2shbYBc7OzghaF8Q6j0foM3Jz2U9JnWlRfrwcp09X0Mmugj85WOboRDFvlcQnjp+E/QI75ObkUhkuiZ29nU5iD093kofnkcRM6uycbEywMEd+fj7FxvH7DmCCuQWVqRkTn2P5J6EpPoqYmBh2sdigqKgI/G/Th7KyMra/mt09WFjEPqu2xDxk4LKVHiul8sfv7+O5yhPeLIyYbzsfR3KOULmJky3h6eXBbvm+9ITCbMLndMfhLSyX1dzMnOrkLfDyFcuxdfNWVt4T20O2U3p6ehpmzpqJtNQ0raCMvPw8Cid4/Xybt/BcZh5+lJeL/yfJw6Fwgj9Ci/gmAoWsJS5mrWLIthC4uLhQJ+ZBTHweoSE7sGjhYnpasSN0B6ZOnUqt1cMk5i3cpC8mIj4+nnX8CuC20g1m7KTXlph3+NJZuKEp1iApOYl9xiIWm5dTOX05drSMLgz+e22Ji9RFUBWp2IV5okZ6+DdhMLc0h4ODgy5tmcMyfDH1C4qZecttOckC0dHR1Klb7uIKs8/NdGWjY6JgNd0K82zm6Tp1VMeyZazTGIiMzHRkZmVi/954ZGVls9Z+L22nZ6TDg7X+4WHhun0kdYck5s+Eee98pdsKuK50hZ+vH7Iys6iF5EKnp2pjXR4Xh4SEYLWXN/20sbGhXjiXLyIigjqFVB+7EHbt2sVCjxMU73p6sBbO25vK8H15GX4hxMXG0WekJKXCy8uLlVlNt2HeweRl6oOmRENPTvjvD5OYt8TV07lQrqw1jYyI1KXFxMRSJy71vpSRuyPp0dsqz1Ws5dwONzc3XVk1q9fd3R3rNwTViHG5pD6+Plixgh1fFjJt2bIF2dnZLDRZR2ke7p4IWs/CCXZrrNpHUndIYg7d0k+cIvHOVIqf3XLZExIS6FYbsSuCtdJLWVhxQli2Ojze5o/hqmJUEbxDx0OWhurY6SNxXeH787uOKO9h8HBDVaiN16un87CEx/GyY6c/OonrgrpQTY+JXJxdqKPC472qR3FNjccpsaRpoUhiY0JK/OQgJa6WLjFOSGL+uKy5oI/EiYlZmGy5AOM/GS8xQkji6ifY2OFfjyuVuKSkDNuCd6NHjx5o0aKFxNiQEmsQHZUEh4XbMNfGGq1atRIfKEnTRUqswb696Zhk7oTAwHVo06aN+EBJmi5SYg2yslRYutiPxnlIiY0QpRLzb+j4N1CivKaAPhLHxqTis7FLEBQYJCU2RqpL7OXthff+ORzvDhuCAaYDMGToOxj23lAaS1tVhg/HnPrlVN12U0MfieNi0+C4cDuNd5YxsRFSXeKExEPYtn0bDWIfaDIAzi5ObDuYRqrR7IXUVITtDENk5IOxBYUFhTSugI+d5cMa+YDyrOzMB/mqQhreyIck8jqq0h8X+kh8JEcNH68QvPZ6L/FBkjRtqktcxYEDB/DhyA+xK2KXLi0zIxOODo74v/FjsWTpEl36zp07MeZfY2A2wQwWlhaYMWMGjVzLz8tHWnoaPjP7FBYWFpgwwYIG+TzuOWr6SBwTlYKund4XHyBJ06euEhcXF9PIq6++ng1zC+0YWk5AoD+GDRsGX19ffDRqJLXWw98fjri4vbCymglLi4kkMx8ZNmToEJrqU7Xv40AfiaMik9C7kzVef85KYoTUWeIq7BbY/Uni8ePH0yDwiRMnkiCjR4/G1uCtGDx4MObOm0uDzTlvvvkmdkdE1aivodFX4s7thoqvcgV072CGli3rH1P37GgpTFfCC+3eRru2PYV5SujTyVaYroS/tX0FL7Z7V5inhB4dzIXpj0XiMWPHYPPmzTA1NaXJlM7OfAqOlqSkmrN9GxopsRYpcQNIzGdCTJw0EdOnT0eRqoim4vB1HZpiTCwlfjjNSmIe8/br3xfPvdAR7Tu0x+u9X6OJn/4Ba4USh38TTtPdhw9/Dz179UTvPr1hYmKCIiZP9c9qaKTEWp54iRsavrBIanIqdQ5F+Q2JlFiLlNiIkRJreeIkvnbtWrPhPPt/Gkvidk+/yn62/FO6Up59uv5fujz9VGe0af2sME8JHZ/pK0xXQutW7djf85IwTwna4yvI4yf57t27zYbzZ79tNIkljQQ/yXfu3Gk26CVxbAJe6mYqPkAKeKZrS3R4rVW9+Vu3+rfmT3VqmL+FI6pfCa2eaSGsVx9E9UuJ2XacJhxvz3lRfIAUMC2uNybt+jsmhtcPq4Q3hPUrYfiilzAz8Q1h/Upwv/qOsH4lvPJuW8wv/B9h/UpwqDRBi5aCz1AqMY87r1y5IsxrCjSmxJ+s64mWbcR5SjDbUv+YeOD0Tug2+ClhnhJsct8Upiuhy4A2GDT7BWGeEj7dwGLihpB4Q9AGWvK0etqFCxfo6+X33h+OAP/AGnmGRkqsRUos4Pbt27h+/TrUKjVyc/Jq5Nna22LatGk4dPAQur/aHaEhoTXyDYmUWIuUWMDPP/9MS5Eud3VBdFSMLv3WrVswGWSC9PR02t6waQM+Hv0xfv/9d10ZQyIl1iIlFvDrr7/SEq2zZ8+G9RxrXfoPF39E3759ab1dvpD0kZxcDBwwEJcvXa6xv6GQEmuREv8F3l7eNSQ+XXEa/fv3x6ZNmzB50mQS5K3/fQs//vBjjf0MhZRYi5T4L6gt8aVLl6glPlZ2jLb5a7MGDRqM3369ritjSKTEWqTEf0FtiTkjPhxB8+5u/ucm7G3tMe3LqTXyDYmUWIuUWADvuPEXzQx5Zwj69u8Lq1lWNNWI54WG7sDIUR9iypQpGGQ6iGLn2vsbCimxFimxgKtXruLMmTOoqKhgnEZFZQWuXrtKeTdu3MBRJgOfS3f+/PlGezLBkRJrkRIbMXpJXByOIfNexFPPt6wX4wN6NIjEn216VVi/Erg0L5vWX+Kv0voJ61dC92FtYTLjeWH9Shjn30NYv5SYbUclxuCtyT3Qz7xDvWnRSnwClCCqVx+e7lL/gUR9zdoL61bKC/1aC+tXQs/3nxbWTRLfu3ev2aCXxJFJ6NVxCrq2/1hihJDEonG5xoq+End5dgTatO4oMUJkOHFfYjko3oiREmsQnbAf3Qf2ER8giUHgTzB4508fpMRsu6EesUn05935nfGRWzehpI9CscR8YM9PP/8kzGsKSImNExOr5/V/JKhUYv4G/sWLFtdIy87KobV9R3wwAt+e+65GnqGREhsnBpH45s2bNIMjJzuHXmRePS/+QDzc3d3Qu3dvept+9TxDIyU2Tgwi8Q8//EDLVk2ZNkU4Bem7C99hyJAhUmKJXhhEYj6Dg8/u4O91rj2KjSMlltQHg8bEoqGYHCmxpD5IiashJTZOGl3i679dR9mxcgweNJg6fZcvXcGd2zX3MxRSYuPEIBLzmRv8jUpdu3ZFpxeewz/69UHc3jiayh+6fQe6deuGtm3bUv6oUaPwyy+/COt53EiJjRODtsRNHSmxcSIlroY+EscWhtPaZS+bPCVpJIbadUbnN/V8m6uUWIOoffvw2vB/CA+uxHC07qDnIH5+kv/4449mg14SR8r32BkzsiW+L7EcT2zESImlxEaPlJh17DJj0Hv0K+IDJGn6SInlIzajpyEk5iti7t8Xj4qKSmG+IZESP4E0hMTe3t4Y+dFIbNi4gb7BE5UxFFLiJxCRxOfOnsPhw4eRn5dPS1RVpfOVLjMzspCdlY3Lly/p0vmyVStWrJASSxqH2hKXqDUYYPIWZs2ehU8/+xQx91eFv3jxIiZPnozxn4zDvyf/GzNnzsKF7y5QnpRY0qjUltjZyQVfW39Nb0nict6+ydJv38HmTZsx/csZrAW+jIvfX4T1nLmI2xNH+0iJJY1KbYn5i8THjRsHB0cHbN26lVZ8v3HjP1i6xAEWFhbw9fNh+GLSpEkI2R5C0kqJJY1KbYnv/H4HxcVq7N69m8IJ1xWutHj2MsdlWGi/EMnJSUhOSSb4Uq98Hy6u20p3bFgvJZY0ArUlzi/Ix5VLV3H799twcnTCDKvplB4RGYHPzT/D5Z8vUx4/+Xz2c9V+XGAeYvAw5PatB/UZGinxE0htif3X+qPvG30x0GQgRowYgbPnzlI6n73h7uGOPr37wNTEFEOHDkWh6sHU/W/PfwurmVbo1asXnJ2ddemGRkr8BFJbYs6vV3+jWJivNVE779qVa/j+++9x6+atP+U1BaTETyAiiY0ZfSSOyQ3DB04vCxdwljR9pMRsOyo6AV16mAqX0pc0fUhi0eByY0UvieWgeKNGtsT3JZbjiY0YKbGU2OiREmuwRxWBAVM7iw+QAr6I/G8svzio3kzbW/9V69+17SysWx9E9Svhv95pK6xXH+R77B4icUM9YpMvYxQjX8aoECmxFimxESMl1iIlVsClny4hLy+3RpqqQPVErsUmJRbT5CX+7dp1DB48GMdKy2j7bMVZDDQdiO++bZx3d0iJtUiJFbJgoT2C1gXRMEwbGxssXrJIWM4QSIm1SIkVwmc7z5o1G2XHyvByty4oLS0VljMEUmItUmKF8Imls2bOgvVca4wd9y+a6SEqZwikxFqkxArhL6Xx9PREh+faIykpSVjGUEiJtUiJ9YDP/Bjx4Qe48duDKf6NgZRYi5RYIeVl5ZjLQgk/H79GDSU4UmItUmKF8DUq+ETS8+caplWvD/pIHJ0dRi/Hfm9xl3ox2usVtGwtOMgKGbP6FWH9SvhoZTd06tNaWL8Sxvp2F9avBD7h4O9j2gnrV8Lb1i8K6yeJ796922zQR2I+iq3LsyPQpnVHiRFCEt+7d6/ZoK/EvTpOQdf2H0uMkAbr2DUV9JVYjic2YqTEUmKjR0osJTZuWuD/AdtNNfpRyYPLAAAAAElFTkSuQmCC;imageBorder=#0000FF;fillColor=#FAE5C7;strokeColor=#0F8B8D;fontColor=#143642;" parent="B6xAkh7w28Q5WrPoHjy4-1" vertex="1">
          <mxGeometry x="333.86" y="323.5" width="142.29" height="82" as="geometry" />
        </mxCell>
        <mxCell id="_hrwhroaC8WuuPhV2MUA-10" value="" style="endArrow=classic;html=1;dashed=1;fontColor=#143642;exitX=0;exitY=0.5;exitDx=0;exitDy=0;entryX=1;entryY=0.5;entryDx=0;entryDy=0;labelBackgroundColor=#DAD2D8;strokeColor=#A8201A;" parent="B6xAkh7w28Q5WrPoHjy4-1" source="_hrwhroaC8WuuPhV2MUA-7" target="_hrwhroaC8WuuPhV2MUA-9" edge="1">
          <mxGeometry width="50" height="50" relative="1" as="geometry">
            <mxPoint x="588" y="592" as="sourcePoint" />
            <mxPoint x="638" y="542" as="targetPoint" />
          </mxGeometry>
        </mxCell>
        <mxCell id="_hrwhroaC8WuuPhV2MUA-11" value="Visualization" style="text;html=1;strokeColor=none;fillColor=none;align=center;verticalAlign=middle;whiteSpace=wrap;rounded=0;fontColor=#143642;" parent="B6xAkh7w28Q5WrPoHjy4-1" vertex="1">
          <mxGeometry x="340.15" y="405.5" width="136" height="29" as="geometry" />
        </mxCell>
        <mxCell id="pyxy3r82GjhHcvNDeQpk-0" value="" style="rounded=0;whiteSpace=wrap;html=1;fillColor=none;strokeColor=#0F8B8D;fontColor=#143642;" vertex="1" parent="B6xAkh7w28Q5WrPoHjy4-1">
          <mxGeometry x="103.01" y="87" width="604" height="373" as="geometry" />
        </mxCell>
      </root>
    </mxGraphModel>
  </diagram>
  <diagram name="synthesis" id="QPvi5eADmuFjLitsNZW7">
    <mxGraphModel dx="1902" dy="744" grid="0" gridSize="10" guides="1" tooltips="1" connect="1" arrows="1" fold="1" page="1" pageScale="1" pageWidth="413" pageHeight="291" background="none" math="0" shadow="0">
      <root>
        <mxCell id="Q4CV0_VZXRxGfypteqmT-0" />
        <mxCell id="Q4CV0_VZXRxGfypteqmT-1" parent="Q4CV0_VZXRxGfypteqmT-0" />
        <mxCell id="9OeWt4J3rH4BmTlKNR9v-0" value="&lt;font style=&quot;font-size: 14px&quot;&gt;RTL Design&lt;br&gt;(read_verilog)&lt;br&gt;&lt;/font&gt;" style="rounded=0;whiteSpace=wrap;html=1;fillColor=#fff2cc;strokeColor=#d6b656;" parent="Q4CV0_VZXRxGfypteqmT-1" vertex="1">
          <mxGeometry x="167" y="355" width="114" height="50" as="geometry" />
        </mxCell>
        <mxCell id="9OeWt4J3rH4BmTlKNR9v-1" value="&lt;font style=&quot;font-size: 14px&quot;&gt;cell library&lt;br&gt;(read_liberty)&lt;br&gt;&lt;/font&gt;" style="rounded=0;whiteSpace=wrap;html=1;fillColor=#d5e8d4;strokeColor=#82b366;" parent="Q4CV0_VZXRxGfypteqmT-1" vertex="1">
          <mxGeometry x="167" y="465" width="115" height="46" as="geometry" />
        </mxCell>
        <mxCell id="9OeWt4J3rH4BmTlKNR9v-2" value="&lt;font style=&quot;font-size: 14px&quot;&gt;Yosys&lt;/font&gt;" style="rounded=1;whiteSpace=wrap;html=1;fillColor=#f8cecc;strokeColor=#b85450;" parent="Q4CV0_VZXRxGfypteqmT-1" vertex="1">
          <mxGeometry x="372" y="396" width="86" height="76" as="geometry" />
        </mxCell>
        <mxCell id="9OeWt4J3rH4BmTlKNR9v-3" value="" style="endArrow=classic;html=1;dashed=1;fontColor=#0000FF;exitX=1;exitY=0.5;exitDx=0;exitDy=0;entryX=0;entryY=0.5;entryDx=0;entryDy=0;" parent="Q4CV0_VZXRxGfypteqmT-1" source="9OeWt4J3rH4BmTlKNR9v-0" target="9OeWt4J3rH4BmTlKNR9v-2" edge="1">
          <mxGeometry width="50" height="50" relative="1" as="geometry">
            <mxPoint x="627" y="835" as="sourcePoint" />
            <mxPoint x="677" y="785" as="targetPoint" />
          </mxGeometry>
        </mxCell>
        <mxCell id="9OeWt4J3rH4BmTlKNR9v-4" value="" style="endArrow=classic;html=1;dashed=1;fontColor=#0000FF;exitX=1;exitY=0.5;exitDx=0;exitDy=0;entryX=0;entryY=0.711;entryDx=0;entryDy=0;entryPerimeter=0;" parent="Q4CV0_VZXRxGfypteqmT-1" source="9OeWt4J3rH4BmTlKNR9v-1" edge="1" target="9OeWt4J3rH4BmTlKNR9v-2">
          <mxGeometry width="50" height="50" relative="1" as="geometry">
            <mxPoint x="627" y="835" as="sourcePoint" />
            <mxPoint x="427" y="455" as="targetPoint" />
          </mxGeometry>
        </mxCell>
        <mxCell id="9OeWt4J3rH4BmTlKNR9v-5" value="" style="endArrow=classic;html=1;dashed=1;fontColor=#0000FF;exitX=1;exitY=0.5;exitDx=0;exitDy=0;entryX=0;entryY=0.5;entryDx=0;entryDy=0;" parent="Q4CV0_VZXRxGfypteqmT-1" source="9OeWt4J3rH4BmTlKNR9v-2" edge="1" target="9OeWt4J3rH4BmTlKNR9v-6">
          <mxGeometry width="50" height="50" relative="1" as="geometry">
            <mxPoint x="627" y="835" as="sourcePoint" />
            <mxPoint x="617" y="450" as="targetPoint" />
          </mxGeometry>
        </mxCell>
        <mxCell id="9OeWt4J3rH4BmTlKNR9v-6" value="&lt;span style=&quot;font-size: 14px&quot;&gt;netlist&lt;br&gt;(write_verilog)&lt;br&gt;&lt;/span&gt;" style="rounded=0;whiteSpace=wrap;html=1;fillColor=#bac8d3;strokeColor=#23445d;" parent="Q4CV0_VZXRxGfypteqmT-1" vertex="1">
          <mxGeometry x="543" y="412.5" width="116" height="43" as="geometry" />
        </mxCell>
        <mxCell id="U1x_rOdrq__jpkDazGEW-0" value="" style="rounded=0;whiteSpace=wrap;html=1;fillColor=none;strokeColor=#0F8B8D;fontColor=#143642;" vertex="1" parent="Q4CV0_VZXRxGfypteqmT-1">
          <mxGeometry x="129" y="318" width="561" height="232" as="geometry" />
        </mxCell>
      </root>
    </mxGraphModel>
  </diagram>
  <diagram name="synthesis_lab" id="NYA-eAznUWu6ZeFyEr9t">
    <mxGraphModel dx="1902" dy="1035" grid="0" gridSize="10" guides="1" tooltips="1" connect="1" arrows="1" fold="1" page="1" pageScale="1" pageWidth="827" pageHeight="583" background="#F1FAEE" math="0" shadow="0">
      <root>
        <mxCell id="jNX_CL863BR4BcK0fppc-0" />
        <mxCell id="jNX_CL863BR4BcK0fppc-1" parent="jNX_CL863BR4BcK0fppc-0" />
        <mxCell id="wVOnPPv6YOxn_1LYzhQl-0" value="" style="shape=image;verticalLabelPosition=bottom;labelBackgroundColor=#F1FAEE;verticalAlign=top;aspect=fixed;imageAspect=0;image=data:image/png,iVBORw0KGgoAAAANSUhEUgAAAfQAAABYCAIAAACMHZL8AAAAAXNSR0IArs4c6QAAAARnQU1BAACxjwv8YQUAAAAJcEhZcwAADsMAAA7DAcdvqGQAAAASdEVYdFNvZnR3YXJlAEdyZWVuc2hvdF5VCAUAABiUSURBVHhe7ZzhdSQ5q4YngG+i2c3FmUwi/nPTmDw2qAt6ASEk1FVtt91d5jk+2wVCgJCEe9pe//pfURRFcTmquRdFUVyQau5FURQXpJp7URTFBfnpzf332/t/f//8+/u3yA/m9+9///z9L0Rsqsb7m6ieni+uW1EUZ6nm/v3NHfBANfeiKD6J72zuz9AgnqdJVXMviuIT+dXeSvI1hexFeZspvL/pTR71PMDKo37EHlCL8J73kBfyaL7oWQbET4NjBv9giOL06/fRxmZdxDJulqdpKBdoPDw66g/Wn/Alncnsj/m/t25k+v4Hft7fMK9NaM4tYfsmgZhWqzZhCB1o9jxzKRZF8Qu3yi4Vbh49LPR8d/jymI0n8xOeZ3j02LVslr5FyCxuBOrfP5OJNRHWa/7e5uY70E0dNnGXeQJWqKUn6I/EDTYZS/vM/5G4xO26sTWZ45VM2RN36+Z/bu78bMH0ATZLNnkWRUHwxzJ2wfzF00e9hGpEzzzihoylHyKzN9AAzD6D/egFtnx8Yqwf0zZcbqO96iEusbhDffK4yzybFQNDERxBn9V/UduVNyOzT/1n+rBeVUOcmfzxq1cEM4jN6P29WUKzwTwGn0VREK25+4uoNy3cunB/WAC+H638gKW90Xz3d9YZyEAEReYOsKPFUPOv69B1jctc0tbFU/zcTVxYtakLstGg39SfRmAJJVk1k5SlfeY/1eur6EezGTPw870imInYRveejeW+FEUB5AequGJ0R+i/0IQLY5ceIpCr6FrS7Mcz2xNNFT0vQUYiKMvECMSyNKyJhHWJ0a2+QLN5TnuBJotLLPM0stGg39Sfnjp5IGNpn/k/qGdpW7dpns0QRTCDiDFO+MC6CLJk3+1FVEVRNKS54+r95c+o7VbLbYTI9211mXEbRVj5CQR7dtuup8hbwlxj2QvajWfX9oz8/bqgXq4rgPbx9s6mokriElmeIBsN+qz+0smOVYzI7HP/t/VH6sY2zQDr8tN5dltp03U/zS2b+r0DsoPTQlg97UtRFIQ2d9yzsenojWrYDZQbqagezH429ux+nL6HHa3aYgyhNi79v3/e3CdOZk6aYzlIiNEyi7vMMxoTzSbTt6FF/Yk4YYoVyOwz/6neHJHyVt1sc3nS2Nzdit/f6LmZIaY19ChKSlNzh69tJkXxMxmau92lu/ksP0WGNsmh620Kfta+KIprIM1dO8BH7/xn+SkyWnN2zXrs3TNn7YuiuAa/+LKv/sF7ls/y8y0MH0R4bn3i8S1oqcHtTn3W/jivVbei+FHIO/eiKIriSlRzL4qiuCDV3IuiKC7IxZv7q/yq3DLP/ln5FT/CxooBrVu0zwr/cOGZTtGz5VM8IdLcpbl87Meh7rYyX3ljcdRFcDyuufNPEseeO2uOs8mTBx7T3P2PQ0P1hgGX0lJ/x74/+jcyyfuRNI5Tzb14Obi5t4v2988fXLf7j8vj2tBNPv0y30S7k5Trcd3qcVWljJFw+87CrcL0aBzyLUejZ3oSzha/OfjQYdtDqX7ueajmXrwc+JO/fM1Ct7oDXFgRFPQBu2kcxEVpYmM8qS0ZAXPRUNCMxKBNae5HXNMJGkL9WAD24oc8Fm4mdHPNTsTlusiEJIuBdUEPjc/TgGMRGmOePeip/D2YiHzaulxNZATnY6GnZ3rE3OO06T1zAD880jCfy/VCOe+jNxVc9eZ9yfyAbk/oFEJScpoNY/4M9mW5ro2eyPKZ4e2qv6f/s+mfuWuzun97cGpEcNjGhxOAgPNzyyQelOxQQoSE50DISm+O+PejloMlCn2Gz3npJzwjMNIOpSC8B0/Qh9zUDfs5m7/hv1H5YyClgpzoSSTpeCyd6hG3MtSWY/XJ1gv9ch8JStamGFYf/7zx4+3DeZNZTrMhxEJi+3XNenre5DPT9ovM8Uqm7IkL3fxj48RM/WhkS2G3tE2exZPw2c3dYQeIaHs//J3u1TtBiY4B6I3NoSSWUwCmiZD7Cfowa4lVzM/drIsfNedgRmQRg947ZLEvQAagz7wt4XVYYvDH8wl54niJnqaIDqifPWEVgHU6va9rtMzWa2qIkPAMQsHNbeYn2o/+j5PtS7quTH8yn8kfv3pFMIPYjOrv6V+Er3jnTmD7/TGCYgQnZX1Q9ocSEp4DIauNHxSAlc0mc2i0+8au1CU7ac8BDkBDIZNANhr0YeF+OVn+Y0qSp9EGJUOirYkQTV9bom+TOmzl0sswryI3oBNBydYbEghmkPAMmnmgTUj8hAyD/1PQVKwLTpFYuq5MfzIfM/DzvSKYidhG956Nliu7DrkVT8IXNXcMIQI04Z2IYadQZGV/KCHhORCy2vjh9IxkIQGe0v6yodln6yJCJoFsNOYv6Wv+Ltwd+bOzMdvmnwM4sRUo0UM0OB2XXkZYBYBOBCVY9uanA6JXNURIeAb78zb7CXFZcv5PQS47usB0Xcf0N/OZ5tkMUQQziBjjhI+dH7Jk3+1FVMXTcKO5t31rRzI/RgZOhggO8wxvdrAg4NnDflYRzb6dz+H9BSuSsx6yyg63nNADy/S0Bf396xwSu3Wt9CAbXeZPKUNs8e/MH8nTZJEV8ynPGj3TG8htuYqAbsIQelmBfL3iAnrbR4gyZ/S/yXn24+O2QvW1s6aNziFmsn3Zr2uvn/OZsYXwNI7fp/PsVoem636aWzYN95SABqOiarCavxmwC1EVTwM3d+ybo29htqlLcFQMnCQ4sIPiRRy4jrt4fgB+CGfe/w64DHlXOLjBOeH0Qz7qJ06YGsHMsj7ZuhAYz8Y+zwGdq0Ebrgin8h+cCLKKIbRzstSHPG2z9rRJQ9EI6ERwLNeLuMt9ZPFAqtBv/HRz0iz9O82GMarPZ7GunT7PZ8YWIstrr6TgoZ5Q/T39K9Pfuf9w9PAPp9kO9/Pz6vlfldqX4ruo5i60S+cu4Xgnn59Xz/+q1L4U30U19w7fu87r3cBXz/+qPG5f9NOSidWnW8VPo5p7URTFBanmXhRFcUGquRdFUVyQL2rur/IrU8s8+2emD/so8wnrg4wA5SXaR4KAXxOLP6x+4tNYv2J4bb5mf/FXIXGFQfxV1k/hcYvhnyiNPXfWHGeTJw+8bHNHKxPhAN/1G3uIeyrV+3jy5k6cOsZn9zdDmsFYmdAiEGjUAZ6GKVflbJ0z+0ffdyDN3a4xHymWXmaTtAtJwo/rSiiTCK/G2UOph+JljsFZqrkvoW3/++cN/18TNOgPG+efFfolOLvY7y1ObO66lSLyCRP6VW8nQP8+oHufFb7Dm8+udYdV41qEHjT4ITbNOnRzXY2IPX923/NZ5t+jri4VHIvQGPPsQU/lTyzjZvW5pdccaLwtOaZCHGgZ6mxIm3TLuo1BZBYnsPp74phyinkRWOYy7kZPWNWYVh8ZmMjyh3MkIGZd3WvSJgyhA82+FySIx/FLFXR/N3VYYkujF1vIzXdLKIAIW+DWcvKzUF+Ga8CxNBkb4QEYn/JDjHUY1nI87uACuHvU/bD7G/Z9aLyJy/3a1OEmu+ZOj6Zn37p+SaGJwT6k6wmjupLFXI7Vns079BlmTyz9hGcEnvMH3oMn6ENu6ob9nM0fLP3P9VE9SapvcaHv+0hJaD4EJDzvEe8Dcs5kCOF6YHnq06HmKvDM9koqHrH0TrGsZxo30dOz+SFCfWay/OHfFuL9aGRLYbfYTZ53gCxEaNzhX1fW9s4Ztwr0JQfm0BnsHrXsu8Q+2b/uiz3DwuL6/E/5IdhEnz3buOIzzCUzGhBBIRsrDvvRPCHO9iB4zvZrn8+e1ccyLjnD77cFZr0OiJ49xbkgpBXimv+gD7OW8NwW18/1ibEoIyzy4yp/kEUMeu+Qxb4AGYA+8zYT/Y9+svpkcU0NERKejxBWB1inPnvc0bLr47jMhtlxwrogsD6Lm+n1QfSqhjiT5R/yCX6a0Tf8PXRkIUIjqwPEJZhBD7MxK8B0mOfQGbZeek73RdOOdXZmp/zQMz/qs3E0rrqHCAnPS47bI4wIY8Is9nXt8tkz/UA1xnOo05CWp8+YDMKsTdL0CEvYZNUxWiHYlbpkJzF5hgPQUMgkkI0GfaiyX87Z/EH07xyyqOGivg+s7SFCwvMR1JlMByFDkNXB9Crz66kcDPKEuN7JzbhRr6+iH81msvxNEcxEbKN7z0bLlV2H3O4AWYjQyOoAcSYYzA4JXLSwuqXlEgQQQUHBRlqAMR/bV3o+5QejfVAnHo07lnFdluDqlj1AGBGmQP1MbPPZE9+5G9BbZt5pSGsGc4NNmLVJmh4720AGT3nlv6tORP9JfaJe09jUk4CE5yOE1QHoRFCCpdXBXnWcX0/lYJCnjiaQxj2ml2zGBXqy/E0RzCBijBM+tu9kyb7bi6juAlmI0MjqAHGm2Y+4dRlWBpHPHC1kJIKSJRbr7JZzyo8HPjH3aFyxEnFerB0MEW/ZG2EVfoEsmqNtPns2zZ3ciB7P5jSktWS2CZos6RarL/IgLcFX/bvqYOl/VZ9B79doz81kuJyS6+GsNMhgD50ISloHTVg9DWbHyeqZxj2gb6dlqM/MJn+evapzc8umuC/0xI4a0GBUVA1W8zcDdiGqu5DknPOsDhBnbL0iqkeIxhwI80TYwnOn80Nwbsm5shp6m1N+An7ukbihLDw2Lt/vtezy1t4Iq8j2a59Pdq5A2twJmcjY70exWUgLwE9HjaOeaHM3SccJU6yZ5SJjaPWDwHg29nkO6FwN2nAVP5X/2fpkiyLcyO2/d79Hg/diEtCJ4FjWwRJWT/xKCkw5hUu9oTlk9U/15oiUmh6GZjb5dz80QM/NDDGH/fKipBRLKvuyzeQI4gfcqs8SLFcEdciTnGNm8hMmbmBP6/Mzxmg2SyX4kB+X/8Z+2Mdsiubgyjz0SR6a7GNQwvys9utWPpgSzxV4uj8/0NbC6YvYsre1PT+Pzj9s9uV59fNQ3MdPO+eP4PmaO19ed5nHu/38PDr/H9fcX/w8FPdRzf3jPOMfDuNd7bzeTX5o/j/w0D+unsM/hD36L+Xiu6jm/nHqr0IWRVFckGruRVEUF6Sae1EUxQV5seaOT+La5671YdwP4gv2HREAxRHtd8M/FLi16p74x35UAD/z2pGCCA/myHo/kWv3E2nu/gdLX7aRG7Lz9LjNEM+GhgjqBo/xUHIQXS0b/vdhH5D5M5PtY8bX7zt42t+wPH5muEAf/jkw6hC2gGv/sMoHvv6OYONFuBbc3O3eQPX2Tof8m085tliELwHtA0GllYxbPqe0P4hn7S/J2X08a/9ZtA3//mM/88XNfQmuw9d856vm/on80p62riavHGjFdadtZJg72xM0gSSepiPQE91er5aZdbT0fchtxiYf6dGOzQGFseUmgjtkFMBnTjy6uVMOZG5r8N5steZwU4dTfohQN1+043EHF8DtWvfD7m/Y96HxEo55ip9NHTbIJK0AWPonSEtObYyeoV/Cm578XfvMP+HqI6XWdYnNfJYwLILS/YzGZ1ke3TF/Bull6zq1XhmYyOqZ1Qcx6RH6NmEIfWF+8dqTanIh9LjYs+4QzyERFW0ma3sCE1yt+1zbDLZ3aZBIEp4DPiJxJB+LCv0Sb7P8x+mc0vLEG2ftZ7AwTPF14+SSNRIoqZrr82E/BJvos2cbV3yGuWRGAyIoZPNZ+27GItACt/nMwHqEL3/mv09BOB2A2Uw7SuyxvZIlT2gBUv9sqTnbmYG91W0+SxgWoeH9+Oc7aDeC44ncMJ9+Ldm6zq4X4gzqmNVzWR+NbCmkzi9Gb+7uf+iALOWBnZYuLWJmT88WgvWjmWF+IELCcwCORWCHWT6DPsyagb1hE405pZBz4Kz9DCek9la3o/vizE75oWd+1GfjaFx1DxESnpcct0cYEcaEWezr2uWTEbwRmX965hH1GcoyYwmoP52d+I91NrVOCHqIBIZFmBIL4e5g8j/kY6PpujJ9yHNaV2Dyx69eEcwgNqOjf2f/MsR37uNmBJo+KWJmTzaYAHtPnOLSgFc8B4K3zabSIyxhkzkE3sYmeuaUwgEKnLWfCSsFWZ1jHTQYPZ/yg9E+qBOPxh3XOBeBiK5u2QOEEWEKZGns88mw2SLn/uk5ZLLH/GgEfmVFlr++il7NfAJeD5HAsAhkwHKAJ8jweUJiBKWAiLYofs7WdXK9EGfMwM/3imAmYhvde74e8TP37DuqkRUxsycwQQTFdkXEcTMg4TkQvG02lR47t26jz6c9dp9gTinkHDhrPxNWCo7ui0gsnvLjgU/MPXseIELCM/B1ZvGWvRFW4RfIojna5pMRvBGZf3oOmeyxBNQfv7Ii8R/0an17XRgWYUz4s4BHEZrY0dAH13VzvRBnpnk2QxTBDCLGOOHDG3cB+LdleM1aX38mlrXYFDGrHSaIoLRA4gfPcTOc6AnesnyaT1nUEeyUQOSExgTgWISGX/vMWfuZZd0Izu3WvnibU34Cfu6RuGGNPDYu+XP3nWwhsqM2cZ9Phk7qZpvzEDLZYwloBHG7zx96lAd6sWlxm8lQNwL+RWiY/Wfhi5ndryPryvRhvUuyetIQz17Vp7llU3/29sjJXC3whZDfc8dSFFkSCtdB4bSqbV7Y74U9gQl49kgBmfv/DvImnzhhlYMBPzglLLbJ/hzAsQgNl39D4wa1xc3sM7AwERzLOi+V4EN+XJIb+2X9WfRTNIdP2fc25AqqTvb5ZOikwWzpn4Atnm9iCWgEfiUFDyX++4pJ6fLvenJEz02/rc84dDjnjFDbGHi7Lzu9ORrXu2RXz57Q0b+zn6GpcgBRvSAv9n+oHkc3XTe17dbNTX1dwsUrikdgvfWn3a9X5LrNnQ+bO3zjWbwe1dyLr+Sn3a9X5LLNneDz1rn4yavmXnwxj7tfwwc4ng9/svSjuHJzL4qi+LFUcy+Korgg1dyLoiguyOs199///vP3//75r339/fOPaFf8+0fM/nsfzDL9fSzz+f37nz9Ns/mlLs9xe1je/dn677cTWX2c5bo+t/4Zx8/JM/DF+1L8BLi52w18/ptAqb6fbG3cSlZNJNOfIstn2dQ2HLeH5eOa+9t7LMusOc5mXZ9S/4xsXz4LqsnnXpNq7sWn8wvX7/nf2gC8HTv1fxY8trmfz+eDPLq5w8BW9Lgu+djm/uB9qeZePD/c3DfvPU0fDh9EfPlTnun53Z/quxN9W4evHivRE/Ol3edJHGzu8Ox+b3cQM5ZNhD0jee9f8uRqY9ScL+2JZR3Mjw35JJd1Jrw+DAXIvz8PYYFL/5Q/7bWtwvY9Wxfg0e16/TcYr6cvfySWZPuyzHMZ1+oc9qsvyr7cKub6ZH7A8X0pirPwxzI4YeHC6KEUpW+aeJ4bX6Zn/3oB/PN8vcFSv7hU7R5u8gQHo8DP0JhWs4wsHxlO/JNN7xGj/yMawvxgyd4mq7N/nuszk+1R5pNtWkrkdv6muFwFEfSL+mueFivYLLFk/Bf2ZZlnFne/X5TSnMayPhs/3v7IvhTFKeQHqjhb/GWnrR3KZdNcnmxiqSc/9J7Fbrt/S4WL5BsiyPTE/I5skycI19KY9TY3+NywfIcIgv878lzWIfOT1Tnqp7gzsMFci5X5p2fkCZ/BjJjXBWJ9xkqaH58DkXkLLPdlmefBuKFu81G3iSK6+h/arwP7UhSnGH5bBgfODl92KL3eSPXtlNNc/2VnGveNv1Z9bdbPlzbLEyKRtYNZj+XbhT9y0+Z8jOD/vjznOmR+sjqHDI80EdSBQvi5mX8ayioMstFYnzExv8zwLnj5xiKw3JdlJlncrM4QF809q/92v07tS1GcIv4qJM7c7lAmF2yj9+9QlmDu4uJN+vnSwia7hMTB5gJwaWnoSAchlk0ExOZ1b56Er0Pmh/TLOocMOcqBJoJ+6lPK/BObzIlsNOhjs3PhOBltl5tAnuW+LDPJ4mZ1hrho7ln9s/26a1+K4jixuftDhhtODziIpodNuDlEpjc/G5YXjwj65aXN8gQHPQN4mENkLPMBMfMPNHfCRjd+lnWGPToRjEPcJbCkpVkgItvHg5kHlvWxjsmxWp6kp6Z5cDuM5b4sM9nE3ewXu5rKuKn/orlv9wWrJs3ZhReF8csaon31E+aG3tpzONz48m9hlnqcY9PjAkSlOs/0YHlpl3nOfrK4c4uZr2jGnM8+bnbJM3uv9/VZNp04RVfh6/Pv2KQyyNXcXDL/m6bZjdU+02MIQfFlSfpDxV9TrJnlOVnmSSzjIs+suQ+rcPnP9dn42eyLpVTNvbib+M79hxOuYvHtoAPaxx3oerVBRXGTau4DeJNob6CKbwdvdXtzH3t9URQZ1dwF+7d//UP42Qgfy1RnL4ojVHMviqK4INXci6IoLkg196IoigtSzb0oiuKCVHMviqK4INXci6IoLkg196Ioisvxv//9P6+epPGYCJXtAAAAAElFTkSuQmCC;fillColor=#A8DADC;strokeColor=#457B9D;fontColor=#1D3557;" parent="jNX_CL863BR4BcK0fppc-1" vertex="1">
          <mxGeometry x="27.995625000000018" y="105.00171875000001" width="500" height="88" as="geometry" />
        </mxCell>
        <mxCell id="wVOnPPv6YOxn_1LYzhQl-1" value="" style="shape=image;verticalLabelPosition=bottom;labelBackgroundColor=default;verticalAlign=top;aspect=fixed;imageAspect=0;image=data:image/png,iVBORw0KGgoAAAANSUhEUgAAAecAAANbCAIAAAD3+MAkAAAAAXNSR0IArs4c6QAAAARnQU1BAACxjwv8YQUAAAAJcEhZcwAADsMAAA7DAcdvqGQAAAASdEVYdFNvZnR3YXJlAEdyZWVuc2hvdF5VCAUAAI9ZSURBVHhe7b3rdWM5D65ZAZyKZjqXyqQS8Z+TRuXxZTMBzOBGEAQJ7i1bt22/z+rVIkAQAG+wSpalX/8HAADAdUDVBgCAK4GqDQAAVwJVGwAArgSqNgAAXAlUbQAAuBKo2gAAcCVQtQEA4EqgagMAwJVA1QYAgCuBqg0AAFcCVftL/P79399///vfv7///f5tqktx9fwfiiyN8PHHVAC8AVy1f//+82HHk++vdmyo7G/1Q1jVoGtxomp8wv9Mi9j4WsG6terRBD6d+Veo4j66attiB//79Q87/JqFmuF0p6r9qn0EgOCqTUeQqiY15ELxNZKuksr+Vj9yRf/9/Uv/P1W1b/W/RKuGXjmrIE98JkVT0NBP5lVxaX3//f3D/2ubpWtu+ziuvwjd8r+/H5/b4vui6ZrQeNV6AkAMr5DEinaGyv6MH7HhYi21+1TVdm7NM5LGmtCicy5KUFbwWCXcavX/8cc9sSPSd2MnjFrGVVcRLXakJSvvo7baE91PW9JN3N51In/vimg+Fc0VP3iSrlRRBdFzxL3DhLplD8J6HTj9df4aK+XDWYQhhGeoDC6U1rv0D8DdSVX7tptT2d/kp9necMQ/ccMdvVp6w9WP33Z1Orf3pFvdri5ffRJTL7n1cE4V19sxZ0IDSATvsVi+JjxWDFyc4yopw03+VT4VYsU7y8vcktGxmufQbsY88hw8YrUOnmdqawRtOzEHFkOqynKUWpnQWFoCcHeGqs1HfDyyeyr7m/x8omrfmmdEb6nTr2u7rybaXT4Oke7qvgqopG2lipv8xCjcbj7TcOcwrhM9E1X+m3wq3CYmmdbfnbAJu88T2cCO2hz7T4YQi/WWNYsSOIfY7xeh3SY01MqExtI/AHenV205c/24H1LZ3+rn1ut6q/+E3lK9chrZ9OJ3xKKMXTlV7gy3el8F5tu+ievpxZyJFNHJrrZxneRtk3+Vz5LkxxNIenOkxZbVpj+DOjKhkReB4QDa2zvbwM18lWUUn05i9g/A3bGqLaetH+5DKvtb/RA3XddP+E/EiqM3XG9s9aT1EPYRrui+Csy3fROXF8YJIVJEJc6LxaO4zvn8q3yW6NoOiJ/s36RetlV/hpS5cmYfNQcdu98vYhlFrUyYiP4BuDtcteW+rA+63iW5Tb23sr/VjyI9WX9TXGLjP6E3yq9cc8mjNBHVnyfd6n0VsNhjksu4MqP1dFJERVdA49pqHMVVTua/yWeJDzTRMxj9x8Q86dZ18B6SlLnDflb6SBzr9pLasG7EMkpMe0kadf58AnDIr3aeIv1szaetsr/VDzEN+EzcsXfwvyRVbb2oNMy7Otubn40JvfmiV4csUl7heg+jmv8qbg4Q9avcwgr52+3KuJ/Iv8pniY4zobkVT6ObkCQR++LwJZqoCYEcYjnfEDf0fPyhtnRleyLEGnqP/BPnzycAhwy/jQTvgxQBvvomyrX3Yvp83i0fAH4sqNpvilTFUCXHovl83i0fAH4sqNrvy/xPbut4Ee+WDwA/E1RtAAC4EqjaAABwJVC1AQDgSqBqA7Cmv44/vr+w0gPwHKxq25tN+TdM7U0CpmqELsLefipQj2lXbPyMHd1PGqJ60fW3u8o7z9gXt63Z0yNSWKHZr/yD16JvJfS9kB2STS323Q1Mb6OHM3AXNL4JgUr/o2hXCe9DfypWtWntH/Q5yDqWrL09+JnOfbSPtHQ8vYOq7WinCbV/8Fp4WxjeR9mjJtT73go1wU09q3dH45sQqPQ/B/tJefrz8cG94KrtN4PvSitnrlTRz+itNyRVSRNkj91npPK/ub2tuU5JO02o/Sua7cYbeBB6+P5+yNLzE4H2x52bfZetJEF3VA32yAiDBpo2/pmuxDStsDylxKy3w9OIZ+z7nSuZEe9Lu0/fZF6XQKq2HkDdgHaw/LrkdjOm9hl0rN4Qv2bapZ60HdErpOGcFHe4vSHtGe00QVj6V77f7boKvPC07H+4bMu/3tp+1/vOou5l0Gxopy9bsrqdw9hWNL4JgVlfWRLf+FzJqvYNAk+Aq7aftqEU6jlz2nG8dZOSn1grxwBDV7uNIa5mubq9rblOSTtNaMz+wWtpm0hl++ODX3Jr+13vu4hyiM5t4vokJIdjOEIVJgRmvaVy+mp8D+Qq/bhZv5Zffi1U9pOd9Czw2ZZDfssmqR/1qUNVT2gAE1ZoMItr6VjcL1ZtJfo3FXgRvBVyGNpmtv2u953gTsEPakU6z46oE90/ocNMCCz13dn2YH8n5A71DQJP4Nfi1MqlSafcL4+XbdUfon7IJbcllo9Vl9quaKN3t7c11ylppwkT7t9k8CJ4E8fDIIrtvnOX9JEu2CyJ5zCSfgzMaHwTApWe0FhV7zfjzOKD+/KrHdp2K+xs56rtamrzNoWDfv49JASPbX40gOorejpyOtxPzCdNIaGdJkxEP4Tdt9obeBDzYWi7ut73VBnNaLtrNmCy4bH1OZwTUyq9knq/8blC1X4+v/RumBSKrJ0zZzxwsS8On3GHJspI/WEwBjCbFDbG1QtsRH1QM6GLyBOs/RPf+Ha9ObzuYxH0jVvuu6h6sTCbuowqcfP9VOSjLk6ykrhJ/wPOVdgVBbX7Sdj7tQEAAFwCVG0AALgSqNoAAHAlULUBAOBKoGoDAMCVQNUGAIArgar9I7jEO8/6W+eO3sB3yEPne8c8AfgEVrXtzabhlB+8/3R8B61pV2z8jB3dTxqietGl9+eyL25bs6dHpLBCs1/5/97cWsV0RU14LrrPJnyWW+f7Ce6S59XpZeCRSw0SVrXpCOLztYFz9ar9BK6S5+Pgki33Lt1r8Gi4auuiU0WkB7+rrlTRz6j+EZrrD0lV0gSpsO4zUvlv6Zj+C1V7l7+dv9rbFZEpCWG12/7yagi2mN3YCaPcOi4RDSHJB+pqV/6V7oe3YlhqHWbCFtushu9p145+kj3Bse+XZ5UPYV1h0a5OvIAs8vyGpQOPQ6q2HkA6wLYRvPTtNE/tZkztM+hY8iptvgXaJtSTtiN6VeKhJ1LcT1dtYulf+X63y0mrbTNta5h650UjeN2aTWyrI120ttvt+dfKP7V98dmPmKtIRMs9e8u513MezyS375LnrHEsyujh0shVtvtoS1jcKXB3uGr7aRtKoW+F0o5j3K0zJD9xX8cAQ5dEMa1pNMsW9ytVm5j9f3t8lxXdF1/ztIbzosUFZzFsBzfbWDfb+3dmfcpzA1u2HGaSn5SP994xT9awp3U+3wxbEJmz/DgalhE8FHy+9rd6BrQhrfa+Ws2LJuYJHkBdy33c+M+uxvVfeqvonqYhsx/ebNHEM3nfPPuI01O4KHp1/AykZQQPBZ+vbf5N/r6k1d5UK2JetLjgieRZqfzH8xD1KhJLb3vUZxo1+6FQndb1iDyX+Xwz2hTbutlq9fUBjwOfr939EHbfam/XJa122t+0hmlZFN6A1X4lz0rlP/7U13YKtPR2yDwqaSQWhR1mRDwozyk6K+YlvTS8KG1GuliqB48Gn689GH+/25X3kZDbpfq5WpkYR7XbmF01vTrStrPxH/bL325KjM6JbRXI9u689pM7RH+vPKt8FOsdlVdnmPJ2s8B9sfdrA/C9kQrDVdNEKclerAG4EKja4EcgVTpU7bGIA3AhULXBT2F+CcM6ALgUqNoAAHAlULUBAOBKoGoDAMCVQNUGN3CVd7A9NM/++jje7gZegVVte+dlOOUH7z/tb2XlHtOu2PgZO7qfNET1ovs4/7eRKazQ7Ff+wRkeWg0J3UkTvsCj8yT0PJrwIwk1AJfoqVjVpiOIz9cGL+deVfsJLE/vzwRvfn8yXLW1kNGi04PfGVeq6Gf01h1KVdIEqbDuM1L5b+mY/gtVe5e/Zrvx9pORpRHCrrVzwqsqtE050Nvy+t51585RTUyD3GfXjh7mIHyeijwV16qtaQUdZoJQ5UNY1/c9V7qNJoAHI1VbDyAd4HaFWNm0ud2MqX0GHas7qhXTd1c9aTuiVyUeeiLF/XTVJpb+lW9/u75O2jVbsbYX3tv0ts4syKrGs8Rm497Nm7XBYy2Ze3nfQ24aqMpf254njw15ErP/WeNYlNHDt6Ft6Tec2nvCVdtP21AK7TQ32nGUwnvDDiU/fg2IMcDQJVFMa5rxZHylahOzf3ASPy2K7q/vne9F1veOtb2Ky82qYEfsab3v+zy9d5+PM+uTf4I17Gmdz7eEVkU5v2vg6+Dztb/tM6AHkXatqnpZ3zvW9ipuNmsJ+1Kmg5TyJHizRRPP5CYf6QmEPInZP9FHTF3fG19b8ATw+drm32RwRNq1qurV52dtr+J+syrUZ8yK0DAmCOS807r2+Xsy8xmb/TvLfL43+zsI7gs+X7v7Iey+1d5A2rV0Tnwvkp43r43yti52XG1WfGrxU1ZE0sj5oXSy5zp/TZP12k6JzREjU3RWfG5q74/Nrl4NcF/w+dqD8fe+XV8hnwdCbqnqV1VvtI8lrPd8/KF2WO1h1LYKZP/NSZUnkTu2+VvbwOdrZ9J8aWbWAR6PvV8bgPuSquHLkXS4apooJfl90gPgPKja4CG8XdXmKh2q9ljEAbgQqNrgIbxb1SY4oQ5KNrgqqNoAAHAlULUBAOBKoGoDAMCVQNUG35CHvtOuvz6+fW8iAA/CqrYe8njK0/sx0wUIb2XlHtOu2PgZO7qfNET1ovs4/7eRKazQ7Ff+wVfQHTDhC9zLz0OrtqLn0YSfSrtK/WKCJ2BVm9Yen68NPs27Ve0nsDy9Pwp56vbv719943tZAcDd4aqthYwWnh78zrhSRT+jt/55QqqSJsgeu89I5b+lY/ovVO1d/prtxttPwBbBsDVP58HXPJoadk7UnldbaJt1o58NaZD77NrRwxyE51bkqbhWbU0r6DAThCofwrq+0bmSGcn68RrlxQEPRaq2HkDdgHaw2mme2s2Y2mfQseRV2rzD2ibUk7YjelU0nJPifrpqE0v/yve7XbcS94swof0lty9aWvN5kW0l2zp/2s8GdWTCxNzL+y6aOMeWJydBYhxFbc+Tx4Y8idn/rHEsyujheyB3mtbpu83rneGq7adtKIXt1hntON66ScmPXwNiDDB0SRTTmkazbHG/UrWJ2T9QqnXWffQ9Sms+L3K2/6yfDewopJrQMCZM+XjvPh9n1if/BGvY0zqf7wqvzM+b9WvB52v/6GfWM2kx+7qP5yGZzYuc7X3AjX72sC9lOkgaxgSBnKtGc9BAm3ykJxDyJGb/RB+xPdjfCV4xXr++MuDR4PO1zb/JP55qnTfVjZgXuT4/t/k5g/okpyYLGsYEgZx3WleVj+o9mfmMzf6dZT7fFV4ZXr++MuDR4PO1ux/C7lvt7duz2S9uy37pIsVVSstIpPPjY2P7jJ+TaDAThKSR87MoLilPP0vx2Ym2U2JzxMgUnRWfm9qb09bpu83rncHnaw/G3/h2nadc5750x5+Lnc9PLGG3+KnI/puTrCean9wR8pyrtrUNfL72gnTteCG+0ezeGXu/NgD3JVXDlyPpcNU0UUry+6QHwHlQtcFDeLuqzVU6VO2xiANwIVC1wUN4t6pNcEIdlGxwVVC1AQDgSqBqAwDAlUDVBgCAK/Hiqv0t3xEVie8kY/G7zxcA8GjsL9o7zy0oj65iWjNNeAVPrtovny8A4NFY1darbjVl+9cN1+LdqvajQdUG4NszVG3ChFZlqAoYTcll6OMvF3cu79rPfdylRd+wP5Rq7s1hFLt1+DmhTpafdzz6ZzZvLMumRIhyfl6bfDZ0/0QLsZwvQXoy8V5qW8cqT4Wzbaj9Zr7LfSGWceMGzSIA4OWk59pcDLRNsNBuvre1XtDVl0ey5eFcCYIfol32Uq8ioeNN6CWGjUiMvT2H0ecGGjKbuZ/Y3s9Lu8jMAof8Z6J/djfaxxkpFkDM2szYPvrJPptNQqOZIGzWfxl3YT9mCwB4Lfl1ba1NhFRwvsYm6vWlS21qV9gld9nsw/BmYRXBQyiqMqFVmZ5GC5f0aVTFqordOK+Uzzh8JvtvblUk5sw9ErV7HslPS4va2qH6xNwVB7IY3C7jctuaec0BAO/A8FybbqsXFFEn5Cq3K92qQbv7TW/Dw4WXMWzqY9RGUZ0J40AWg1tPz4OKyQ4dbYIgQxMSoAVqOVqInE+zU3HGx5sY8le03wRh1hBlnmM+icV8xwTi8GVcYliLMXkAwMsZXyHhpl3pqjzFG82mbbjLZjYOJ4H75EE1jo4zgQeaIxNbOGpTs7MqNzM62gTh5nmlfFq3ijPJwL2oSGi/CcKsIco8W2ImjyzmO+YT3S7jKmpEBlUgAMCryL+NpOsql5pvNbfnamK33quBDd/4IXgU/0aPVapx1I8JrSr1KtnCWckP5e8MnpzJAud247w8n+XYSFwH9kmMCag7E4RZo1Sx2J4zWiyFxQ5dMR+CfTaDKi6hg/7J17maSpBdkJ+Zq+gAgCeQq7ZIfCm5rYIjN7yqbmKvV1popUExV0GZnRPqvzk2sxaO2nlAUXEiQ5Rmn0Nv57U03tNH0PjmNvshmiuNqO3IJnTsIPemLee73pcqLmF+pl5UbQBezmX+ol3KCJccE6V8eHF/HFq/nhDorfiZswbgElynanOVDlV7LOKP42fWr7a6qNoAvB1X+vQoLiWdZ5Rs4qdV7bbINGOUbADeEXzmHwAAXAlUbQAAuBKo2gAAcCVQtQEA4EqgagMAwJVA1QYAgCuBqg0AAFcCVRsAAK4EqjYAAFwJVG0AALgSqNoAAHAlULUBAOBKoGoDAMCVQNUGAIArgaoNAABXAlUbAACuBKo2AABcCVRtAAC4EqjaAABwJVC1T6HfHokvwP0cvHgPWzrdGYWCmPZOvGrf7xK3L8zHH1O9mlvn9ej1f6h/cc6uTb4fXLV/y/efKxREOzZU9l17zk9FP23CV1zdCk1hGe7xu2uT9a/ZHZVE0yc1w2mJp3dET8uDvi75oc6Jh+77hjvGZUdPr9r3ukf3WoeX3GuiHc87O+eqTZ713MsUeAbSVXJo/8W7xF5f9Oyg2t3HYeemzbetKKHLYGvIC8pSX9Lnp/o5HppnW6RPnrSfwEtu07sdzhfm84j1H14h0Upxfnob+68s03KeWtzcJ/mPVUxEgSzCHQ7/KrCxqRqygQwR9yOxko4aovnxAOwldkU83Ez6aezp5TxZ6iEITdyEmk2ehGvnHJyeQ6Hf0CbRLc/mw2rT0wCSPHac9eyfGPPsvUs/vP4ff1XXsuLYas8S8YB9J6r1XMct8tyvJ6HdJjTcWn2YtmC5nlXcaGrs71ExL+pa228Xuc+L1Z/Jh7hpvpM9D1C9Ik9h86Z8kVS1OacUdUNlbxM8Og0VOtqEgLiVU9Yaqtck5rZkl9errb4p25J2VyRpO5Gyaltl/mOv5+CJqn5Jcku0jLSn5Wme+lw2qUZanuaqubG2++ecgz6lpFT6DfOQTT6+bqltA8TM18GUA+SyW/SxcV7E6EcOCY+UR9Jwhy8LobIJ99t3InlO5LhFni0fbpOZBW7nmZijeJ6pvaRaz31ccutDEimfW9c/wmNCF1n6QPb2uXwO5suC6duo5GFmE/1zDFU7TfWQ2Z41wley1OVx8hb++/gIy5p+lMna0ggWl4ulq+8+22gTl0OUtDeVn6RPo2ZoXDJongY/bBbyJDapRnKe43I5cR14AI/INpW+QkOnJKt8NvtoXqS9MVOSJtov/fhjG2dWMppRvQk80AxNbMOTPo1awjYS0uSRHLfIM+cT5qtkP6OBu1NxJhn09drGVUHbiZxP89fi8GMcm+wdiVhm7m5VvCGfloeJ1XyDf+6oMyHYICTzdXrVltjs2+Qj9vY0qbgWN6HLY8KIrl1cAlWMSPe4ys5m9Ykbdrf243NXm8qhktwSzRP3dKYF2aQayXm2RLk9RvD8id4zxq30S1JopconJ8NYnjpA7RPNWQ+RNjSGW/oZ4rMnfiSFdU+jcv4hHDXVcnZSwXbKlFiOW+SZ82l2KhLZD8uJwT5Rrec+rgraTuR8inlZ92Tv0DiPruSphbQ/kY+J1XxHsx55lWoy/jpWtSUqO1bxkEP7rySqy2PCiHaRbzeYj6kyb7+yX32VtJ1IWW38cHpOMREnJSDTYbfJ/8wm1UjO0yTz7x5SGorazFOo9IkUQqnzsQxUH1ETE0Z8uMmTJrpd+vGJt3H8GHNOo3L+Yd2o2TlanIj6TENy3CLPnE/rVpHIfup1XpIc+vB9XDXSdiLnU8zLuje7NirTQHer4g35tDxMrOY7+lfUZs42hfg6XLU5A0lBVRFJWs5gyG9jr8zZL/1UVJMUH+xBvfkKqqDtiCUxRXR7TTOuPiumzVBSVtUuSm6npqnoXGioiiawn8H/jAY0oSb5Yf8697CGtjuriadZO5U+MZtV+aR2ZBOrOetpq/95Pam99OMb1zwNw4k0KuXvw2/d98ScW45b5Jny4flu/RCzzYa0IDzW5ruL68mZHEj53Lr+hJuaLOzPszk9k8+5+XraKjrJm6K2JgiW4TSLk/xq4yPd1+y9stdZOV/JcnDUXKkDGq82UUyhSas2ROzwlIL5xx9qh9UfXImf7JwI+iGf5icPmHYxMSxpc5L8z2hAE2o2ixPC/vv7x9Yh24/5dJp+T5tEt9zlU3SpD20nZv/Ecj2JpR/fuOaJH10xIGPdMA2ndh5Q5Kxk/81JGfdkni1o5WfRtc2T2JzPzuhk6NX8i3w+t/4DLXRIs59n64qjDv3U8533PfsJQRXxxlqThRaCJ2yqWxh+Gwm+jmxi3yTdHt/s55NO2/PRM2vCG+TzIF61769az++6j3dHl8mEO4GqfWfktobbO17m5/Py25Xq17et2i/ad1Ttd6ad/TuvEqr2/eHj3HllySbe4XZxCrwMnMM3vu0v2XdU7bdFlughxwBVGwAArgSqNgAAXAlUbQAAuBKo2gAAcCVQtQEA4EqgagMAwJVA1QYAgCuBqg0AAFcCVRsAAK4EqjYAAFwJVG0AALgSqNoAAHAlULUBAOBKoGoDAMCVQNUGAIArgaoNAABXAlUbAACuBKo2AABcCVRtAAC4EqjaD0G/VU++OxBfrHcZ2vf8PWTL9EQoFMS0P4/z69AN6+8456/TDVt2l3v3uO97vBdctfVbtJUz56my79rT59JWmb819PNrFI4BczL0XdAzY0LgoVW7LZpiSzcqiaZPaobTEk9rluvp81Eb/0ryMm7SP2Yp7kj6Lvn78lDnL6Q6/xWfWAc+Rs+t2kRL8033i6s2ZajrKFPmGUtXyaH9yb0Rq39//351gfb7+lBoBjed2q9j57LNt+2AVU9fc17acVXPp1qtp26XxOKmnYEiruo1Ysr5PTm/Pp+gLdLnD/l7cuuifWIddIQJE6lq35F93NcyvEISb9oZNvaH2ylj5XrzRf/SgV6ur6TWc+AgIYqIwrjlkoyhY3WONLIbyBBxP9Jy6F0hq+bHA7CX2BXxcDNpuTy9nCdLPQShiZuwRR2ZENCtIieaQlOu46reI7paxZnmZ7E+hGvnuTs9h0K/wYLHk3AynzApGkCSx6a26onZPzHm2XuXfnjtP/6qrmXFsXVIxXyeWbmKu5nvcj0HlbI6M4mb1kHRESY0wrQ00zGle9w7Oe3HK/wSUtXmucXU91T2y72paD4+vzrLfSUkDdnS1lC9Bpzbkknep7brpmxb2V2RpO1EyqodEfMfez0HT1T1S5JbomWkPS1P89Tnskk1MYdwZIn6LFhTxI1z8XKvNkva+pgrd6Nt92+O/Jau8qz0G+Yhm3w4h2Yc2zZAzHwdTDlALnc/1ZZ+dOVppDyShjt8WZa0VR9sqrhtvmav3rtNsZ4UwV3tUe8jB+ugzNHjmvMct/abebmflINzfnZPZqjaPI1xCfbM9qwRzs9Wzhbvn8m3o9vixKMsu/HxEbYk/QiV/bLo2qF6R3fUfaZTshyi6DATaj9Jn0bN0Lhk0DwNftgs5ElsUk2wo4D7JDRKTKCKa5aN6GRJ8pO2yYnrb6lMJ6fSV2jotDhVPpvzY16kvTFTkibaL/34YxtnVjJ6jY4woVHFzfNtampzx5i8swyxIUUnqnxUJLTfhMkg5qlM9hbAxGaf9GmUwsrR+ZvQqzanOK7Xnr09Lc68Ckt4HXn1Pr80yxVXdG/i0qtiRLdR3eQ0NqeZUEnbiZTVxo+vldpUDpXklmieuKczLcgm1cQcwvEYfSJF3DgXn+CGvD5tgbg9RtDZqlnvGf1X+iUptFLlk5NhLE8doPaJ5qyHSAcphlv6GeKzJ34khXVPpPydKm6yT2bcp4yJqZUJJ/BoJtf5qEiobMLkIQ0nsn09L2qqpdrME5mdvwlWtTlrSVDFQw7tz0+YLcM2fIK0TxHt8u0h5h/mSrlz9a4TKmk7kbI6OD1OMREnJSDTYbfJ/8wm1UTK3JEIEqvFZGURN66nD9SuJXl9TLJ5eeZp+orakLnJjUqfSCGUOh/LQPURNTFhxIebPGmi26Ufn3gbx48p50hlUMXN8z23zmplwglSdKLKR0VC+02Y7Fka88z29byo2VltXHL1PnDV5pmMK+XoBZUb13s39sq8u0s/ivRk/cZ+plpc96zeqKV6FbQdsaSniG6v04qnhBXjoXFSVtXpkdxOTVPRudBQFU1gP4P/GQ1owpaUuZL29DCu6uc8VZxJfthe1zzsnZ2KlZ9lzkSlT8xmVT6pHdnEas562pv1WfrxA9M8DcOXsMUYlKjipvl6OBUdNTJBxZVZhWdv8nYdlBQx2utxOGM/z+vMvVNbEwQ7gUcDH82vlkek5zRnWdnr6jhnZjs52sXdMARuodUBjVebKKZUSas2ROzwKQTzjz/Ull23ruhK/GTnRNAP+TQ/eUDIZ8mwBc1J8j+jAU3YkvLRUW39fOKuWMdVvUfUVdmkl9ctXrw+3X9//9j6Z/txHTpNv0cG9dkRu3yKLvWh7cTsn1juI7H04wemeeJHUlh3ARs13PjM+fFwebLNXhl6i7lHPHuThU0+A81/7yHjKk9C7Kt5UTsPGPOXrNjUZKGlmqfwZIbfRoLnI4eqHw49Fn7Ifg7pdj0fvaMmvEE+4KEc3jvdfhPeDFTtFyOnJZye8TD9HF5eJdO9RdX+3uzvXTsLb7r7qNqvhw9M5xklu/1Db+J1Ty7eoUpyCrz8nAOq9renuney9c+4hp8GVRsAAK4EqjYAAFwJVG0AALgSd67a+mqgvEZ06lWhR9s/DX6h+Cir/jra+/1u+kz+AIB3gKu2lULj1G9O9Y6bEEDVNrmGJ4CqDQD4LL+sDrY6wsKJ21tV7R8LqjYA4Dn84usanl9rEWfZGtwt8J0mA6nxI7HijxqC/RefC7y2158iAX/31cb+E5+fm9jkOfoZ/i3iURmpei2flgNZiF5FQrtNaHQ/o/GSal5Vnjflbx0T1fpU89WY1FS9DBhCAwA+xy+9cyYJ7d7ZVdcLyUK41Wqj7URyyNdYnMgjDdL+fnvnBBypFLkr+7c8OTkSYy9HlLbaVAkrVZ5prAmyDu6f4GGiV3ufoOtVJLTbBCH6ie0Kt4m5VXnemr+KM/v1Wc63RfYUSucAgPP8ildXafduvI3tOqqogrYTOsyEcI3NXbvB1r2qYopE5AEmN7L/lGcLl/RVFKfK02Uz6wGsYfoirutVJFIm2c8YbqaaV5lnpU9xpzwTkz9+jIpkpqIYDZ9vDgD4IgfPtfttHC+5CtpOJIfVbbfuup7SOI8eyf7rqkFNtZyDzpRVKThks6GfH03fzLwj6VUktNsEMmA5wQOse8VyXmWeN+av4owbxPFRkcxMlN69ZwDATcjr2sM1I1luZbqN7bKqqIO0nVBDE+rbbt1F1eZRk1LJ/lOeYTo8E6fw5lR5umxmk53qm/XtVbtZmHyC5bxO5nmYv4oz0zgfYYpkpqL2ccJH6w8AOIl9UitdNJVNmKpPunh+ZU0O6DAT6ttu3ZM94aYmj2T/RdWQeZVOZqo8U8K8Dua/62UJ+zNKliRDMcnPNNW/CYLbn6Ga15k8K33Kf0m1PtTFo1fzFbdsqmeMWuxIUI32mgoAcA59v7ZeIcGvnF3BxlhWhl69scmeUD35Xt320v5Teq8IHo7aeYDYV1R5ctdqfVjvAUgZ4oZM++dxV/mzfera5klkR91PkeeN+S/ZrU9PKMxXYg77EkVLiR2pBgBwkvJvI/16mnw1WlUZysR1p+N813kBAE7yfas2V7NQ3cZid12+67wAACf5tlWb4Al0vk9pe9y8htdSIkcv2gAAnkZZtQEAALwhqNoAAHAlULUBAOBKoGoDAMCVQNUGAIArgaoNAABXAlUbAACuBKo2AABcCVRtAAC4EqjaAABwJVC1AQDgSqBqAwDAlUDVBgCAK4GqDQAAVwJVGwAArgSqNgAAXAlUbQAAuBKo2gAAcCVQtQEA4Eqgaj8E/dZN+U5HfA/v5eHNLLaSv2jzjXf58Bw+KP+7nP/+/aiP+drSyv+tcWWyPFWTHw9X7fgdrxRcOzZU9vGbYr/i51b6KgtfcXUreuZNCDy0aptz4+OPhBiVRNMnNcNpiacFuik+KZ9Ga3fUJscdpxx2OPnsuP490QWpvvaaO8cpL6nOya3c6ufwHJ7Mv6LK547nnx098sumK/83xW1n5KuTPQlXbYqoh1KWmldaukoO7fcH3bk1bsVN63tfaArLU/s47D60+baVI3QZbA15A1jqS3oyVXbDuE8TqEsDqJmjcdXzIrewrX8+LJ+ln7dlv25vXrUPeVDVviOPPi2V/1vjPvNUD6+QxBt4ho39Tdt5a9zEcr20gLhPyidWMREFsghHVn7cGDpWc/Nq6Kdc3I+0HHpXyKr58QDsJXZFPNxM+4E4jGU55clSD0Fo4ibU8MB/f/9+2CQ//v7xf/1pADVzNK57bmFdvZjI0k9Fm9di3QjXzmvi9DUp9Bss+FTUQtzhCHV9Uw4hlTD32V6Zz+Hez5I+ZLI8n3+1/pt8NnHneSlBnVdbw5twxLH/MFml8j/r9+dHnqra4jyaVLV5dmdOs1LZV2e94ta4iWrdJQ3ZpdZQvQab25JFXvd2ak3Ztqa7IknbiZRV23LzH3s9B09U9UuSW6JlpD0tT/PU57JJNcIDye4Pl20u2vS/5nYOTcScdR+13eL3BJyln4q2biGH5pbaPl8L3PRL/zfFVZZDfL+IeB6iPrYJtTKhUdkvz6Gy9LNnnkKOtc1/c26JTT5z3GpeZLncR2X2U1H597mktlL5n/WHmZDzajXuy1C15yXbM9uzRrgp+1vjJng1A34CCO769/HRygqRfiTKmaQRLGqH6p1cDW20icshStrjyk/Sp1EzNC4ZNE+DHzYLeRKbVCMtMSrbHx9UtINbbgVU2W61MUzEJsi5CCxbV8CHLMnr1vJT0fH1pLb4pxHZptJXaGjyarKQz0+LuzlXhPZpW7n1HCqbrgp1bMLt+ef1b/YqbvJJcYmNsZP8E7OfiqX//b4Qlf9Zz5pxbIINxuQfRK/aklOf3iF7e1qqk2t9a9wZ9lDEspoSllIVI9I9nk7nXqd248fXSm0qh0pySzRP3NOZFmSTaoQTk7HRraY9hyZizj4RwrS+7OHyLP1U5HULftKMY7jeMwaq9EtSaKXpWj5tmXIyjOVJqJW2lcp+GdSZ/Ryi7ky4Pf+8/s1exU0+OW49rxw6+CeSn4rKfzUv6679L/Xd2WpIWpzHYVVbshkms+fQ/uQEbo27ZLm+inZRLm6QfvY6uuvUYXLjQac2+uH0nGIiTkpApsNuN7dC2aQaYX9jDqJgt2lGSlw3aZpxU8c8TVz6qcjrZpLN12eUlkVRmyrnwxxSCMUTUNEsOJ8+wRntM0G49Rwqs59DNF8Tbs9f8+nrb1YmbvLJcYt5Jf28j8lPRe1/PS+n8r+Jq7Hm3pOpfh2u2jyvYmIyZ6klYR039so8q1v9LO0rqsUSH+xBvfnJU0HbEUt6iuj2Oi1J2WxYEcRIykrXxHPgjGSg5HZqmorOhYaqaAL7GfzPaEATalLahA+cu4h0Wzwfa7epSdrcQe2ln4o0L/apexH2VNseN1LFOpnDbBbnq2GH+RY+bcyYXmXPxtQxzYVY+tmTpnBr/mn92zaauMknxSVYM83rcB9nPxVL/8RyXk7lfx932atrY4JgM1pl9RV+Nb+RHmOOWtnr7jqH2d8ad8MQuIVWBzRebaKYUiWt2hCxw6cQzD/+UDucqsGV+MnOiaAf8ml+8oD6rCjD0jUnyf+MBjShRr2YIPjAlKcqNa571tl7GiFRgtSL+e6zyusZcgvL8K+91SWfQ/Ye1qfT9HtkkKXtdE/kRFdnGSKmGruafmMfO8i9aQs/S7JzwuN6z4n8Vbk8tyxO+WziErHP53VqH4ntfJW1/3peAzfpwyIocitZa7JwUx07z/DbSPB85DD0zdZt9ksC9La8cEH0LpoAQIEeUxMeDKr2i5EqHar2WMTBy6s2fo6CQ9oZedIhQdV+PVyWOs8o2cNrLJFnPVk4z8urNsEp8LagcIMFckSf+kwLVRsAAK4EqjYAAFwJVG0AALgSB1Xb3u9y+4t6/MJpGPVpPyc59J/yuRd3mZe4eODLypX/O8Z99P4ecmZ/7zVf9UPRTG5oCiY8mAed54qX7y+IcNXup1mIJ+/Tu/XNqnZ1Ie84L3b0yF8GVv7vEvflt/r8/t5pvhQvHwleg2etwJOrNsETfuT5BOdpVfve+/H8U7XnQVX7jjxiFyKV/0fHfQ5PrtpL9EfXc97ugqr9k9lVbdYrobcdTd5Egc+O9enWOu1U3erHnrgF9jdh6V9Z5jPom7LKJ6dCtCibuHypGuTItEM++d2dGt6EI479h8kqlf9Zn9b/sAwt12F/TmZ4Rh9/1VMbZUPGfIZ1C8tgU25xzWaubtptQqP7mdbtJpbFNK0noelV87ppvtYxUa1ntT4ak5qqlwFDaPA+HD/XTr3tSPFWkxh7eadb+/C2nPGjNn6S9iT/RJVP1KdYy3wIHW3CyByXYzU/EbL029JMus3sp6Ly73NJbaXyP+vPZxJJo/brOSOTIhN9pFE6wsoJyWpmwrSPvr9qP1clFYk5k+gntj+BvHLC8UwW3GecSzWvW+er4oyuY7Wey/VpkT2F0jl4LYvXtX1HFd1kE9ppm3c9ndd4GpTTfgZ9GrVh8r/OJ+stWo6b8ldJ24k5w42xk/wT52e69F/NS0Wi8j/rWTOOPUPys1/PGTewYfLIiiabmdul+br6KK52mxAcmjiG+wST/yEf7y3nVelTntO8EpM/foyKZKaiGA2fRw/ekE8+1553PZ+26VSd9ENtaqqlHzUxOSD7L/IRfWKYQLJXUSVtJ3Lc0U8khw7+ieSnovJfzcu6a/9LfXd2IiUl+dmv54wb2DB5ZMU4cOznR9M3s8O42m0CGbCc4AHWfTspMYJS0Ig+KW5X87pxvirOuEEcHxXJzETp3XsGL+dRVZulce9P+qE2NTt1Yonsv8gnPWdx9qdZJW0nclzxMxsnffJPJD8Vtf/1vJzK/yauxjqTFZH87Ndzxg1sWJumy2Y22am+Wd9etY/W7ROoRxOK83xyXofzVXFmGucjTJHMVNQ+TvjcpoOXcL+q3Y6FKYlwGojTfqjVT+d5lv6X+bA0zff4NI/TcVJcgjXTFGRe5l/byeHsp2Lpn1jOy6n87+PellWw3K/njBvYsLZ9cR8JnqNoo16XU/VmI5mIyfE6u/29iJOtzvOZeVX6NN8l1XpSF49erY+4ZdN4VvfYSV5NEDyOsmrrNg/oTrdjYGbtcHDbR5Cm6T/hJw/Y3qjKP3et8lkMOcqHxTgk2A+EPGMfuVGlnXDmwp8jnNj7qdZzxg1smDzq1FppEIKTHpmUwX/IqH8eepUn26eupv80ae45cI9bzOvG+S7ZrWdPKKyPxBz2K4gVqNovgav2W9FOVzs9ciwOTw8Ab4UXTZxncHfer2rzqQ6nfDz0AFwLnGdwd96uahN8sDs44uDaPO48D6+lRL78Ig94Z96xagMAAKhA1QYAgCuBqg0AAFfi3au2/y7e5CvQX8e8x8uL4X1avBKmfQXVvO47XwDAnl/5zapvViIfVLXVqwknuNWe4GX9chW79Y1ibK08bB+red1lvgCAQ6xqa0myCv5Od++nV231cm76XLJlrR66j9W87jJfAMAhQ9UmTGhlYn7uxmX0ls9Bbu7NYRJn/0rXE2PXkmB/UONiikarNcv8N/bEJi4PPFfFlnEV6TmYkSLPyst1rpCn8gZZm7beF6Ka16wf58XTsA4AwBdIz7X5tvrtZaHdQ2/rPacbKI9kq7e1/xGY2pvQnvfNemov/ad2q0W7C08+vSLw2CN7Qr2aIGzyJGZ7Yh+XPbRZbKjiciPDy6xmM7IfZuCDPb0lbbezjXqa20o1r1lfWQIAvkJ+Xdvv+eq5GxcFL6NNwY+saLLZh+HNwiq4hij9J30Lp+IhJ+3VygRhkz8x2yfmuOrPhJp93NS7wcaxPWEtXeqK5aQOE1CFCYFZL7mcSh4AcJ7huTbdV794ok7wZfbypLe0V+2mt+GtX9rUx6Y+hpWV/2DDZqPbJdnVkT2hXk0QNvkTsz2xj6vjTajZx02rsYH9tCRYHP3MVAZ5Uoz5VHSYCYGlvjs7sRQAgDOMr5DIJdObnJ5zOV5l9Jb6cJfNbBxOAvfJg2pK/6Of5j2bOTF/Flt6KlaolQnCYf7Z/iiu+jOhZh839W4QSzYNYvczk/J3qn1xNCMTApWe0FhVLwDgJvJvI+nKyp3lS8vt6aZ5edJb6sM3fggexb+7ZJVqiLX/4IdHEcHPjFQZTsTbe3vFkzZ5jEuwo2Cwsj+Iy0NO1KmDdVMvwe2GOFaTU30F+14534+t5rWfb+q1FVtFBwDsyVVbJL5M3FbBkVvH101Kg97DOLxdRSGUHsJcLZVOu9VdTfYtnHYtCWH751ZbX8EQ2uMe5q+4/SpunhQRqtWSXVx2dra0LZPcE3OlyKpc7ks1r7P6vJ46ZVRtAG4Gf9EOAABXAlUbAACuBKo2AABcCVRtAAC4EqjaAABwJVC1AQDgSqBqAwDAlUDVBgCAK4GqDQAAVwJVGwAArgSqNgAAXAlUbQAAuBKo2gAAcCVQtQEA4EqgagMAwJVA1QYAgCuBqg0AAFcCVRsAAK4EqjYAAFwJVG0AALgSqNoAAHAlULUBAOBKoGo/hN+///v773//+/f3v9+/TQXeBt6ch22N7rxCQUwLhFvvxaPv0UP9i3N2bfL94Kr9+/efDztmp85ZZd+15/zcal8RrgnzFVe3QlNYhnv8abDJ/u9/H38kxKgkmj6pGU5LPC2Y3VhHvc6V/j3R00urY/JdeajzJe+5X/e6F/e6Ry+5p0Q7Dnd2zlWbPOs5kynwDKSr5ND+1rP7xbPOWYTD+kwo7+VpeBx2ztp82w4Qugy2hrygLPUlPZlqc8MD05nWHrEaqPTvyUO3LK7ec3jP/Xr+vdjzwnwesdrDKyS66+ent7G/dZm+sqzLdfEDrCL5j1VMRIEswh2THx+Gjk3VkA1kiLgfaTn0rpBV8+MB2Evsini4mfTT29PLebLUQxCauAk17i+I5kd7VB+p9Es260C4dp6j0+dY6Dek2RFn82G16WkASR6b2qonZv/EmGfvXfrh/f34q7qWFcfWITMpoohmrz2qj1T6imX+1bpFU6PF6l0h+ma+a/shGYYSsr7V+bk1H+Km+U72PED1ijwl3e3gJ0hVm3NKUTdU9jbBdpIOudU+oaNNCIhbXi9vqF6Tntsym7y+bbdM2baguyJJ24mUVdta8x97PQdPVPVLkluiZaQ9LU/z1OeySTXS3DQ/IaU5tFLpl7R1sFTNu4SjtufPaxL0X4+rzEM2+fi+pLYNEDNfZ1MO8DLGBbSxcV7E6EcOIY+UR9Jwhy/LjAzkQCaGcNqj+kilX1Llr3pNNerVjJL3IYkU/XC+yT7CY0IXWfpA9va5fA7my4Lp26jkYWYT/XMMVTtN9ZDZnjXCySxvtV+iy+nkLf/38RG2If3ok72gESxqh+od3S332UabuByipL2s/CR9GjVD45JB8zT4YbOQJ7FJNRIXhEWRdSC3AkPOAdcvyeswbocT11n895ScSl8R5+JU+WzOiXmR9sZMSZpov/Tjj22cWcnoBZP/bs+tABmpTaVfUuVfrZuKKmg7ocNMoIFH8032jkTsiSXcrYo35NPyMLGab/DPHXUmBBuEZL5Or9oSm32bfMTeniYV1+KQW+0jupwmjOhaxyVTxYh0j7vibHaLUEnbiZTVxo/PXW0qh0pySzRP3NOZFmSTaqSl2fIMKc2hlUq/JK9DWwhuc09AZqVmvWcMVOmXpNBKlU9OhrE8dYDaJ5qzHiIdmBhu6WeIz574kRTWPZEiRvulf6LSL6nyjxMRfd9HQgVtJ1L0w/kme4fGeXRFhgZC2p/Ix8RqvqNZj7xKNRl/HavaEpUdq3jIof2tiX5lYrqcJoxoF/l2g3S8nPm4KPvdUknbiZTVxg+n5xQTcVICMh12m/zPbFKNNDfNP4scj9ppRk6lX5LXoYVL65+mqajNHKvSJ1IIpc7HMlB9RE1MGPHhJk+a6HbpxyfexvFjyjmS/Zt56Z+o9Euq/Kt1U1GNtJ1I0Q/nm+wVHjUq00B3q+IN+bQ8TKzmO/pX1GbONoX4Oly1OQNJQVURLQpaFky1tVfm7Jd+nFvtE9WiiA/2oN58xVXQdsSSmCK6vaYZd4sV0+YpKatq1yW3U9NUdC40VEUT2M/gf0YDmlDT3LAf24U2izQjp9IvSXlyAF3bsEcWd7WwX8xhNqvySe3IJlZcPUX9z/tF7aUfnroYNE/D8JkY8XH7Nee/WTfCxkzbR6Toh/NN9kScsrM/P+b0TD7n5utpq+gkb4ramiBYhtMsTvKrjY90X7P3yl5n5Rxmeav9hsFRc6UOaLzaRDGFJq3aELHDUwrmH3+oTR3LWYif7JwI+iGf5icPmHY9MWxBc5L8z2hAE2pS+tGhBjAhUOmXbBY/TOvf3z+2ztl+nG+n6fe0ReqWu3yKLvWh7cTsn1juF7H04wejeeJHUlj3xJRjD730T1T6is1564wOh17pyvaE6ov5lvaF3lwZ/fxYVxx16Keery+vp539hKCKeGOtyUILkY/KSYbfRoLnI5veN1W3M969b0Y6/c9H75AJb5DPRcG6nUSXyYQ7gar9YqRKh6o9FvHvx8tve/q5iOrzObBuZ2hn7c6rhKr9evj4d55Rsod/A0bu/aRg5h1uO6fAy8w5oPp8DqzbIbJED7nOqNoAAHAlULUBAOBKoGoDAMCVQNUGAIArgaoNAABXAlUbAACuBKo2AABcCVRtAAC4EqjaAABwJVC1AQDgSqBqAwDAlUDVBgCAK4GqDQAAVwJVGwAArgSqNgAAXAlUbQAAuBKo2gAAcCVQtQEA4EqgagMAwJVA1X4I+q168h2Q+GK9yxO/ZxLcBH9B6b2XTq7W4mtOK/0z+eJ8T9YNrtrxu1/JXjs2VPbxG2TP+FE0z69Mte+WcD7019E9MiHw0Kptzg37BuhRSTR9UjOclngqid8G7BOsTuRm/efNNU27V3KWjvN5Iek73cFNVGfm6/A5WlXnSv8cvjjfG6o2BdJDKUOOr9Ch/fmDrll+fHxpqi/cJ90jE56C7Wubb9sBQpfB1pA3gKW+pOdTlQB9W//7+6Ht6kRu1p+6/v39E7+pWs8MYT6bU+19Q56/xd8JVO1HMLxCojf//Bnd2J886zb+a1Nd7pMWN8+BIsQqJqIwxpUfN4aOTdXQd0Xcj8RKOmqI5scDsJfYFdn8wJMM+0Q8vZwnSz0EoYmbULP5iVudSA1sQsBTogcPbbo/H6o5rNqbdSNcO6+J09ek0G+w4OOUSUdJuC+fGtHz4TR5FM/v46/atlnYFMZ8LIro+hyTOPuv8MU3kUbKkGo9K3vvcuK6Vfl0PXGUKsHhGmRu2u18NV0TArN+k39FSKftS7Fuyvn5zunRWJ1yz3I0ID0ZeC+1U9Xm6GdmpVT27QAc+BEzmaImfmRfodFMCHT/raF6TXpuy2y6mbI5zYRK2k6krNrRMf+x13PwRFW/JLklWkba0/I0T30um1QjzU0f6FTbNKekuKs4sClJJV2tT4fMtHVjaxJZaK6orUqCvET9Mp9Kv2E5hJW2k75jHJdzaMbe5vlJ8vJIluqyj1T75qbUU3vpvyKfBxoQ/M/nsLKnttskqnxiO/qpkKWxfCKVT6XKatZXlhVkP5+rat3MprUP5zsbkMLDEev8LbKdjqFqe4omHzHbs0YgtalqNH9qnNnaDTarRl6Cfx8f4RqkMtHOKoueT2RzmonlEEWHmVD7Sfo0aobGJYPmafDDZiFPYpNqhBNjN32gU20TBw7Mc4lr7gtOj+Ksdy3J61bYx9wkn8UUKn2FhiavJjdMK348n+pceX9TtNFNNvsw3P3HuVf+VZzJ6+Zp3qinNndMscr5Jn3wU6EmJjQO56sKEwKzfpn/STz/et3GPJtexRl2IwbhsbslVDZBYE3zqeF61ea+EP6QvT35TrETcXqHU90zz9PRRYnOVTEi3dPyKdVuqaiSthMpq40faqql2lQOleSWaJ64pzMtyCbVCCfGaeZ1IKptmlMi0nw9elPLcWdv5lTNZvK6Bfs045hb7xkTq/RLUmhHtSY0cjKMJNQWzXzJIyvGxYyxZIwsURvDysK/jF6Qkvdwt+pV7MHbxKt8mpu1n5kU16n8W3exC8RS352d2fcUers+t8+XLMj+v78fBFnS+IN5zRqr2twxLsqeQ/vD7Kl/Zt68M8yzcrSLYzWDeO0juvzUYXKj2i0VVdJ2ImW18cPpOcVEnJSATIfdJv8zm1Qj7tDkQArtpJkqks6IjG1p2sRlc7hDR83kdWvDVe8zWuamNovcCn0ihXA0BRMa5blqieko9+mymY3DSeA+eVBN5b/CA5rY0rhVr6KiNppSOd9xXixNfiK+ICY3DuercUwIVHoi5l+R8jleN1Ofny+N/Pgjv+KXpy0iBnv1Z4Iwa7hqs59igSQGMfjd2Cvz6iz9ONw5TnVvn5hnpYgP9qDeqKV6FbQdsaSniG6v04qpsmLM3ElZlbvOrVPTVHQuNFRFE9jP4H9GA5qwhX2KUxU/9x6SZCzZiWxpikNqt/cPqdlMmhfnpnsh66B6Oy2ncyMqfWJpVo313CK+DjaNcSGooWY8NuTPo/gHGqtUQyz9b3B7CbU+J3GblvZi1dHB2l7mE+el27L0E5FodiQiS/9OzCRS6ZV9L1Gdq2rdbp2v2POLtjxh2mBqjfZzhrPml2U20Few9c6aCPdq9o5Ow5n9RLhzTH1vnxgCt9DqgMarTRRTqqRVGyJ2+BSCOf+QjKs8uBI/2TkR9EM+zU8eMO7QzLAFzUnyP6MBTTgiptTXIYRlivzVPoXT9HiEpdlzVkdqNpPXMyxOyMffXpjPofiOsRpNvydm66jOhMAyVd/o5okfSSH2YUHHfMzVUukcnpNu3s+tJ2I2Lb29fSekVOXT1WQc/G+IjshclUv/WUncpD+RzOZcHawbaU7MV9zzUbADsM2f0MDaVobfRoLnI5vF+2yibKQfDpBuy/PRa2gCAG8AqvaLkSodqvZYxMHLqzZ+joJ3A1X79XBZ6jyjZA//No+M/xB7B15etQlOgbcFhRu8BajaAABwJVC1AQDgSqBqAwDAlTio2vZ+lNtf1OMXTsOoT/u5Cmm+d6G/3j2+3Fzp35BX7fvLz9uZ83CvfdRQJjyYR5xzcCtctfvpEeIJQNU+yeNOMy/c6lZX+rcCVdvkmq/vI8/1WTNF1X4HWtW+9/3/abuLqg0iT63a8iPqOW+zQdV+B3ZVm/VK6G1HhHZP4T20Pvuzn0bb3Vv92BOlwOZEpiPrp6ryX9l7lxOD9nk1Y6XribFrCYdrkLlpa/+EpmtCYNZv8l8y2pO52ZOWsvC+mOfMnIauKDW699Fg43+5DrfOaxm37btH4ADWt4J36pbPxVZ6/oRMocVtcyGLMDVCu01odD+jccXslkjrRmgaVf43zcs6Jqp1q9ZBY1JT9TJgCA1mjp9rp962tbzkJMZeXvHWPjydZ/yoje/okvI0FP4re2q7TSLOq2rP851hm5ZPpPKpVFnN+spySVpbE3wdbOXcqpzXPHFS+PISc1aV/2odZg9nSKOq81Ahm0Um+kijdETPWM1MkOnHnH1Z1H553pQ5k+gntjfIG/DZr8mCj405V/nfOi8VZ3S9qnVbrkOL7CmUzoGyeF3bV1bRxTah7fq8+uncxF1RTvsZ9GnUzEk/h3pqcwf3WJeS52WjiVEf/FSoiQmNyr+KhCpMCMz6Zf4VKVBMg3vaXFJ6M+xHjMMj+7XuKs/J/2YduHl6Xk6Ku9n3JW7QEuFHVjTZzKr8XX0UV7tNCA5NHMNtmPwMcb23zL/Sp3ym/BOTP36MimSmohgNn4MPNnzyufa8+nnXp9096Yfa1FRL33IxWVPmc6NeRe5rP7tUI+YJGWBu1n5mUlyn8m/d9e4s9d3ZakgkJRzTqyIukVtN4770ecHEfh165+nEUpT9vs+4gQ2TR1YU6+aPpm9mh3G12wQyYDnBA6y7JiVAUCj17Mlzu8r/xnmpOOMGcXxUJDMTpXfvGTiPqtosjXtw0g+1qdmpE1PKfG7Uq6iojYZOzzWc5sb0LE1+IuqTTExuVP4djWNCoNITMf+KlH9MY+N5xqr21z4vmDhcB+LMvJwU5cy+R9zAhskjK5psZpOd6pv18XnTbhOCQ5NvQUeaUNyjk/kfzkvFmWmcjzBFMlNR+zjhc5v7w7lf1W7bY0oi7Apx2g+1+ik5g2+2uLS4m1OytBerTszW7SOH852RaIupLf07MZNIpVf2vUTMn+AcWv6HYyPi56ufF6zs10E5n1uy3JyHJW5gw9pyVesW9ek8+LzEJJ8T9W+C4Pa3EidV3aMz+Vf6NK8l1bpRF49erYO4ZVPJmVvsSFCN9ppKqPQ/hLJq63IP6Iq37TAzWj1ffR9Bmqb/hJ884OgEhwj4HOHGiWTa0ReCPTs6WvOIeOH7Yw63eRKV/1PrcDSv/fosz8MSN7Bh8kgK7irWrUcmZfAfMqrPG9HWJHet1mpJmmMO0P0X+d84ryW7desJhXWQmMO+RNFSYkeqUSr9D4Gr9lvRdnnYNt9FAMAGvi5aDXGPvi/vV7X5dIXTNh4+AMAZcI++MW9XtQk+YB0cNQA+w+PuUXuBYuL0izngK7xj1QYAAFCBqg0AAFcCVRsAAK7Eu1dt/524yd+FR8yrv445vrxY6Z8J9nGJvcnvO64MeBy/7Nw4b3aATt4KsjIucgEeV8V4O1fVudI/h/PztfP4M/YRVRt8AqvadGxIsDP0Tr8IPnMruGSLzRvmX4GqvUR38OPjUYtzdx63jwBUDFWbMKGdQi6ISlPyMb3lc4ebe3OYxNm/0vXE2JWQNyGV/mesLsS/xRL/Te+RzUll711O/BOGnn8zVrqeGLuWcLgGmZu29k9ouiYEZv0m/4qQTtvfYt2UW+fLvsiMhh0ZV/tS5VPZe5dz333UqCYIGpkaPepoQHoy8F41Vpb5bPIH35L0XJtPhZ8SFtp58rbWEToZ8mini8TohzCh3aJZT+2l/9SOt2uJ5MHxuc3eDw6u5uMG7r8dfRZIr0ZsUNhT220SMf+qfTgvQqZm+UQqn0qV1ayvLCvI3tehpVaum9m09qn58mAxOmN8kX2cDUjhaRBzdJ2ATYcFm0uVQ5U/+K7k17X7sW7HzUQ9GnSM2ilsinasmmz2YXizsDOoIUr/Sd/CqThjBjycsJaGWBJzYLH5v1VPbYnJOWuXcq95EWpiQqPyryKhChMCs36Z/0k8/3rdxjybXsUlakKNM8ZX2UceKAbhsadBqGyCwJrm08Nt9p2bU/7gGzM816Zz4QdI1Ak5Pe0UtWNjw9PxjadTxrCpj2Fl5T/YsNnodoYN2lgWQ9wlycD936pXkfuUw3UzN2s/M9VEKv/WvaoCylLfna2GJHLo7frcPN9gcGhMlHFv1KvIfcr995EsyP7tPn8cXJfxFRLZfD3Z6We748dUz5YPd9nMxuF6cvUAq6b0P/pp3rOZE3Nu4sKtU93eW/UqKmpDRtK+07xkAJmY3Kj8OxrHhEClJ2L+FSmf43Uz9dn50rgZdztTxr1Rr6KiNmQkbbPQLufWedmhf7/PHwfXJf82ko6Gn0Juz6fHDo+fXhu+8UPo0ZVT24/d2n/ww6OI4GdJjLX0mXAbCWVjfUJq49Ok9tJerDo6WNvLHD4xL4k23HBl6d+JmUQqvbLvJaRqcDbe3q/bJ+bruBOTCzQhasR9ebd9FPuXff647RSpjhYTXIhctfVAt8spgiOnwa+Bno/hENsREcajaa6WSqedtq4m+xZOu5YMfo6ONRHM8XncjRPJhO399/fPLetGmnPzVaKTDWEGb72PZMKDOZY1SZmdE80/d7R2ZJnPJn8CVftbgr9oBwCAK4GqDQAAVwJVGwAArgSqNgAAXAlUbQAAuBKo2gAAcCV+etU++Sazu3MYV9/R5e9gAwAABVX7S1W7vVv25vfDomoDAD7HULXlPflcS0z+AXylavNYGvyX/o+q/QK+sncAXJdetfVZI90Ck1vhcLSCpGriN6fpuZIJrA32WU9QBwkeI4Z2a3WuymU+Gz2x9EN0PTF2nUSCUij96zNuWMeWKu6cZ1u3uDxRbwNj5UrrQMSlSPDA4nPSiTkfolrnSk90P6xe2xM+5Ka4hNh3zwD8BKxqS+kZ7gPBd2X6y1q9Qm6ZqrY7YWGrtzahZq2D9JxLixvbbLL6S99KX/mJ7Vj1Pocs3anCUcWNem+ndfMo1fpTO40ltZisEYfsRx7Jtrt1P6ldrfNG73myn6M8b42rcK+4NhmA7w5X7erci54rhclCVTWyvnes9dTmDjGJ+vQqTRvd7Kd8iKW+8pP1LayKM5q/lk/V6AhtE+xhlVWiilvnaS3T9wGjvvsZ9Cpoe4kPbAH5URTrfKjNzdaOVPrIYZ6fiOvwULEwGYBvjX8rQr8wEe1jWglIt666jWWVCZdTO1TvWDoDPbfeOQ6c9ZWflk7OX8UZN6BHGWfjrVsNgsOKKm6Z5xioXM+mprYmwkqxIbWYrPGBLS8bIo8JVuuo3nm0/kR2tc3zc3EVG9v8A/C92b1C4ujtijdtrhpZb1Kpp7Y2Ve+k51xLYj6RMc+1n5gAwdL2tpMB9VPDnE+FQ5auO6yo4pZ5tgFN9IUe9U1NbU7EmRYn4QNbXp7ROp+ILcXB+ptD6zrK89NxRXUwEIDvxO63kRHubLeFb53eTBmit1FvlFeTblPoiegzEm0qqrFRv/QTqwkXipa/9n4CccJlz+SCTdxNnst187aY+PqT+jgNpxXJFiakt8wnoaNMCLhe8mHH3j7M8xNxxe8NswbgG9CrNhGf7+g17siVM7PeU39OcbtalZ7gjtUtXQ6p8tnlWaXkajK2GX/m2kvJiByUjyruqfmGhQo9ff1JPw4YhsxsqvapfKrkm567+gL1z+Mm/Tig53lTXO76wt4BcF2Gqv0V9Hbpc6tIpQf3RZaZa5iJUjLfcNmvkicAbwuq9jdBql+ohmNxfB+ukicAbwuq9veBF7rzvqXwKnkC8J7crWoDAAB4AqjaAABwJVC1AQDgSqBqAwDAlUDVBgCAK4GqDQAAVwJVGwAArgSqNgAAXAlUbQAAuBKo2gAAcCVQtQEA4EqgagMAwJVA1QYAgCuBqg0AAFcCVRsAAK4EqjYAAFwJVG0AALgSqNoAAHAlULUBAOBKfPOqrd9aKd9NeOrLCc/bf/H7MPlLb89lpRkpNMK0AICfClft3/K92cqZulDZd+05P+O3vn6+JG38XL1q61J//buSNZoJR9giGBSco49KoumTmuGJiScAwP3hqk1XWuuC3MDjK3dof7LW0OjzpWQDZ/Hxx4Rn8aSqbUE+GcU5X7WtOrf1ZEHyTPPlDR4TOx8CAPAVhldI9Gaev3sb+zN3mAbf5Z5rOTEhwHol9LbqI2WHoRSs9CztCStkDa1czY93dT+Eexf1Sk+MXUssyGQW/PTeZZ6DStn+hGs/cAefLLeG6VnKUybZhJrmx2dQrNuUg9NzKPRE9xMWeWMPwIVIVduurMlHVPZ2MadakyCrM/f8EI1mwkTqbVfXisU89oyG8BKg0482uij79uFzbfM+YEtKXb7m7LP5WeapaDQTtsxOWqbaY3FFsjVUToZYrFvI/6Z5VXoe2/SxXdkDcC2Gqh2vyhlme9YIZy4w3yLnlriJwU8rB066q7n6UMZj6Plui38aMbit/MhPMm6Z3qwm/RR3iQ83eSL6WeapqJUJW8iSfJggtAjDfNlszP9kiLxu47I4Z+a11FfrT+3KDwDXoldtOdOL+1Oxt+dbfcvzGrZvt/RW9GKaMJF6P1G1CZms/UxQTVm1u6kjHWZexl2SRik5RPDTe8YpaDQTtmhAE4SW6Rh1WqKTIfK6hSL7iXnN+uyEMf9E5QeAC2FVW05zP9yHHNqfrEoO2/NdPmsf4WTqS5h6q2qrIrHxZpVLeis/5ZNHMzc9SyfWJ40iNC4NNXG1zjFPRa1M2JIcynQkg3G+MydD5HVrE/zcvJSor9Y/UvkB4BJw1ZaLuT7oemn12ppqa6/Mt2Lpx7nVPsGD6xuYejVWrxoUZ6wOJ71t/HDqkwe1JxNu6+TGuEtakG7mZdTbSz9pFhb7KByhPjVPwoRWVX2+M2TpozYkPzoZ0Wvztnk5Ue8+NyQ/FpHjHy8RAK/lVzuvkX5259Nc2ettdNIFXvm5zX7D8iYn/4zYpKrBcUJVGgj2nVZKKj/e1Wm5dTVZBvsNLchgFnbg398/8ivdOf/R+dA7rVVi2OJxUj7fGZ2QCTXV4hA3zWsz32WIjT1x03kD4LUMv40E4NFo9dxUfwDAHlRt8FRQtQH4Iqja4KmgagPwRVC1AQDgSqBqAwDAlUDVBgCAK4GqDQAAVwJVGwAArgSqNgAAXAlUbQAAuBKo2gAAcCVQtQEA4EqgagMAwJVA1QYAgCuBqg0AAFcCVRsAAK4EqjYAAFwJVG0AALgSqNoAAHAlULUBAOBKoGoDAMCVQNUGAIArgap9Cv22w//9+/vfb3zh4eXhzXyPrXzaufr95+MrUR6X5/57RN/n3u3zXCJDOHWT7wdX7d+8pQYF0Y4Ne3td568stDpwzqR0L/RsmxB44Km1w2BuZW05DLX7Kisff9RmuT6WoTOmOm/KgX2Ibf7XeYqTlpjCQ0dvb4We3jf5uuHHnatEO1afjPLA898OlskjT1ufQ/Z5VrSzdufkuWqTZ81GEuMVkq6Sjb3N7eNLR0SXx4TnomfbhKfQDoOtVazaypzScn105dXSznqwIfnf3z/xJ//GXoRu+d/fD95L1i7ybG6afhTfkOdv8Tvwxar9OPxgmfyufDpPHWbCnRheIfEraPIRs73JXzsiy3lKqB6LIsQfYiIKY1z5WWfo2LT6Q/FJDFVs0BDNjwdgL7Erstnslo6PtYRUJFQ2QdARJjTSXpggbn3K9OAGlX31VHSTZxg7+FzSklmsG+HauLk6xPHcKv2GNAuC5/HxV/20rHpKcz5fz5/QVLv2AedKCfmoJ7Pv+qCs1nOZJ7HMZ5P/kmbvrrp9FZdY5k/2JEVHqifCOvR92djLJTBUX+UpamvPIjHf6K+TqjYne3gUnGTvGbc8P5moLo8Jge5/XBpNYm5Ldnm92uq3nMdUVdJ2ImWlftx/7PUcPFHVL2nptHxaQioSc0opEyXG0n3xUR4iTrayT/k4mzx1OPe1R7VZ0taN7Ui0JGQItVVJWEJNT9aqj1T6DfMQyZmTkUcKqSZlPpt9X9pbW2yW5yF6IDb+935m3J5o2zXkk9opk8Tcu8xnk/+SZk9Wa/tZs8vfIntG5nO5L5W9HAVrO1WePlKsFtkS5M8N7sJQteOUzpDsPbl4RD6BLU/DV5yQFfr4CMsUyweLumztdLqZo6vsPlOqyyFK2o/KT9KnUTNinujTIeaU0giN5adK8QQIz2EstWt7NmGpD1f2eXKn7EuMuySv27h9TtwXibxIqdJXaOi0mB7I0lrZEG6W8w95Rip7FbStJE3l/9BPIt+L7mfUm1cWudnaMylilc/J9XEO7ae42/zb2LPnamWvLbYObPL0drJxYqC70Ks2u255nyHZL6ehXbeiUzdhRNclOlfFiHQXK7g/JSppO5Gy2vihplqqTeVQaW6an+ZIRWJOKWWixFiegOs9T/dW2qsw7d0+TxGHfanI6xb8SE8geOs948Qr/ZIUWmnxfX78SAru6t4FMcv5t+GVPel5aSS96NxRdyY0m6X/vZ9Ec5P95CQZ7lCz3jmtp/ozQVjms8l/yaF9irvJP1k6eUjzv7RP+TibPP0Ms8mYvHK4CLdiVVvmxY5VPGS2p8Rm5smfQZfHhBHt4ljNYC5ziq4ydZjc2J8SlbSdSFlt/HB6TjERp7lpfqbpzCmlTJQ4X2labtoekDxLe07A2hGxuS3PJXndmtuYD+vN/ZCG2pC5yY1Kn0ghFA/UEjGbZOxmbrjUz/bUpmZnSlLdmdCSnP1Te+8n0dyYH0uO8zSPql+iOaQQKU9imc8m/yWH9inuJv85Q2KzL2fsnX2eKpHFPJBYBvoKXLU5A0lBVRG9w7wnYR039kqaErH0U1FNUnywB/XmK6iCtiPsZxXR7WUjrIppFyvGzJ2UVbWLktupaSrNTfPTHKlIqGyCkDJR0mnjOWo+LTHVNyvqWNtbWwTt2r+HREVCZRNq0rpxLN0Ldmh6bXs+ER1sQqDSJ2YzX582P34UxTqflL8Pr+2pzX7VfialtPW/85PwiXBb0lE/JLJ0tFYpK2LKc51Plb+KM4f2cyZV/rMlUe0LiUt7gvU8Ysh5n6cu9j9+/XwYpaitCYJlMkU5ya82PtJ9zd739kqaEnFTlrJqHZ2wOqDxahNFXdBO2InY4QsXzOV3wnH1oyvxk50TQT/k0/zkAauT4TQ3noA5orYuWaf5Sf5tfcRRmiP5VXeqJNyssldRJMP8s2qdp5ICVeT1DIujeyr42xSJ0V6UbFzo96RZEL5xrYcfdSKbfHyhfHhlT/oxUZtyzp+467kiegTyEPNMoZf5VMZEi7vMZ5P/ksp+Ezd3xXxaO7Lbl5U9EQOQOWn287KUltGbqcnCTfVwZvhtJPg6sn19k3R7fLNBOv3PR++QCY/nXufh3c4Vznlkc6q1w4Q7gap9Z+T0htM8Hm7w8qr95Ppyr/PwbucK5zzSZp+n387anZcFVfv+8BZ2fu5RXvLyqk1wCqs79iDudR7e7VzhnBNtERalWY76Q5YFVRsAAK4EqjYAAFwJVG0AALgSqNoAAHAlULUBAOBKoGoDAMCVQNUGAIArgaoNAABXAlUbAACuBKo2AABcCVRtAAC4EqjaAABwJVC1AQDgSqBqAwDAlUDVBgCAK4GqDQAAVwJVGwAArgSqNgAAXAlUbQAAuBKo2p3+PXhf/k5l/XbE5ReA3hf+OtEvRHlcnvvvh3za+hyyzxOAN4Srtn5rtUL3SDs27O31Pp68kHZ7V9+VeRM3Bd2jl9iEz/K0qoSq/UX2eQLwhnDVpouvp1YOMN8k6SrZ2Nsd+DhVSqT4//v79w5fPk9R//39c5dvRNZLbMLb88Wq/TiuUg1RtcHlGF4h0RNMRcDkI2Z7k0+UEhnLxVpq95eqtl88evBkmpK9C5yQdhGunUPrMBPID8t9rIvqP+I3v3dEP3U+G1cVIf/hGWvXB2Xyv8+TWOazyX9Js3dX3b6KSyzzJ3uSoiPVE2Ed+j5u7MO/Ek1f5Slqa88iAC8kVW0+1Iclw0n2frJvegJ4h6qt905/ALS4rfTYTVMTMee258zBx1SjJaF+yETF1Ktw3Em59LPMRxeAGilWhdsTccpRH9vLnJ25d5nPJv8lzZ6s1vazZpe/RfaMzOdyHyt7OWnWdqo8faRYLbIF4FUMVTse/TMkexL1lMdScojcJa65Jt9OuGkWWNqqNrdVSrN+vp9uk3wqEnSRf/JT5ZP0c/REnCOL3c+oN68scrO1Z1LEKp+T6+kc2k9xt/m3scnMif4re22xdWCTp7eTDQCvpVdtPpjtfJ8h2S+Pu3btYeN2Pz9BulEaedYP6UnqnTFVHWaC4DefB07zor7lfU5+NvlQUy3VhtRisqa5yX7ypBjuULPeOU6NUH8mCMt8NvkvObRPcTf5J0snD2n+l/YpH2eT537fAXgVVrXl/NslOcNsz1d9Yr4kM3w12PCTV2Jx2+WCVbdR9dRMehUJHWZCQ62oywcqPHxVUIjkZ1MdqNkpvDnNjflhSfxUT0IjmkMKkfIklvls8l9yaJ/ibvKfMyQ2+3jG3tnnqRJZzAMBeBVctfmkylFVVUTuktzdcN829ko6+sTSjyI9Wb+xT6RY7W5uqrbFY6VGGVPVYSY01O0/+fWpqUxZZpj8bPMpnczE6qPpe/46MbEqSVkRU57rfPbVbebQfs6kyn+2JDb7uLQnWM8jhpz3eepip30nLOLC21oPwB351c5ZpJ+5+RTu7RU2Ga/o8jRPjnZxKzSUCTxQ7hkHL29jmIG/XZCQSx0Zapn0zpqI9O71y3zygFXFifQI5CHOK4Ve5lMZEy3uMp9N/ksq+03c3BXzae3Ich9JX9kTMQCZk2Y/L0tp8ladz/PnFoBPM/w2ElSku31HxDHXCRPl2j8i0EneLZ/X8rh9B+DToGqfopWy+99eqYqhSo5F8/m8Wz6v5XH7DsCnQdU+gO/tg//N20Iory+R75bPS3jCvgPwOVC1AQDgSqBqAwDAlUDVBgCAK/HuVZt/OXb066D+Omzxfq8HoamZ8GDOrAMA4CfwS94kkHijX0Cdr1Y8j+dWbV66Z1VSVG0AgNKfaz/zmeN53rpqP/HNvKjaAABlV7XtD8MMewtUK1VkrnAtUfslXG4+/qqfNsqGLP0r7p2RapVK5FzFtNuERvczGlvoUfkJlsV0nBejaVfzvWkdrGOiWudq3XwBVC8DhtAAgPekrNp6rV1jQqueesWjXs1muEyIsTySKY/g8lD4pzZbtvrbq0xRfVQktNsEIfqJbaIXra/VKfnTQfZisuCx4hyr+d66DirO6PpW67xctxbZUyidAwDeh7pqt1tvol/3VAWaXsUZH9f8tQpR+h8cdnWK2/QqEtptwpRYCndHprhDnt5bzrfSp/yn+SYmf/wYFclMRTH6+BBL1QAA3py6ao/Xu1eDVAXG4jJTVpPKf3s0fTPLccfhhHabQAYsJ3iAdd+PlDBBqWkmPlluV/O9cR1UnHGDOD4qkpmJ0rv3DAB4K778XHs0mymrSeV/1Dfr26t2szD5kWgkE7RqOy2lk/M9XAcVZ6ZxPsIUyUxF7eOEw9IBAN6Zs69r88WW256qwOGF31eTyr/qeSwherPR57Bskp8hqn8ThE1uGiV5+DSxFErZ7dXWOTPfSp/WYUm1ztTFo1frJm7ZVHLmFjsCALw3ZdUm9DIbftXt6je2JZvYVJOlf9Z7BFK24YOeHFFb9DkfoqW0SdW6QtCv4JNTMSfU8ynme+M6LNmtc08orJvE9JyTCAB4W3rVPkmqUEDxotmqZauGUg6xXACAe4GqfWekSoeqPRZxAAD4Iqja94cXqHPPkj28lhI5ep0KAPBtuLlqAwAAeCGo2gAAcCVQtQEA4EqgagMAwJVA1QYAgCuBqg0AAFcCVRsAAK4EqjYAAFwJVG0AALgSqNoAAHAlULUBAOBKoGoDAMCVQNUGAIArgaoNAABXAlUbAACuBKo2AABcCVRtAAC4EqjaAABwJVC1AQDgSqBqd/r3PX75axj12zX1W9tN9Rj8u+FNvpHH5bn/ftGnrc8h+B5UcDm4asfvkKV7pB0b9vZ6H89cyFvjbjgf9BC9xCZ8FlRtVG0AHgRXbbr4emrlAPNNkq6Sjb3dgY9TpeTWuBvIwb+/f/h/X/5CdJnAZb7y/ItV+3FcpRqiaoPLMbxCoieYioDJR8z2Jt9YSm6Nm/CLRw/upCkpFYUT0i7CtfxqyJinDjOB/FhqZuOi+o/4ze8d0U+dz8ZVRch/eMba9UGZ/O/zJJb5bPJf0uzdVbev4hLL/MmepOhI9URYh76PG/vwrzvTV3mK2tqzCMALSVWbD/VhyXCSvZ/sW58A3ho3YfeOCkuI20qP3TQ1EXNueywOPKYaLQn1QyYqpl6F407KpZ9lPjp5aqRYFW5PxClHfWwvc3bm3mU+m/yXNHuyWtvPml3+FtkzMp/Lfazs5ZRZ26ny9JFitcgWgFcxVO149M+Q7EnUUx5LyRlujZsIN80CS1vV5rNKadbP99Ntkk9FgpIue05+qnySfo6eiHNksfsZ9eaVRW629kyKWOVzcj2dQ/sp7jb/NjaZOdF/Za8ttg5s8vR2sgHgtfSqzQezne8zJPvlcdeuPbfGTaQb5TdzdxslZGdMVYeZIPjN54GjMUF9y/uc/GzyoaZaqg2pxWRNc5P95Ekx3KFmvXOcGqH+TBCW+WzyX3Jon+Ju8k+WTh7S/C/tUz7OJs/9vgPwKqxqy/m3S3KG2Z6v+sR8SRK3xp1Z3Ha5YNVtVD01k15FQoeZ0FAr6vKBCg9fFRQi+dlUB2p2Cm9Oc2N+WBI/1ZPQiOaQQqQ8iWU+m/yXHNqnuJv85wyJzT6esXf2eapEFvNAAF4FV20+qXJUVRWRuyR3N9y3jb2Sjj5xq5+l/ZIUq93NTdVmz6q3KGOqOsyEhrr9x6+jdssWoWsiyc82n9LJTKw+mr7nrxMTq5KUFTHluc5nX91mDu3nTKr8Z0tis49Le4L1PGLIeZ+nLnbad8IiLryt9QDckV/tnEX6mZtP4d5eYZPxit7qZ7av0FAm8EC5Zxy8vI0hsr9dkJBLHRlqmfTOmoj07vXLfPKAVcWJ9AjkIc4rhV7mUxkTLe4yn03+Syr7TdzcFfNp7chyH0lf2RMxAJmTZj8vS2nyVp3P8+cWgE8z/DYSVKS7fUfEMdcJE+XaPyLQSd4tn9fyuH0H4NOgap+ilbL7316piqFKjkXz+bxbPq/lcfsOwKdB1T6A7+2D/83bQiivL5Hvls9LeMK+A/A5ULUBAOBKoGoDAMCVQNUGAIAr8e5Vm385dvTroP46bPF+rwehqZnwYM6sAwDgJ/BL3iSQeKNfQJ2vVjyP51ZtXrpnVVJUbQCA0p9rP/OZ43neumo/8c28qNoAAGVXte0Pwwx7C1QrVWSucC1R+yVcbj7+qp82yoYs/SvunZFqlUrkXMW024RG9zMaW+hR+QmWxXScF6NpV/O9aR2sY6Ja52rdfAFULwOG0ACA96Ss2nqtXWNCq556xaNezWa4TIixPJIpj+DyUPinNlu2+turTFF9VCS02wQh+oltohetr9Up+dNB9mKy4LHiHKv53roOKs7o+lbrvFy3FtlTKJ0DAN6Humq3W2+iX/dUBZpexRkf1/y1ClH6Hxx2dYrb9CoS2m3ClFgKd0emuEOe3lvOt9Kn/Kf5JiZ//BgVyUxFMfr4EEvVAADenLpqj9e7V4NUBcbiMlNWk8p/ezR9M8txx+GEdptABiwneIB134+UMEGpaSY+WW5X871xHVSccYM4PiqSmYnSu/cMAHgrvvxcezSbKatJ5X/UN+vbq3azMPmRaCQTtGo7LaWT8z1cBxVnpnE+whTJTEXt44TD0gEA3pmzr2vzxZbbnqrA4YXfV5PKv+p5LCF6s9HnsGySnyGqfxOETW4aJXn4NLEUStnt1dY5M99Kn9ZhSbXO1MWjV+smbtlUcuYWOwIAvDdl1Sb0Mht+1e3qN7Ylm9hUk6V/1nsEUrbhg54cUVv0OR+ipbRJ1bpC0K/gk1MxJ9TzKeZ74zos2a1zTyism8T0nJMIAHhbetU+SapQQPGi2aplq4ZSDrFcAIB7gap9Z6RKh6o9FnEAAPgiqNr3hxeoc8+SPbyWEjl6nQoA8G24uWoDAAB4IajaAABwJVC1AQDgSrx71fb3Zpj8XXj0vM7476+/42VxAK7DL/3tYufNSuTJ6tZ/SXeREv8OVVvRXy6bAAB4e6xq0wUnwSr4O93hM9WHS7bYvGH+FajaAIDPMVRtwoR227kgKk3J5eCWz8tu7s1hEmf/StcTY1dC3gxX+p/RJP2di17dmt4jm5PK3ruc+G7Inn8zVrqeGLsSt66zMvvf5K9otwmN7icYb+YLAHga6bk231ZtEyy0++xtMeEbK49ka0Uh+iFMaFVj1lN76T+15yqTkDyscnlV2RSUqoq1ksQC6dWIDQp7artNIuZftc/Ni+PKI5laGifXM81rmb8yzyL6ie3ZEgDwfPLr2v16t/ttot19V7uCH1nRZLMPw5vFUEFK/0nfwqk4YwY8nLCWhlhSVbFb9dSWmJyzdil3npeHl0dWNNnM3K7wv8lf0W4TgkMTQzhuhtAAgJcwPNem++oXWNQJue7t2rfrbMNTOYjFQsawqY9hZeU/2LDZ6HaGDdpYFkPcJcnA/d+qV5H7lMN1MzdrPzNu0MbxIyvGgWP/wr93JL2KhHabQAYsJ3iA9vZOPOkG4EWMr5DIpdQbnp5zOWU1abKZjcNJ4D55UE3pf/TTvGczJ+bcxIVbp6pit+pVVNSGjKR9p3m1QG1cGzH68XCV/8P8tduEOv9InC8A4Mnk30bSlfVbze3pZpbVpPZD8Cj+nRqrVEOs/Qc/PIoIfpbEWEufCbeRUDbWJ6Q2sbot7cWqo4O1vczh1nndus4b/56PmOS46t8Ewe03pFFS64n+YwMA8CBy1daLrcVLuzp68+l6yrXXezsUC7u6wlgazNVS6bQq0NVk38Jp15LBz1G5IYJ5/pzuZdXe2HdCkneZ1yfWufIf0vn855JnZYhLoGoD8DTwF+0AAHAlULUBAOBKoGoDAMCVQNUGAIArgaoNAABXAlUbAACuBKo2AABcCVRtAAC4EqjaAABwJVC1AQDgSqBqAwDAlUDVBgCAK4GqDQAAVwJVGwAArgSqNgAAXAlUbQAAuBKo2gAAcCVQtQEA4EqgagMAwJVA1QYAgCuBqg0AAFcCVRsAAK7EN6nav3//9/ff//737+9/v3+b6lPcy8+rwDoA8O3hqv3795+P/xl0T7VjQ2UvF71zxtWM1YvOx58ThePWKkMTWKb3qmpV5VNxr/zfbR0AAIdw1aarS6WRGnJV+aZKV0llT9KyBNyE1gv1T1Csk4X7Jqpq9Spuzede+b/bOgAADhleIdGKef4aJ/tHVO34g0H9s0KIcVVDw1RDND9S9pnuxBROG3WTH++KeNpLkr0ab/IhPKqYfyZ/4ta4lR8i/Curr//SPwDgQaSqzZfy/K1L9nR3/SZ/mlYlzadIY8FlSa16ASV0mAm9lISxoZfyrlI970cnTw3PRvUVyXNkmQ/Z+zpwLE6hiyfzJ26Nq8yjZLc5CZMbG/8AgLszVO1UGg5J9nx7nVv8RFLVjiG4o7XlBwYLYsWk2pH8NPPuliRtJ076Sfo0agnb8Iies7PJR/l0/sTn4s5+KuONfwDA3elVW+4eFwaTj9jb0w2XzptvslbDTigccx2JpN5HV21q8xzFUm0qhxG2m+ZFLPNJK/G5/JWb4irJT1qHROUfAHB3rGrLreOqoOIhh/Zc3fiOn3XobKqDdpgwkXqfVLWdW6qV+oxD5nzUxpWfzj9yJq6T/KR8lsz+AQB3h6u2VFguCaqKtDf5DfV3Y6/Mt3fpZ4mOfXTV5r4gRk76kRkdT6ciRZnzib8zsNX7VP6Jw7jO7Ic1nNHC2Emjzu87AOAkv9q9ivQ7Nt+6yt4qdYNKgdor52/vrVU7xWXEZl+1h1HBfuDITx4w5RbJ/sdaOefDyr7S//7+kV/1fjb/zlHcyo8S+8gTaY78n913AMBJht9GgvNIseISZaKUp+UPGwAAuCOo2p9EqnSo2mMRBwCAB4Gq/XnmlwasAwAAHgaqNgAAXAlUbQAAuBKo2gAAcCVQtQEA4EqgagMAwJVA1QYAgCuBqg0AAFcCVRsAAK4EqjYAAFwJVG0AALgSqNoAAHAlULUBAOBKoGoDAMCVQNUGAIArgaoNAABXAlUbAACuBKo2AABcCVRtAAC4EqjaAABwJa5atfnLdvmbGvFVjQCAnwWqNgAAXAlUbQAAuBLPqNq/f//399//Ih9/uNqOetJZCa70BNXqzrZqc1n/+Kt+Pv7oOBkgzjUBM+tqbqpeBgyhAQDgHXhG1eYK+PGHGloatTLGNmECVc9CT233Qxw+12YDqbvySKbsictwUbW57cFaQ20AAOB9+PVby1pECtetevM3kaqkCqw3daueXj4rfWuYvqlVnJn88WNUJDMVxejjQyxVU3Hr+lR6cwcAAOd43XPtsVz26lrp26PpR7MZN4jjoyKZmSi9e88AAPBCHv5cmxgG+EscqQpPVXavZ2kbdxrnI0yRzFTUPk645VnxhHUDAICZhz/XlmrVq63jZVRFLmlW3Y71VgBFr2YzbCMGVqTDcB7dX6XpfsQtm2qF9coOAADvwzNeIdHa2PGn21Z9hVCCS707IiWZhK6ZTdXufqiD2mKmMb1SJxEAAN6Exz/Xtmo5VGRUQwAA+ByPr9pcpUPVHos4AACAm3j+KyT3LNnDaymRo98lAgDARXlG1QYAAHAvULUBAOBKoGoDAMCVQNUGAIArgaoNAABXAlUbAACuBKo2AABcCVRtAAC4EqjaAABwJVC1AQDgSqBqAwDAlUDVBgCAK4GqDQAAVwJVGwAArgSqNgAAXAlUbQAAuBKo2gAAcCVQtQEA4EqgagMAwJV4u6r9W74P+IVf4i7xjX9//zPtjegs5Dsy8b3GAIB7creqbcWufc2ufA/vZ77Y97VVW78++OvRUbXBSezi4KiA09y3av8jtFJftWpbcNwf8AzstH/oXcGpA6e4b9X++PPng44fi61qpyrc1dT4+Etd8gSdn+Ha8w2z5/8LrNSxhNoxYqtKMiUpDlB9hT0RNoYa3ZI9vj9qaIKgM6NG9z4akL7KczmvMU9OS/WEdQVjcEV4F2kT9ehgK8E57l21pRhT1TtVtaUSySOpzMxLlQ6RblZTW5viZmjbgB6NW9o14xYqNvMWdcDiLvGJmCwpac4KO5yqNnud8tzNa/TgWL5jAuBa+BmYzxIAG+5etflxOImtw8xc3Rph3KAw+2mA6dswavtI1o9mM3Egi7XbPWwpQcNjT5tQ2QSBNVOeB/M6lwy4Irrx1PCzoHoA9ty/anMZ4iPoVck6zCwXKx/Hj1Fh9oNdgvVkowPU/hD3Z2IKZ5KJGyQxsvzv7wdBDmmk5aPMWS3z3MyL6J2nJwguQTyH6UwCsOf+VZvaUs/aSWwdZubq1mjj+DEqzH4aoPqIDjDhiJgni6Pb1LvBqjYVbX5ZkjyIGAbOWS3z3MzL0TWZx4LrQrs+48cegA0Pqdrcbr8XJ5EPqFQcLT5jEfZx/BgV7HR8nTe2IzrAhCM8kIrsU6Kq6NmouEH80Cz/sTWVbWoFP8ScVZVnNa9IGquziJmD6+J3wWQAtjymamtNkZPYuhR5b4gc0H3V7sylymld6kHbZ5DYjfG2eDYmbxEvbGwOJYecJHGU53JeWZny1N5RCS4Kqja4ibtVbQAAAE8AVRsAAK4EqjYAAFwJVG0AALgSqNoAAHAlULUBAOBKvF3V1ve0fbzuzw3iO+7+hQ94uonHvTNvvz54RyAA3567VW0rdu39yP5+bBXP89qqre+8/nr0d6vauhkmgHfCLg5+0ILT3Ldq4/O1H87n1gdV+z2x3cTna4NbuG/Vxudrc+jufTQgfZXncl5LNuuzjNuVTv/30NAZfxJY11Ey4IvwKtMi69HBUoNz3LtqSzFuf+QtJ7F1mJmrpVDpACkPZualRIdIN6uprU1xM7RtQI/GLe2acQsVm3mLOmBxl/hETJaUNGeFHU5Vm71OeVbzWrJZH2WOS2iyJjSWlopFGScI7oufgfksAbDh7lWbH4eT2DrMzNWtEcYNCrOfBpi+DaO2j2T9aDYTB7JYu93DlhI0PPa0CZVNEFgz5XlrAtX6qEjMcQk1MqHBlttY4KH4pvhZUD0Ae+5ftbmO8BFsJzFVGVe3RhvHj1Fh9oNdgvVkowPU/hD3Z2IKZ5KJGyQxsnzs52vPVOujIrGMokYmBHrw0wsI7kI8h+lMArDn/lWb2lLP2klMVcbVrdHG8WNUmP00QPURHWDCETFPFke3qXeDDHzS52tH7lu1FfU5jwKPg3ZkxrcVgA0PqdrcxudrT1lVeVbzWrJZH2UZhZVjeok0SqPsh4B74XfBZAC2PKZq652Xk9i6FHy+9iLPzZRnKuNNXGLoFX22T+ugvaMSPAhUbXATd6vaAAAAngCqNgAAXAlUbQAAuBKo2gAAcCVQtQEA4EqgagMAwJV4u6qt7znz9yM/n/iOuH/1X6bcymZePeD0nr9HvwMP7/AD4HLcrWpbsetvH7b3oKp4ntdWbX3n9SOiH85Lu01ooGp/e+ziYAvAae5btfH52iWfq9rge2OnAp+vDW7hvlX7B32+dsvTM7I8y/lu50VotwmCmyY9wW4b+/nObjUjalT+SU8G3hv9L9d/XE9y1udlXcEYRHh1aHHaITEtAFvuXbWlGLc/8paTWFUxKQA6QK61mXkJ0CHSzWpqa1PcDG0b0KNxS7tm3ELFZt6iDljcJSlP96N6VbIZJRr0bh/npegwEwKzXsbu5hjxBEyWpfP0iNm/Japps2CxNGW1ie0qc8JmPSYAFF/beY8A2HD3qs2Pw0lsHWbm6tYI4waF2U8DTN+GUdtHsn40m4kDWazd7qnzHPWuLuxVJLTbhMCs15EmHMFhJYHw2NMgZv+sEVNqh3kNCTc3LHKztcF5fB99jVUPwJ77V22+3nwE/bZbh5nlIuDj+DEqzH6wS7CebHSA2h/i/kxM4UwycUOZZ9K7urBXkdBuEwJJn/wcIoHI/LGfA947T2/EDyeew9gG4JD7V21qS51oJ3GsMr2KtUYbx49RYfbTANVHdIAJR8Q8WRzdpt4NOc82sJxv0k/T0W4TAknvC2XyERLoSZ8DrrnNY8EMreaMHw8ANjykanP7R3y+9kGeYtLmW9sr2m1CYNaL11NJEhL3eZ8DnsbqrOMKgxm/CyYDsOUxVTuUq9alfJ/P197l2XvCfAv7rCekq9IrsY/cm7ZAZsuTsokf+eeOEMtZTiEr03pq76gECVRtcBN3q9o/Da1HVAtNBgCAp4Cq/UlQtQEALwFV+5OgagMAXgKqNgAAXAlUbQAAuBKo2gAAcCXermq//PVifa+acvimuvNs5tUDTu+301GPe1vY4/zv9/HR8wLgG3O3qq3X0OuOvx9bxfPsb/uj0Xc0PyL64by024TGo6vb4/zv51vF1UNjws9AV+JxWwy+H/et2vh87ZLDeWm3Cdfnc/v406q2rRI+Xxvcwn2rNj5fO1erPt/tvAjtNkFw06Qn2G1jP9/ZrWZEjco/6cnAe6P/5fov2cx3GbcrndY77hepe1zrOkrmbeHsKfl2SEwLwJZ7V20pxu2Pp+Uktg4zc7UUAB0g187M/IrqEOlmNbW1KW6Gtg3o0bilXTNuoWIzb1EHLO6SlKf7Ub0q2YwSDXq3j/NSdJgJgVkvY3dzjHgCJsvSeXrE7N8S1bRZsFiastrE9pLPzVeTNaGxtFQsyjjBq+BrO+8RABvuXrX5cTiJrcPMXN0aYdygMPtpgOnbMGr7SNaPZjNxIIu12z11nqPe1YW9ioR2mxCY9TrShCM4rCQQHnsaxOyfNWJK7TCvIeHmpvtJfG6+y6mx5TbWRfHJ+hqrHoA996/afD/5CLaTmG6vq1ujjePHqDD7wS7BerLRAWp/iPszMYUzycQNZZ5J7+rCXkVCu00IJH3yc4gEIvPHfr72zOfmq0YmBHrw1RJdET8YqQ3AIfev2tSWOtFOYrq9rm6NNo4fo8LspwGqj+gAE46IebI4uk29G3KebWA536SfpqPdJgSS3hfK5CMkEL+8/ITP1458br5qZMKE+pxHXRGa6YwvFwAbHlK1uY3P107zre0V7TYhMOvF66kkCYn7vM/Xdj43X1aO6SXSKI2yH/L++F0wGYAtj6naepfkJLYuJXzedDupbRw/uqIzX1GndakHbZ9BYjfG2+LZmFyzy7P3hPkW9llPSFelV2IfuTdtgcyWJ2UTP/LPHSGWs5nyzK3zVYZe0Wf7tF/aOyovB6o2uIm7Ve2fhtYLfy4JAADPAVX7k6BqAwBeAqr2J0HVBgC8BFRtAAC4EqjaAABwJVC1AQDgSrxd1X7568X6XjLl8E11r+J7vOMNAPAJ7la1rdj1t+Xae1BVPM9rq7a+o/n9f8eIqv09kPfPC9hKcJr7Vm18vjYAZ+GSLcXafgZv/2oJAOe+Vfsnfb52kb/2znlu7Kt8qnl16+mez3GJ0T8HUD1hXcEYPIf0tEb2oYsAbLh31Zbi1P54WopB6zAzV0uB0QFSNszMS4wOkW5WU1ub4mZo24AebXf63ULFZt6iDljcJVX+1LXMcz/fOR9rq+1qXjreBGEZl5gtHZt3iwieRjzYfvj0/ACw5+5Vmx+lCNCp7PXGj2NXt0YYNyjMfhpg+jaM2j6S9aPZTBzIYu12T53/2mFp32SzD8PdY9IrOs6EySC65WYIAd4B2y7Zm/RTH4A996/aXD64erQq1TrMzNWt0cbxY1SY/WCXYD3Z6AC1P8T9mZjCmWTihjJ/fkyIXWVf56Mt1c+k3iqu9vbO0wsFHgrvO2N7FPcdgD33r9rUpgP5/T9fu8x/nWdpP0aMw7VH9TOpd7M+jgbd+ARPo21F23cWD7YPAOUhVZvb3/7ztYv8qWuZ536+OpCI+ail6mfm3mXcRBql0T0ieCZxr8/sHQDKY6q21gI5kq1L+Uafr13kz12rPLf263zUUttOdk40m3XcpAz+CesdleA5DFtzywEGP5y7VW0AAABPAFUbAACuBKo2AABcCVRtAAC4EqjaAABwJVC1AQDgSrxd1da3Q3287o/E4tux9J15l2a/nnjnHwCX425V24pdf++wvT9ZxfO8tmrrW6df+DPj7nyuauvmmQAeRn+jPn5wgtPct2rj87Xfjs+tJ6r2E+CSLcXafnbiD23AOe5btfH52jZwznNjX+WznJfY9kBJnNmsp6uoWzVEVzr9309DZ/xJYF3su8wERNLTmsN9BMC5d9WW4kR151TVlpsvj6QyMy8NOkS6WU1tbYqboW0DerTd6XcLFZt5izpgcZdU+VPXMs/9fOd8rK22YV4L+xZric9Mc4vrqSw9kJWHcDaxLErLHBwSN6Jtke0RAHvuXrX5US6vXnyrMn4cu7o1wrhBYfbTANO3YdT2kawfzWbiQBZrt3vq/NcOS/smm30Y7h6T3l2ltVqSbFJ6hHab0FAjExpsGVIFX8H2QdY0/dQHYM/9qzbXBS4LXlqG49jVrdHG8WNUmP1gl2A92egAtT/E/ZmYwplk4oYyf35MiF1lX+ejLdVHBl9h7JLoUEQbqyKxjKJGJgTYWDm94GAJ7wNje5G2CYAN96/a1KYDic/XNrtGaT9GjMO1R/UJNSID+r+pCqr1VJFYRlEjEybUZ5UbOENbwrYvLA77AkDFQ6o2t/H52iP7+epAIuajlqpP6KB//45T9YAqzrkto1hOtfM0SqPsh4BE3OvlmQFgyWOqtt5hOZKtS8Hnay/t1/mopbYTFuLErJfJLPRE8Db0av7JPuRJWO+oBHvmRQbgDHer2uCZ6IWn4m8yAODHgKp9Sbhm44ktAD8SVO2L0f5RfeplHADA9wNVGwAArgSqNgAAXAlUbQAAuBJvV7Vf/u6I+HYsfWceAAC8D3er2lbs+tuB7f3JKp7ntVVb3zqNd9SB59DfqI93BIHT3Ldq4/O1ATgLl2wp1vbnNvhDG3CO+1btn/T52j5h89PzrPLZxe0TG/Jfznf0w472euImP4R1BWNwX9LTGlnvLgKw4d5VW4ox1aNTVVsqhTySysy8lOgQ6WY1tbUpboa2DejRdqffLVRs5i3qgMVdkvJ0P9YmxnyquNSWObKgXc5uvqvnZZX+Vj+Eza5lCO5OPNh++PQsAbDn7lWbH+Wy06mUx9ZhZq5ujTBuUJj9NMD0bRi1fSTrR7OZOJDF2u2eKk9qL/PZxNWW6p1NYtxcJbnUf8IPeAK2LbIH8VmLdQNQc/+qzWWCq4QVi1zdXN0abRw/RoXZD3YJ1pONDlD7Q9yfiSmcSSZuqPKk9jKfKm7y44g6Yf6J3jkGmvWf8wMeDZ8HxvaiOgYAzNy/alObDuT3/3ztlGcYuMyniusTV72zma+jYxexgv4rfsDjaEsez8/BNgGgPKRqc/vbf752necyn01c7lgFreYbWcYiov4TfjTbuDLg7sQzcGaPAFAeU7X1zsuRbF3KN/p87TrPKp9N3OiLelS5DJGVzU+lX3Rt/SjWOyrBfRm24JYDDH44N1ft/+///j/4D//hv3f4z+4k+GGgauM//HfV/+xOgh/GJ6u2CT8Y/eetv64NwDPBNfzJoGoDcD1wDX8yqNoAXA9cw58MqjYA1wPX8CfzdlX75a8Xx7dj+Zvw7kJ3PL7Nq9IDUIGq/ZO5W9W2Ytfqzpk/yVvy2qqtb6l+aHSdngmBSg++Me0t26f+RCCCqv2TuW/VxudrH1NV50oPvivyDOHf37/6PAFVG5zlvlX7B32+tiIXz4hxl3kqGsGEwKwf8+S0rMO7JufgKsgO8kmTI3TDkVNQtX8y967aUoz5LPbybB1m5mopbDpAyo+ZeanSIdLNamprU9wMbRvQo3FLu2bcQsVm3qIOWNwKyW0Rq8pT4UCjRpn1lSVh+UrmpgLXJJ7w86Bq/2TuXrX5UYoJHUZ5bB1m5urWCOMGhdlPA0zfhlHbR7J+NJuJA1ms3R6iI01oHDpUhQmBWc+a08mAi8Ln5fZdRtX+ydy/anPZ4qplxetuVZvVCdaTjQ5Q+0Pcn4kpnEkmbkgDnU2eSpXtUt+dnZ4guBZ8IM8duQiq9k/m/lWb2nQOf8jna9NIkxubPJUq280sNNb5OYILwefl3JGLoGr/ZB5Stbn93T9fm2DblXGVp1Jlu59F6rU6HjIHFwVVG9zKY6q21hQpKq1L+T6fr63EhMiTKpd5ZiVxkz7lqb2jElyLcAqVGw4eqvZP5m5VGwDwNHANfzKo2gBcD1zDnwyqNgDXA9fwJ4OqDcD1wDX8yaBqA3A9cA1/MqjaAFwPXMOfzOurtryJjd/CZjIA4AhU7Z/MK6t2ekuyv995ib7J2m3625W51d/o6u8DdwPT22j8bABvRLsCN7xTW0HV/sm8rGrrebX6KuXXOgrETD++mwgCu1lUbWq3Qq1/0sNGagPAO2DPJPD52uBGXle1W9Hms3viLxu1uP+VD6ai9sffP1bs66qtxZoErdlqAMA7IAeXz217RoGqDc7y4ufaVFQ/Prj6mrZGqzYVYPofF23/PO66arPIV0JffbntVgDwHFC1wa28+LeRWrmZo+fCrRpT2f74oKLt1XpftfVnA55og3cFVRvcyourNkGH1r6BjItteXb5cEvxtap8rmpLzdYfCrfdCgCeA6o2uJUXV20pul6Ee7Wd8artiGJXtaVL+j51MQB4Aqja4FZeXrVD7ZXqbR0TWpxNEKw8y6mnhirdj7r0IWaEwg3eDFRtcCuv+22kFNXOUUmtqjY1tHAbzY+o+mUwm9EDAC8knFrlhtqNqv2TefVzbTq5qKQA3Aiq9k8GVRuA64Gq/ZN5cdVODK91RO5U2R/tH4DngKr9k3mvqg0AOAOu4U8GVRuA64Fr+JP5ZNXGf/gP/738P7uT4IeBqo3/8N9V/7M7CX4YN1dtAAAALwRVGwAArgSqNgAAXAlUbQAAuBKo2gAAcCVQtQEA4EqgagMAwJVA1QYAgCuBqg0AAFcCVRsAAK4EqjYAAFwJVG0AALgSqNoAAHAlULUBAOBKoGoDAMCVQNU+xe/f//3997///fv73+/fpgIPgxf7aKl1Rz7+3GE7/nzwxpow8oR91whKlcYd+dy6Xff8b+bbF/4xXxsroXnJTL4fXLXjd+CeOTcbe9vdVdd5ugvh034+QXWBH31q47cQawLtsFk4WXMOT+3N+iz8hFP76FncBT1dh2UlzuuLVJtOPHzfz032jnxu3S5xcpYczle7Tbg3bXvvvGhctcmzzkomyDsjXSWVve7srQdi5qHruGdzgR+HLFtfxv/+fvDl0FWoqvZqfdZ+wqnlFvebwXtycgs+V32WvGTTlbTLT+CO63YJXlu1iUf4H14h0RmeP8HJ/l6nfzlPCTXEij/ERBTIItyB/XNPM5Ah4n6k5dC7QlbNjwdgL7Ersjk01bOtlqb7tESprT2qd0o/7mh0WLGZF+FaCeW58RDHc6j0G6ok6330EEWerO762Q9BuujTXfXsH7DvynK+o5/eS1oK5n2ef8XST8s/uhE9K8Jcgti9jKdu67/50cUNXY7bLGl+FutMHSS4L2qrfptPNB/iarcJjX5MPHlSffxVJy0rc7WfV7y59yJVbc5mv5qRaG/J/R2mq2a3slxHQhZHVrE1VK9JzG3JLqfRdtGUbUm7K5K0nUhZta0y/7HXc/BEVb+kpTMkSSR93PsYyyn9WId1m7amzcuMWWjrQ2330Ja22Uz5EJV+w3LIZh+HPNtAX//UXvohSC1TEYdT9JRSi2t+lnHVhixUv0S9jPD2pbEm+DoTIjarPBen8tPy52Bspklv4yqsmdah8u/nJN6v5GFPytP9W5vQcN6xzcf9+HzVjODuMSvfx9iWgTxSHsm1jjs1Lxriid2FoWpzQjJVk4+I9lrBPft5dc5jy9zQpVG469/HR9ieWM5YtMVkUTtU72xOFbEcoqS9qfwkfRo1Uy1UO2wRm2bq0Viln+aomlciz2tcXieumwRYhK70FRp6zlNDmdCo139IuFmxuPRDiP6PJmuqgDowYRd30KdRFTE9JWnyT2uJlfRLKj+b/XX/yUZRlQnn/Tc1tbkjDNlzJs+oP5tP8KNotwmTgbud4vAjKciGWyH0jJmem/gZetWW2MN89iT7PNtpdc7DnosTr4sVl0AVI9LdllfNnLyLbTNUVEnbiZTVxg811TJubQUPZDdTnua++Q/rmTJRSj/myLpNW5PnFeJKT6DNl+g9Y2KVfkkKrSyVRM7T0lR1oncsV4CXppmZKqDDTKjjUluXmJViQ2ox2dGc9bjRIYshXMpkT+Un5x/3l9vRxGyUFP2s/9GM+5SjiWzyTJkoZ/MJfpTkTcwT4rf5b375kRQ6qg9azSvl9nWsakvUYTJ7ZnuZ1m51zqPrYsKIdmkk1VSB0rI6eRfHBVVJ24mU1cYPp+cUE3HSujl+OkwM00yZKKUfd8T95mFDnlcbndYzztdRm1Vua30ihVCWSkL1Pc+Wz63ngbABxfpoGBPquNRmB87RZJXmrAdNmsN9r6j85PzH5SKBx8iDapwU/az/plZRUZs5RCT7CeG0qXrnbD7jfInkbTZQ3F+Lw4+ksG6hmlcK8XW4anNCq0QJmYOcwbDulX1Ts97mNCxi9lNRTVJ8sAf15juhgrYjtoRTRLfXRY55prQjKat8GsipDJTcTk3T4XxksIqffg/J2k/Ik1tHuaV5sU9dq7Dmtpurhapyq/SJpdky7Wr9qe05J5Z+CB1KDTHoC6iklO6470TaZUL9az4Ez6XNK2Wyp/JT7a+ik/jzwaamaqTomzzdp5jcdk6cTZ7LsZ+bLzF7m20I32hzN4ZzZm+EDjVBsBskjkx1C7/a+Ej3NXvf2OtMDJmhDiFuyjJ4YXTC6oDGq00Uh7hEWLXY4QsXzOW3dCHVwZX4yc6JoB/yaX7ygGkXZ+IQm6+598QsALWTf58XsfAT8mxz6W5n8nxD8raHjLwOLPPN9qJk40K/pyWbLaOveV4shvXfTGH2Q+hQbasBZ5CcEA/Y9+V8hyvWnBNqq+0zLP1sFoew3hC0WgfpWucZRvT7lf0E+yWbPLljtQ43zXc7r8UQ32iNro+u6EzzijfXaanmrT/J8NtI8HV8N02U7fFL/v74sTT56egZN+E6XH3f342Xn8N7odMw4U6gat8Zua3h9o6X+f15+W25aL27+r6/G9+jarezfOdZoGrfHz5unYtd3Xe4LZwCL9vFbuyl9/3d+AZVW6bwkGOAqg0AAFcCVRsAAK4EqjYAAFyJsmrf8XWlP/W7AjSKvAb4Xi9g8a8RjrLqr2Pe+3fEX+dM/gCAK2JVW37XaWiFRdU+mZUukwlvA6o2AN8VrtpeOFU1/03dF9lU7bcFVRsA8J7Y30bO1blVbSnp9hS82/AYZSwN4szwSq0FhHv1mXVz5a5j1Wtx3VGP24Z3Nj9UOJNTn4dLPrqTkL5NreXTctDJhCHabUKj+xmNl1TzqvK8KX/rmKjWp5qvxqSm6mXAEBoA8Bx+tUuar5+XBr3AaqVdfGNXbSnZfMVVdNrFF4dTgYueiRbX/Czjqo1XkCWSDJnrI9mqJys/PtYEmb77J3q1EntdhKhXkdBuE4ToJ7Yr3CbmVuV5a/4qzuzXZznfFtlTKJ0DAB7HL7m1fFtN0ahurzw37ze2WbGoHaqPiP7Zn1/sA1uC/MiKJptZD2AN0xdxXa8ikTLZrM+Sal5lnpU+xZ3yTEz++DEqkpmKYjR8vjkA4MncXrVZnegdbh/hCM3MVAEdZkIdl9qaKSvFZl84yqoUHLLZ0M+Ppm9m3pH0KhLabQIZsJzgAda9YjmvMs8b81dxxg3i+KhIZiZK794zAOChHL6unW9vek7n+LU3OWADOM5ioIYxoY5LbXbghCFLfKC5a+m5bGaTneqb9e1Vu1mYfILlvE7meZi/ijPTOB9himSmovZxwkfrDwB4EPweEr6EcjVVtXwPSby91aXlATzChjg6lBpi0AMpGsYELkPruFKeFs4r9lVJ8yF4Lua/63msLckwXzHpekX9myC4/RmqeZ3Js9Kn/JdU60NdPHo1X3HLppIzt9iRoBrtNZVwqx4AcIi9X1uvp2I3v11nNeBb5rfXbnMjVKjZD6FDta0GfFmTE0IrRR03D9hWRh9o7uRR02glQ2jOWe8BSBnn2wPXnxdMtHxy1zZPIjvqfoo8b8x/yW59ekJhvhJz2JcoWkrsSDXKrXoAwCHl30a+G62qDGXCq8Z1+a7zAgA8iOtUba5mobqNxe66fNd5AQAexGWqNsEFrfN9Stvj5tVeiJg4etEGAPC2XKlqAwAAQNUGAIArgaoNAABX4tlVm19o5VduH/WS9KP9v4q3nZe/ddDkQH+9Hi+jA3A/uGqPvw3j4qB9j+CHV23NzoRbODkvsjKetQibqq1otwkAgC/Tqvaz7hWq9uOqNpdssbE/83nKnqJqA/BkdlXbLr9BF5NvZrqlXk2ankuHwFq1IVzLHFUfItinuHfwT47IxOdGbeuIfpqTTdzl+hBL/9HUCGs+x1XOz0ve5Bdy43hdnNnMa5k/sZxv8xPNh6DabUJjni+nf+rz0Dmw+ADgh1JWbb0qfmNN6NXZbk6q2n7Tok++gq195jkjjXX/PPYB/vn2q1sWzGf04+0Wl6QWN+RDTTHvemuv/BOanbadZdzUPpwXG3CObNBStpyXVPOyNjHmX803+YlpKNzdZqEs5ygDeaQ8kmsd1/IZPQDwk1m8rm3Xz26NXT9/Kqe3VG1Y7+pSb62kV/GQR/hnR80mzGv006af47p9M0h6ai/9ixUXKRK0rdRxR71JJs6YAQ8nrOVpz1TzovYy/2q+Gz+KdpswGfT55jj8SAqy4VYIDcAPp36u3W6Rif16WcP0fnkrfRuX9CoukSGBe/vXESY0clBmCGBmHmAMFM2W/hUdZIJQxjV/Z+fFBm0si2PaM9W8qL3Mv5rvxo+SvIl5Qvw2/80vP5JCR/VBxcIC8HOoq3a7PSb6rUq31NWVfvTDkuhVnEnX9e7+CR1hQmMuN0qO28KluIdVT1EjE4Qy7uifpe28xD7luXDrVPOitjZV76R8yvMwTSd5K+fb/LU4/EgK6xZUOecGwI/i7OvadKf0Ullb7PUSqT7f3nYJox9WNns1m5FbbX60fV//hDoyIaCBTWikuG4T45q+xa38EzZmTG8T96Z5xRyWPiPVvIhl/tV8N36U2dsyN99QczeGc5I3OyEywFQAfHfKqk20KyG0csB6HqDkz5v22+uXcLAnTdBXhLDyfZP39q+OTAhoiI7YLJVKtT6Vf2Lw1myqELfOa+m8YjMv7lgNX863TD7piapL9L6hGl0fXdEZFwFVG/xAuGqDDV5GTP4ufNd5AfDtQdU+AFUbAPBWoGofgKoNAHgrULUBAOBKoGoDAMCVQNUGAIArgaoNAABXAlUbAACuBKo2AABcCVRtAAC4EqjaAABwJVC1AQDgSqBqAwDAlUDVBgCAK4GqDQAAVwJVGwAArgSqNgAAXAlUbQAAuBKo2gAAcCVQtQEA4EqgagMAwJVA1QYAgCuBqg0AAFcCVRsAAK7EK6v27z8f//v397/f+JpwAAA4y6/f//39J7VT5Sj+FqHx8aeV11HPHaw868fsFarb0TMAAIA9v7SkUn1VmYWPP9RY6LkIc3l1m0jlJ7VnuLfVdwAAAHv4FRJ/pUIrb3juHJ9fmxG1pc4uniAv/RCVvcMDx+fgAAAAlkjV9nJL9VUeWdl0YmZPpcdCLIQn0Us/ytLeEd/6hBuFGwAAdthvI7XcarFVTavSXrWtIquoaCmPhXj2E5ntCVFlzwAAAJZY1ZZy+u/fv1imRdWKL5VjKa25trJRfLo9+Ukke3YbfjYAAADY06r26lmwPL9utJJtls5Yymc/G/v0Isye/7fAugEA4GcwVG1/2frT3MvPjBXpCesGAICfgVVtrrWnn/ZuuJefGSvSE9YNAAA/g1/t9Yuvvrh8Lz8VVqQnrBsAAH4G9lwbAADAJUDVBgCAK4GqDQAA1+H//J//H0mVW2+vUgt/AAAAAElFTkSuQmCC;" parent="jNX_CL863BR4BcK0fppc-1" vertex="1">
          <mxGeometry x="34.5" y="239" width="494.5" height="872.24" as="geometry" />
        </mxCell>
        <mxCell id="wVOnPPv6YOxn_1LYzhQl-2" value="&lt;font style=&quot;font-size: 14px&quot;&gt;read_verilog&lt;/font&gt;" style="text;html=1;align=left;verticalAlign=middle;resizable=0;points=[];autosize=1;strokeColor=#b46504;fillColor=#fad7ac;" parent="jNX_CL863BR4BcK0fppc-1" vertex="1">
          <mxGeometry x="28" y="79" width="88" height="18" as="geometry" />
        </mxCell>
        <mxCell id="wVOnPPv6YOxn_1LYzhQl-3" value="&lt;font style=&quot;font-size: 14px&quot;&gt;synth&lt;/font&gt;" style="text;html=1;align=left;verticalAlign=middle;resizable=0;points=[];autosize=1;strokeColor=#b46504;fillColor=#fad7ac;" parent="jNX_CL863BR4BcK0fppc-1" vertex="1">
          <mxGeometry x="34.5" y="214" width="44" height="18" as="geometry" />
        </mxCell>
        <mxCell id="wVOnPPv6YOxn_1LYzhQl-4" value="&lt;font style=&quot;font-size: 14px&quot;&gt;read_liberty&lt;br&gt;&lt;/font&gt;" style="text;html=1;align=left;verticalAlign=middle;resizable=0;points=[];autosize=1;strokeColor=#b46504;fillColor=#fad7ac;" parent="jNX_CL863BR4BcK0fppc-1" vertex="1">
          <mxGeometry x="34.5" y="1148" width="84" height="18" as="geometry" />
        </mxCell>
        <mxCell id="wVOnPPv6YOxn_1LYzhQl-5" value="" style="shape=image;verticalLabelPosition=bottom;labelBackgroundColor=default;verticalAlign=top;aspect=fixed;imageAspect=0;image=data:image/png,iVBORw0KGgoAAAANSUhEUgAAAlcAAABdCAIAAAAHXdScAAAAAXNSR0IArs4c6QAAAARnQU1BAACxjwv8YQUAAAAJcEhZcwAADsMAAA7DAcdvqGQAAAASdEVYdFNvZnR3YXJlAEdyZWVuc2hvdF5VCAUAABDHSURBVHhe7Z3ZdR25DkUdQCsb5+JMlIgiUR4OqgEckAWCw+UdJbnO/ngqgCAmVhG2217v13+EEELIWeEUJIQQcl44BQkhhJwXTkFCCCHnhVOQEELIeeEUJIQQcl44BQkhhJwXTkFCCCHnhVOQEELIeeEUJIQQcl44BQkhhJwXTkFCCCHnhVOQEELIeTn7FHz78/H38/3325vLI36/f/4FH39cVXh7s8XgAZqPPyuH34TvXBeOxYUH8Yx6Y57P9j/jGb26H1QM+vR2vruHsNnnl+VDKs/4Xm6DU3D37cchuFB49mm94IL7krrWlFBPifXAeod5Ptt/zw0viefTOhc/leTwWAolLHjT72pV3T82BbHbhcBMP0O7BkIyaCaI3nCElbgUdmwlMHwfZsR8kKgvXP+eCDgeFwq3fS8385VT8GVfwoL9HIan1fPY00J2LjyHL6lrjUR6XtUPrHeY57P991z7ktgl9vn+Lv8r8QcJpBkGc/lGkPNWdV7ctLqXffub7+2d+WC3C4GZfsisz6JH/qZWC+hFGjq3zdHsoz4Pufg+RJBbjVsy0l2z/Neo6YO+l5v5lTobRS/GORrU6j2zbT9NJdq44HmNeBGP1Zc8+4L7MTRm8g+aKEGft8zQuO1pHVUFfTmtmOYobggqpiLFDVBCPLAoiz7fhjq4u64HYldwKFCkj3cE/fiD/unqzX1AGS4YtaSr6k15Vp7nH1sq9TuCXTDQXakhVbQF/Rbs7pt+esFnk0ZyO8PMBs41ZsXS8YURs3oFS95BnjPg5PL3KFzKZ0iTIrBTnuln7PS5HipEEepzpZ6ry5eYvQ8pgSom/6a37Rv5D4EDFwzVdB1bn+Od/Oo7i9gDvcbVwNUmMvOTnnt0da8ks/SXNXYZxwKb+Cwm9bRUX/KPNuXs9qKPqkh6ZCYgdHy3Ytz47Bu6ugRkh2ew6PNtzDwk/aKux5LjaiCNZD+lbqwfnYJZ2rVgZpnjXqp300/lfv8zz7JV3xg4LAYX+7M4QdvqS9GspKyyGQ4oJhHfDk8wU7eWNMQhfc7AUtLNLi9JfY4+r81nAXa7EJjpe3b6nCaQWPXO49ldRUxARXNU/btgq5adCeUkRLmT/xDk60Ig6S9+L/egfyKqHlFUaaEq/dHDxFFv6QwyGPoRZvYVK+mwn6F+zL8813xGvwZZ59baFz3EBXDsQiDpU+07eepjySGZQcBz5XDZxrqNlH8l6Wd1QXwUfUW1WF+wn+jJbX2AqQuBpF/Xu4j4PP+qUl0Oajv/YNFVxro/utp5U52BDgvuxGLHX4VgdUYJeJjlAktuEIcs680fxYzc5xL3hnwWzFLaT9UTWPZZTGKSbguKXv2MmnaRfqP6N7f9+2PGSm7sMv8hsHMhkPTr7+VObAoWjxrIfqqy6MwsJ6ECaBId+AFD+4r5bg54CDJwoeB7G9TRYMn8lzpKXW2ZC4bRhaSfndYiz5lnAZtdKCz6PKQNfdQOZtGTflYXxEfRH0fTP81df4pCl67sA0h1VZJ+XW+fZ+Wp/nVPOUZX4XJUju1g3R9d1Pg5BMCiPJjZ4TylPaNYHWZJMysw0de7mUAl97nEvS2fGdjtQmCm77nYZ2uFr/bobsvf/Bx17dNvNF+qSb2yTE2PpO94TwTYuRBI+nyOGm/ajWvxvx0DlxJH/hea/JaMoiKzmGvvJ9LbC6bKnocgIxcKs3YgVk2jWNVmur0bbbw0w+hC0s9Oa3FsM88C9rgQgF42Dlev4s66ID6Kvt7aPw/fHusNfUh1VZJ+XW+fZ+XZ/gXsrd58p/wIHgCWxLr3ZvbaUJdbattLqJKnijlKTynuMEua4uaCHxDrxXNfzozc56auG/PpgVcXAjN9Tymx5FkSgmiLh9hTT9NepMPPPsP3QXSqsh/QpMSquM5/gRre/b3ciU9BJP1p/5nUNaUOiNoiKxZiJefa+Ukke3WrpW0Vk/ZW1Emnj28DnpF/rAvqYV09s+hJn04r5jbMU5h5FjzXLr2Lfd5nFj3pF3Ut8M7rvibPob5EaC3F0DpQFvUnjk9XTbqqD/DjQiDpF/UO86w82z+I3tAhV1qzoBcW/bETGEdBbtF/fQljngv6EuLBXfXdAfg7nieZ96Q+19fpznwS7qvbPtMPmfXZ0tMFiD2D8wr2F/+OKBi+D6rUv5N2eMOXK7KLYZcvdPkLs3tAwPG4EEj6dI7J/52UKdj2EZTUjVKeW1aKHvR+Fvbqvt2+Bm1wIZBDFJuQvv13k1pCNRfNpRyyc8H87+oXrShLqg1mkWZL72qya4fd/IWhfi/0VVNQA3Ru60uCVfwUha8iq41kdusSLtWrC32eL/YfXlp0CM8wqpeF72q9ofUBbWvyXx0KzVKX2BDb0R16dSPey7H6WseiXiGuxVR74OdoSIh7VT5rZi26qnVD4+YSdi6clxDX1v0Rhu8DljxK25kucmsM2mL77z3lr9iWXf2lZl5FMwXru3Izj/JD1vx7fbbv5PiiNnl9H27Lc5/H+uf3SMhFfArqt9IO/Nt4lB+yhn0G7MMa9oeQi/zS7wS/w7zvU3mUny9h9McOxkN/3/0QfnSfH8iwDz/oHJ/NU9+TR/X55/j5+FZ5XstXxf0p+O8FCSGEkBPCKUgIIeS8cAoSQgg5L5yChBBCzgunICGEkPPCKUgIIeS8cAoSQgg5L5yChBBCzgunICGEkPPCKUgIIeS8cAoSQgg5L5yChBBCzgunICGEkPPCKUgIIeS8cAoSQgg5L5yChBBCzgunICGEkPPCKUgIIeS8cAoSQgg5L//4FHx7+/3++ffv5/vvtzdXvYQ+LjQff16axg7IFEi+rv2uvP35eP1pEkL+YXQKysVSueceDNep8sorFXejC4GnTsHFjfzsKTir91retIYnzuZH5VnhFCSEPJbm94J33om45l14LQ+/bXe46kb+plPQk+IUJISclPwnovdcW8MpWH9TBFH825z1W8xEo73abBw72JumSL0NzX1LyeFYClkVPzWAeolLkfXQmt3Iy7h18YgrDPsgpiLFDVBCPLAo5v7wmcQZnlRbguj6uELbH98162c0dUI3+noX5yIc9kLZQggh99P+XhAX0a1XDHa7EDC3dnWVB+j1aiv28dlGYHMJCuWWdGWaQJDwnEhZlavc/cfVmkNNFPoZsykIJnG9BKvRW13jpmffYCH61qX0Us4peo87b/B8hnEH/qH2ulRwfYjb5ykM6134ifbrnhNCyLX4FNSLxujvrH1wjVXqxBJ06fPjI1yj9qevfuWpiGuvTIU+DdyS1eedU7D3k/Rp15D1jXwh7hHYH1zvVirqY/GfzCDguTKrZUEMVxnGTZYh/yZWVUPs85zVO/OT7Vv/hBByJ4M/EZWryIUrwTXmQgvuuHh/QdGCa6+5DSvX3raVlNXCT60dNjOHlfWNfCFu3azqhOrFJnmIDOttfM4Ti5SkGsth3FRsLSfX1Zr1ec7qnflJGSb/hBByJ3kK3nPL4L5yoQVL4rsapF/jV3DtyYLLhWtv20rKauFH06tMComse3Uhbt086YOQPESwx4UA9LJxuNqTZgwYxk2WIX9fcH1RQ+zzXJ977yfFVSn4J4SQO2n/u6BdOfEGtDvLZsLGvYP7yoWA+VAP8FZvOgh4jngSXcRqjzTjbbi4HFNW09tWn7bKrNS9Lres48ba43MkeYjo0ii0Bfn8/NwtpCTVGA/jIn+JCVFz9r65C+hTT3xP639Y7/xcjriqbM/9qveTEEJ6fuGWqeC6qVw9BQPx5mputyKm0KKFjRAXakrB3P6uZXMbhh3mJzsXgr6/beU5b+hu6oT3pmJ+1nEPgvPZEhLFc6LZ0rua7Oox83y4s7jlZTBK0xBx2E8VR3kO6134OcxFk/0jpVwCIYRskv9E9LTYVav3q4t2vdZL+aeQZgkhhJA1nIKOTb0wBduh+FMoWXMKEkLIFpyCB/UP3owfNgJL8vyzQUIIuQJOQUIIIeeFU5AQQsh54RQkhBByXn7qFEx/I/9HcPx3x/bfIcz0P4vj3zPYf1N17TNZ9M3/MUZ4Q77t354d9q3PX1jUSwi5GZ2C+CdXBy/8xjDLXLiG/Snot0xzIR4Vx+jNv4ezDb7wUHAZuxCY6Yfc3Lcn8YX/sGTYt2dPwUf1f9a34RQEV70nhJCLHL8X/JKL9eagm1PQ776Pxli24t6xRV3Q5yKYid01G/5vYHaLzfRDvuSwFpQR8/h2XWSzb990Cl7ft6veE0LIRaZTUMfMx7t8cUL5f32zseAfLjSu9C22VDi+bdGKUV1DlGjqhG+7ekdM10a90C4N0ShiJttGxnHypV+Vb15PtsmBHzDLX4BjFwIzfULNErarlBLzt9heSc3osBGGebbnqF2AfsGwXaITr9WXPEM/fE9m7xu2LEBkF4zDe9CXPsR0DufDPohpn//hvLLsP8QZs75FzwnscKEwzJ8QssNyCtoVZT9lpXyv5QqTZzFTwT486KuHqvdn+Dis/ENNQYFGLN/57FnTKv5n1Fgz4zT5LE+zM32fWKJYZbdw2j8DjdJqwEw/RNym9Ab9N2+z85LnWZ5XZeLeG/Q1OZYs3HEWfZ5Qawa6036KSlfq0SyAnQuBpE99KCd/qQ/IZeO9HdS17KE7b/B8wMxDr5/lTwjZYTkF7fvHV3dcA0XhZp1d0stz3Zn0QgoqJIPqNutdcnFIdT4zFnXSq2W5kFw1p/qPzPKHKEDhQmCmHzIO7ZH9zkYJ0/Oa56mP5XmTvkxBdRZKno+4reWhz+u+G2YLYO9CIOlv7IOZqL41g4DnyuGyjbUghktgxYVA0i/yJ4Ts8LgpWH4W/WGGJ+gTKahg+xJNHm7WhuuJBkNji6Naly0Z3P5WzIVfU6c+VGb5+/L27bYGBblQOM5AfJV6p+e1zPNY3EupBGm6AZ0LhXQWx7nGvFTWn6KA2YJhFCHpb+jDzLOAzS4Uhv1fU6t1OTCLnvSL/AkhO9w9BctyfXB92S/PWIE+0d8mcWMk+VfJsoHYI156atq6vY1S6xuKPbUhLhdm+Vd028bttqbvG4BeXNXV6XldylPA3p2sqluXDehcKCTLY3KUn2Vdf9YqFgyjCEmf+1Djzfsw8yxgjwsB6GXjTubCsG9gFj3pd86RELLg3ikoVvgm07WlerOW5/TdRqpTl43qMxL9a25Ct3FGreUQTYYI7DZx/yoiiaV/TWhkg60udMy6sehSz7BvApoU//8FZ+eVnmdsZlWCNPkM987ek3pGxVNjtmAYRUj6G/ow8yx4chv9X1OrdTkwi97rF+eIt1qX9/Ih5IToFMSHcmBf1OxWwsNB+PzKJ2eEO2L2PQuNt2IzC3GoxXlJD0trai36HJN0/I5ow+oG270i7pANUA7zz0phqV8z7Jvg+l5TubSUlXtNtk35qoXOhcDwPZm9b9jSk/MUhvkLQ/2lPgiqHeUvNFt6V5NdPWbe9G03f6FEmeUvcAoScpHj94Kb4JOTr8pl8p3oT4fn9UrYbUJ+HJyC/xR6Nu3v3nher6TvPyHkm8Mp+I+gpzL6sy+e12uY9Z8Q8s25egoSQggh/wycgoQQQs4LpyAhhJDzwilICCHkvHAKEkIIOS+cgoQQQs4LpyAhhJDzwilICCHkvHAKEkIIOS+cgoQQQs4LpyAhhJDzwilICCHkvHAKEkIIOS+cgoQQQs4LpyAhhJDzwilICCHkvHAKEkIIOS+cgoQQQs4LpyAhhJCz8t9//wO8g/xsK+McLQAAAABJRU5ErkJggg==;" parent="jNX_CL863BR4BcK0fppc-1" vertex="1">
          <mxGeometry x="34.49562500000002" y="1176.00171875" width="599" height="93" as="geometry" />
        </mxCell>
        <mxCell id="wVOnPPv6YOxn_1LYzhQl-6" value="&lt;font style=&quot;font-size: 14px&quot;&gt;abc&lt;br&gt;&lt;/font&gt;" style="text;html=1;align=left;verticalAlign=middle;resizable=0;points=[];autosize=1;strokeColor=#b46504;fillColor=#fad7ac;" parent="jNX_CL863BR4BcK0fppc-1" vertex="1">
          <mxGeometry x="34.5" y="1307" width="33" height="18" as="geometry" />
        </mxCell>
        <mxCell id="wVOnPPv6YOxn_1LYzhQl-8" value="" style="shape=image;verticalLabelPosition=bottom;labelBackgroundColor=default;verticalAlign=top;aspect=fixed;imageAspect=0;image=data:image/png,iVBORw0KGgoAAAANSUhEUgAAApsAAAFeCAIAAABFPUOpAAAAAXNSR0IArs4c6QAAAARnQU1BAACxjwv8YQUAAAAJcEhZcwAADsMAAA7DAcdvqGQAAAASdEVYdFNvZnR3YXJlAEdyZWVuc2hvdF5VCAUAAD71SURBVHhe7Z3plePIDqXLgNfWTPtSnpQj+WfcKD/apxnsRCAWkUptZN7v9GnFCiAQZFwpK5n69T/g/PPvn7//EV+///nHmkDLP7+/kB8AAPhMoOhX4B9R2gFfv23EI/iH3/L8/fMv5BwAAD4RKDoAAABwBaDoAAAAwBWAogMAAABXAIoOPgj5p/r//uN/rMe/1gMAwDFM0e3XvNNJamdr0B6y+TexqMdaj6C/zBVz4yDX6k/Ds11/jTzvwp4893bKNjLtVhZm+7K+HvYziEdsWa9232v8dGy30Y4l599/pOHWKsyuHwDAj8IUnc6Dv39+599k1jOCTogoxy9Ox6Hr1a8o74dNMnyQiX2rWPdPwjT0D/2/OZE963tzMrOT4SHLX4Cf7cviergPioTsWuVHotvleb6dTxpv+efh282yZ98BAD8BVvQ4rOklDtl8ghNakXYVhfHBYWeTnFPWNEGd/fmSofymoHk/wT4UN8Vuv/6wcfau/TbenBrboSYe/o0+KvNgrm+OSvX1SPAcs+d1i4QaNOY9LOwE0ndjsWxmtC+aZLKrw7Si5fvoV8c2lWR5se+E1hmJURtPQdkLye5WXaN7odnbs+8FnR7EnhKzfIpxQ/0CAD4QUXS+wf1Q8Ds5n+BN2QdTuccOi/Y4GMIDadhvlg75lL+50KNJh0VZzxQaIK8yyYLmAtV1vFXEO5d17DZqNP57yvQoyolsm8EfvBQOXrvWFDuZPYud7UtzDaTy3cjyBtpQgpztO3XpQnVYLp+CvE2STmZnSkO9rS4s9r1QMhzM8imW915+AIA3wooed3j+3KCn9kZze+86ONa4K5KOry/+sb2d1DkGHlabo4FfucHrNj5N9xG6nK09TO1RJpnY4jYfi/gpC7kn7bOROQMLfFS/L1zY8MDuRv1YJaH+rLLFE3HwqzQ0y4lurfa8bB93YuFbUq1EC7DuJbySLnhZ3yoDgfisIxf51A5tBwB8Mr+KqsXdW9q5IofI/oNjDduRg9sOkjhC+LUg/aNx3ODtZjaFrSVtzzS20tz3UhJbT9i2uqDYCTxfNyzw9OG+pMQSO60tUPtWSagbq2g8TRzumV8L3GzTPh7Zpi3mkt4Fsu7BSmf7PmRLnqd6ls/9gQEA3s6vwZ2sN3J7J3uNsJND2+8mlCOQBrU/ObAkMA+EX7nB6zYsTdcebS/oIBpA/7emCbreBgnDuh+H+CkL4Xqq2rrWFDtKsbaAB473xRKtjSXtd6DrsUqi7Jqvu9v33QlRXraPO5F1lHzeXo5MGg/zHT6wIk2mZnuWz0i41QEAH8yvODG1vh2YUooTJ5qpLEfjdvPn33W3MyIZnKHWrSJoIFooXUTEaWFtgVpBh/Fc9967CHTSX/mVImt6N/2JXNfiZcL1aRB/b4co0xf0SSN7MlV7zML+eGaoWaskSgCzfacuXagOOyMcv+ewrGWYT2njCVZvGe77TXK2SwwBjzluGQDwen7RbZwP1qKUG370KLmvn14GD+Fx7fERkVTXMmxxsjcfv5Lr3kVgLia9LyZFr9jp2eShTenwxJ/asbVuIxf0ScuJ39gRzxo1a5WyWOX2vrdTPmM399PE3wbf57O5yA3r7TpWu1CTlvZxkc/ckXcNAPBR2PPoPw09vOjkszoAAABwcn6oorOep08nAAAAwNn5cYruPz9c/WQSAAAAOB0/9DM6AAAAcDGg6AAAAMAVgKIDAAAAV+Diim4P5OCX4G4RD4lZ/R1sj0jtfg4N+/tKONldqvMjb9RprWfmjuvwEJox/kUefu6QE2odE/TWtMrHsN73l50nO59a+n48z7vOZ9eDLG2r7sQU3cJNa7azMmjTIb6N+5bXX6bs79G30OtP/JK2nSvqs3Efd9vZc8U3l8RzDjtieBnM1vXs/X37vuzk2fYJPW/K0TlsvAbD6/Ah6DX7VEX3W5WdWJPYCYrBrYvDub2bN/d9z3nyEHSlN6/Ab8bzqOt8uC+L68HdHvBrik42X/z96GrdKkLfckY8bSlvO64kvd6s8g3utnPzite1qPFcfjjDy+BR+TnK2/dlJy/Iz9BFvtovxvA6fAh+98Rt9ODDwYRh/n35RZ90OIVTzvkFN/f95nnyKDTmWMuMb8Zzc717mO1LXAZRsA5BPVtlB6zokRR6IXvaUTIVdtfvVuya2JG7MBhk7+zD2BavA8QBo4M9zpjBvmO8tSVHi/EWfCKWuX9dZt6HSXVzsa3LTVWXRIq2H6/IJhjUQy332UlmbqyurotmrsfTgNH3mnv+p3a02yrLdW1dafyCdn9tLbN4Zn59vK6I4NGpfa+dBf2kMBteI/61/W18SnKxH8YX+OLqyGF7a3/rpVaKIvqorO0L+vjVdsyVAZuLPj+3rsOYwY1qRNFuqzibfY/ngcz2hZzqen2A+ObiFnNUpYPXzgv3JPQkm1qsdrQ6Q4YNjG/5ISQc6xgxWy8hwRsa5ww18vU7TDXBH4pnwY71TlOt7NyXnrJBNxFF93B9Lk/2THXlydoU26QduWNfcsPQBBpOBXWuLepLG8OamLaq+NlKsZFcae/D0rIYz76kHNa1nTiwLrXow7KpsF/KRKw9Mxsv14TFXzhkp9pcrk6cpnW1y+yR8TxCXsm0T/CZ27DWr3ZbxdFRVmkZju8pe2oVCmcZT+/XrgRZGlXvtrOABuuK+pjDPo+5ZT/slLIGquWd9FO4pULRWR5yzBGnTZGqj7L4h8zij7nFCNX6/KyvQ+3SuTpepxM6zirCLJ5H0XtUyFesNgYM8tzOlQXzQq2ekKnWlYd5SrguAwf4kIxNzzkp1/+QPmZFQuLJVl8y2Ee3eTSeIYv1UlckykO+bX+xLzM0dqvcghU9spDfDkSmjJyagwENcVf//vn6y5IuviNBgQ/jdg7Iy9u7D788Zfhg52J1ymx8aS+z9uNm3L7UxYN5svZ2mPZpWVmM7wcH++3UdqtZtUfG80wps5X1ZRAG3SG/5oYyTKuEdlvF0VFWaRmO74k4rBqOl/H0fuv4e+3MKHa0ouXMjjhthFXNKle56OU9aEjD+LNZpbTkMMyKdJXwehbxE2Lq62sSFRH5iYIbiCiswcZ38Wi3VW7F8xDY5MimOP6tndYkbGts16Jwb2eN2wSapy1mRHzndzzaO6Nffs2Px6bVIcv17rpZiLqP7veOeBbc3O799nnk0lQPO98d/Fu/H50Mkl3+yRebpgZ1J54TvhgNSGZvzHZUq0SZtRivK+NGGUPNMuQYbt7tuyl5LXCzDtMotKzMxpf4CwfsmJlBHmYkU3rCbNN7wqD74dfcUIZpldBuqzj9uoJ+fIqTsCCLoy2uZTy93zo+Jhy0s4AGkyEqqM2YKLXE0n4dzPAE7d06u1T3lKVlvGfrmuWZylrS9pus41ez2RFRp0hvxGNxyGtusLk+TquEdlvlVjyPYnOSXPP1wFR3zdrk1ToE7pQFW71FO6kgwzbjJS0zfNQ2rLREaFqd0a93ZwBB3Uf3e188M/r1EtKY2Gd/vS9DDgX/vu9HV4O/v9goS7r9Xp76pZINS4vRGdoezHZUq0SZtRjPCws6RzuJRKWqrss8aXtB+6wizMaX/BQO2GnjjDC1ehO2ukxRJNb9hAdrKMO0Smi3VZx+XcFwfE9Zb6RlHU/vt453s0ftLKDBG760SKBVb8dpI6w+Qm2GixnFdSaWb/WuJYehPdp+k3X8aopGhMFZfqLgcdmwaLDx3q1VQhusciuex6KxhXdzzKutAWgXjab/W5Mj45sVZbb8mKuch+qlp09XaXEzN+woeb2xQdp1k7qPzbrujKenWCNKnOFXqwvW+zJEnVvlFm/7fnR1pN9QrneL/fDdV8xjpBzWNCCZvTHbUa0SZdZsvPjiYLS9cHBdZsfiT3dmjiTDkzrjs/ESyjjU/XZ0RTSWyxLmntUpMn6aKyUS6/nY3EU8mtTiV8dbxbHJsyVPsprJARAcgxtcxNP7jQVpNebm8h47M2bX4eK+IIb2c2wzdDFWmTMb5snY/C7yvNNXMIs/Lr8+J31+uCgFj9TCW+yj0kfbjwnMoziwpu+RvesKrFFi13ZCV6OnqDU5no9BPLr2bF8zYuXJGjORTau7TY3TkuE296D2tvIk8p6yj7Hd34ynMFqvpopb8vWmvQt83oFIdE1WERbX29u+Hz1nwX1xhbs0Wmb76E7tPKi72nTubEcbZO5sPJXrhOTrwLpaK+GIqCH19hVvX4zPHRSUtR60szWTiZSHGXlbbufBDbITvvD4VUNN4cjvqMqwGiSxzM96/BC/DYS0hGE81nXTbw7yiJ0FrYNt/Oy+4K6R/WGotTEZWSCTBsfHsH2WZx2r5T2M4xfbzf3r1WF+uFEKHim/RsPGLGnEMp+BOGfDVj9INZ7ypivQsg7alq+zBpFkeNnFfhgkmq7W1AyZwWatLmxmyLqn3fo6Fuslcl8OtUftbAlJfg/Fs2a83i3R9X4cMtwX65sTV7DVBb/FBhbseXQge7YlTlMWFwoASjlBHs7HXod6rljl/Dx8H9nc6IR9Ks++GsHb0Q22yg6g6IacnOkkbQ9WAJSnK/qnXocXe4/7wH0US3s/cj0Wvzousimg4Pfcgf2Fom/YjWlAzsGAF3wq+tjrkJd+Ff04+6dbv0ie8jbCf6jbceTDInEeO18fFacil+jh2x+KDgAAAFwBKDoAAABwBaDoAAAAwBWAot/g7P/eBgAA4Idgii6ypb+FY9KlSrbR/kZM/g0A6rHW90HhPCkMKDoAAIBTYIouv1RnD8lrS1YyU3f/hT2pbCPv+370xwJFBwAA8MNhRQ/RopfQxaJkWpF2/ng+UzjTfpb7vRK4X4zNuKMxNE1KeudBlmNA9pJ+xEBmLNShfc9DNrN3aQAAAMDLEEVXzUp/MZEbvbWWfTCVe0wU3cge9iu6erZKy9CIhGLBSFxc0nZdC8HS7tEO7duK8huISQwAAADAG2FFD5UKSZeyKZnhMuYf0U0Rv88xRZ+4niq6q3VeWia/iRnaz+9muJrGAwAAAJ/DW78fvSPczRDRtaHWJETYGV2AVRLlvUpW6N4+FB0AAMApeNv3owdDMV6jsYXoEvsVXefG4KFCZ/tQdAAAAKfgbd+PHgzF+CYanFXa8IIyRsnvSLQ8jDbmQtEBAACcgrd9P3qwU9HX8TS9ruLc1Ck6oToupO9RntjXdig6AACAD8eeRwcAAADAqYGiAwAAAFcAig4AAABcASg6AAAAcAWg6AAAAMAVgKIDAAAAV+Bkir54Oi4/fUb91nqQhX0AAADgkzFFNzlMSjZ7PltJj3TfL593MFPcR/0lOyg6AACAk2KKTjp26u9H92AhwwAAAH4orOgh3vQSH7izohNakfbVp+E7PuPqH2GzyhIxLXR/CW6o6NRGlmNW9pJ+xLDNmtm3RSVmywcAAADehSi6y2H+E6dZ0ZuyD6Zyz1MVXVH/VskyvGHhWZcEI3FxSdt1LQRLexttsU/wGHs3Y1a0HQAAAPgcWNFDw0LSpczNGy5y/hF9k8Bv8k1FV4bvM0x+pTEvLZPfxCjFfn43Qwy9AwAAAG/nZN+PTgw1daroI/WVwYmlohO6YirgMzoAAICP5Xzfj94rLhHhWV0Yj2xV+eZndKJ579EZBAAAAD6B830/eq+4xBFF5/B1XVou0ZZZMqZaBgAAAD6N034/OpF1lzt3KTqhOi7Mvx+d8Lm1Y2QTAAAAeC/2PDqYIULPmm/V9BEfAAAA+Byg6DcQBU+K3go8AAAA8CFA0W/T/tQdcg4AAOATgaIDAAAAVwCKDgAAAFwBKDoAAABwBaDoAAAAwBUwRbeHseXJbGspz2enLiI90s091goAAACAN2GKTup96u9HBwAAAH44rOgh3qLr9oE7KzqhFWlf/YkV0/72A/0aMrfzU74Zd3IMw58ZtONp+LYWGhN9MX7WDgAAAHw+ougsYix4rIukY6J8WdGbsg+mcs9TFV09WyVR/giMopGEZatIVBKiBemjVu0AAADA58OKzuK1ff42GTNtDlxK/SP6w6TumKKPXA8tSPjb4Lw0F2td5u12AAAA4PM52fejcxg+VFtKnIErsrXnYVrS9sysHQAAAPh8zvf96ITGpuqr5d5CBGzV9Jlbe7Q9M2sHAAAAPp/zfT+6ktVXXG7irRSl55g9qjw3M2sHAAAAPp/Tfj/6jnj0xwlGGs+DoegAAACuhT2PDgAAAIBTA0UHAAAArgAUHQAAALgCUHQAAADgCkDRAQAAgCsARQcAAACuwMUV/Y6n6Z6ERvLAv8zzOdzxFwXOsi/PjvOp9sW0cPCZTA7qhVujOeA/KOF/NcI6BO1VqM9aD3Ioz+t4nsen5eHTmOVHFvW6bfpwTNHtckk7bXsftBdBedLbWo9ABspE9vfox8FffwWXtAniXjpmyvFs+mw/kDuMf87Jst6XR8U5S9EL8qDLs8oO9Lx85YWqORgq2aOCOZTnRTxP5dPy8Gms8mPpOd+iHo4pOuXqxd+PrtatIvQtp4auMcqRVdp8vp4SzGN5qvFn85p9eWOKjt5Wrw9VdoB86lZwwTqs69Un9SKep/Jpefg01vuiGbLKD4YVPQ41eqE8aUc0ajXytX63qLM07dY0IQwG2Tv7MLbrWAeIA0YHe5wxg33HeGtLjhbjLfhELHP/uoJyMrrfcLH5Jbb13nKxiJ/o7dQlEZINtSKTjAi4zcON/BPdRPatXUM2620ArV92bB1z5GI0Ip5h/Dzy64+2e/Y4Ts9nTNmCH8bp48Nxs9gUjvnNoRhubWifGMd/0G+g06xyC3PSWSBnEROVqdHjsZGcXo4o8jmO8yj741GGeYiR1KYtSptnJpZziOF+EYs4j/JReSjjdTA3tWb1ioiyQU1pFX373dePCNPewRdGFF1zSDej5SRntiv7YCr32Ga32zZETli+AmgCDaeCOtcW9aWNYU1MW1X8bKXYeK60F1ZpWYxnX1IO69pO7F9XEMtR3C95mPot5SF74i9logRD5L1WqIH3tV27Veb5p3a3JP3L4DM8uh3ct6zhJXgMwSx+GcwLlFdqUm9x/XCZp3M3N+t0okTl481v7qWyGiE8tK0aIRWG9mOwVSjMu/wSeeRNhoPVsYXBla0UfuNyWsR5CHPaYPtiXW082n4oDzxGWsKKth+izPVwVnEewow0vDkPvQUiLgCri1kNI+zvKWsMukiqWkDJ7AIycjP4y8OKHjuU3+ZEZg1PfX/k3Ye7+vfP11+WdPEdF2KQL5S8u9u7D4kzJubxSqxOmY0v7WXWHahhq6z8WsnabdQWf+E+OyUYggfIxPQqE9qJ2Sz3yNDSLqXf1EnzeM4+1I9VBG5Jrm/SL4qYxR+v3h+rsYYyXquEdluFB7Tj3axWg9KuNS0Xqn0zX+O5zy9R7C+InFjdsVaxeTOenXHupGRDGcajXcHNPJQ4S+9+SoQ5nj1x7uSj8sBjumDYjDhKrzKoDWxrnrZbydqP5I1nim+r/0je+v3oZJDs8k9Y2DQ1qDvxnPBN0oBk9ka9AuwC2MIrsxbjdWXcKGOoWYbciRq2ytxvXSzDHTqs5z47JRhCNpLM0DsqggbSfDHkBn3Y5k5L2p6hGcXdHobWtkWMHGVKHoJZ/NHudX7NDT7exmmV0G6rdH6zO+lJpDB0lJYL1f4s/rv8EsX+guIiGFqYxbOI8w7cWDN9GA9xNA8UmrZozDRc2w8x2y8qz+K8g0/Lw+bBTU3PkxIMs2yXju368fxqdc03L7Zr8LbvRzeDv7/YKEu6/V5euaryJukMbQ9qnN2mllmL8bywoHN0FDVslbnfQ5cscZ+dEgwh4/mfj+nuk3dUUrX0cyENM7Mlk4GNoJd5AD0za4QGMetVdExZFDGLP16936ZHQxmvVUK7reJ+t/FutsQT7VrVmpYL1b6Z7+K/yy9R7C8opoKhhXU8fbtWj+LGmumLeA7lgYZs7EtRT4lwz/1yB5+ZB/WlU2Tho/MkJSQzb7elWtVqddiQfmk/kLd9P7o6+sv/4mO7bj9857L51XJY04Bk9ka9AtrlEGXWbLz44mC0vbB/XYEatsoyTirmCNfcZ4fntMGLnb9fX7IBdAtSSQao/YicbfpEdaztGQ2BCjxARmv7mpk1Zd2riLu6ZbP4I1FqOYZFwza+9avdVpnnf3HdEuFMq5mhfRqrVTZk9u/xSxT7a4aDZxbUMRUktBtxavUobqyZPoznaB5kTLV8B7P9ovIwzvv42DyENcnD4DyhLg1IhjcM28v1M5s7hAbHRiiWAbZ35wJPx9u+Hz1fbe6LK9ylu8BsH92pnQfdugJ4bmMzsV15g/FUrhOSr/3rCoaJHfqtoS6v4PvsNF3eTlO5wrmyorb7bSCkJatjLWc0BC2rmwivpwZJiM3anvwuyHMihmH8kShdhb5Gw8aWhLadSHGO87+5ba5b7srWhuslNtej+A/6Xdhf4E7Mi6JtVkkkD/KsQPI7jPMOjsVzMA+1Y0d+hhy9X+7gc/JQ7aT1ilsOsjtP2inL9tngm4hTjsbqgm9NTd2FsefRgVxI2wWhl0IcTAD8EPRctMp1wf2ufFoeVNHvCECnWeUHA0U35EpOV3Z7oQPwQ/gh2ob7Xfm0PNyn6H7N/rjt64Gib/CltAE5Bz8UPlT58r/49Y/7Xenz4D+s7nj+h+A7FF2m4Lg2oOgAAADAFYCiAwAAAFcAig4AAABcgbMqOv9Dzw/4pz4AAABgJ6bo8usI9lsR1mJNTiuf+TcnqMdaX8geRc+/3/GWIAEAAICXYYouvyxof4xAW/LvHJq6+y86SmUbmf9m3MvYo+g0xOLniLeAAQAAgOvBih7iTS/xWTYrOqEVaecPvrOnC0z7b2ltRqXZKrfYPnQTycv6ZwYa1X4vAAAAwOkQRTftFrF2mcyK3pR9MJV7nqrorNr+c4ImVO7ginb1/JA/mgEAAOAnw4quGk2FkHQpizYHWUrnin4H6tIqc3JsXLUaV29a4JB9MAAAAHBJ3vr96B2Lj9HlZwOh6CXOHu6WoVYHAAAArsjbvh89iPcQa4qicy3FObPAfZBzAAAAP4C3fT96sFfRk3Lb53v3Ii43sQ9k2BYnAAAAcGHe9v3owU5FJ7aIaIJOcy99PPqzhJaB6gMAAADXwJ5HBwAAAMCpgaIDAAAAVwCKDgAAAFwBKDoAAABwBaDoAAAAwBWAogMAAABX4KyKXh6jfxR3PH0HAAAAfAKm6Paod1Ky9fPo+WFvff77xXxT0XW2VRJQdAAAACfFFJ107Hrfj75gpugAAADASWFFD/EWXTedy4pOaEXa+eN5tBfu+Ix7SFzZd+BeNGxxbM06mNjGp8HWEjTvVJoWgpf79Ud7vn6rPbalvb19AAAA4C2IorOU8V9IzR98+8/oVvbBVO55qqKzfOYvdXUv4tKcin8uUXsen8vEwqmuzyrqiKfqK02y9VPXwj4AAADwYljRQ8NC0qVsQmm4XImyTRX9DtSlVebk2LhqNa66iGvY3lHGmxBbdeE0sqGEPTcQ3lb2AQAAgBdz+u9Hp7L2aHsg4wubAMcye4q1qaIv7QMAAAAv5vTfj27lXtFdiq3e8gBFX9oHAAAAXsxVvh+9U3SCR43aibycQrE2U3TqWtgHAAAAXswVvh+dm0fKWpeQdTp3SXsdTGj7XNEX9gEAAIAXY8+jAwAAAODUQNEBAACAKwBFBwAAAK4AFB0AAAC4AlB0AAAA4ApA0QEAAIArAEW/QTy2ZnUAAADgIzFFtyer/QlvbikPW6cuwv7Gi6APZ7+X/Q+1HwWKDgAA4BSYopNqnev70QtQdAAAAD8cVvQQLXoJXSxKphVp54/nM4Uz7We53yuB+8XYjDsaQ9OkpHceZDkGZC/pRwxkxkId2vc8ZDN7lwYAAAC8DFF01Sz9EhYX46zoTdkHU7nHRNGN7GG/oqtnq7QMjUgoFozExSVt17UQLO0e7dC+rSi/gZjEAAAAALwRVvRQqfx9YqFkhsuYf0Q3Rfw+xxR94nqq6K7Ws69Ky29ihvbzuxmupvEAAADA53Ca70dXRHRtqDUJEXZGF2CVRHmvkhW6tw9FBwAAcApO8/3oGY0tRJfYr+g6NwYPFTrbh6IDAAA4Baf5fvSCBmeVNrygjFHyOxItD6ONuVB0AAAAp+A034++jqfpdRXnpk7RCdVxIR7Zs3cwG25f26HoAAAAPhx7Hh0AAAAApwaKDgAAAFwBKDoAAABwBaDoAAAAwBWAogMAAABXAIoOAAAAXIEzKbo9Pi7E42QAAAAAIEzR7WHs9KT1jee/N23lHmt9MuxT/+qLlr7xULg+VW4VAAAA4PyYopN6f/j3o2sMKsMeGhQdAAAAMFjRQ7zpJXQuKzqhFWm3D8jaXjDtZ7nfK7f7xZVN01D3YK3hNBHhcayKh1SHEqO/K3cTz094YAfWBwAAALwcUXTVJv0SFle+rOhN2QdTueepiu7KXb2zqNq7DR4Q1qK9lIn9Tmd4MLxUqmpWtAsAAAB4PazooUYh6VJWxXJcrr7/b9iFneLq36ry1/7qfLz7kDj13QYxXAtXbZRVdzpdUPxGOFoFAAAAXsxpvh9do6GCBWDR8Xht4C6J2eLnYoEXQF1ELHMPrSlzCkUHAADwUZzm+9FDtgkL2avcFXhj+Yxe2Ol0ARQdAADAR3Ga70f3NxJsVp2oeItyW3tBZ1ilJS/nPqDoAAAAPorTfD86kZzSDNZrddQGmj+mtz1J3ZuuieqvUQtQdAAAAB+CPY9+XkRYWUut6p/ltQoAAAD8EM6v6KzgSdFbgQcAAAB+CKdXdKL92TrkHAAAwE/kCooOAAAAACg6AAAAcAWg6AAAAMAVOJOi6++xK7PfZr/5FFl56uz75OfgyLO1AgAAAK/FFN1kKWlhfZi7lcmkra+TMX0ujQr+hNpAlV+s6HhYDgAAwIdgik4qd43vR3+1os8jAQAAAF4JK3qIHL2oZOZGrWpF2lefSk37l5paUAm2yhI2TUPdg7UKHFOQvEuwhk7xdYkVa75fjz1J91sAAAAAHoIoustS/oCbFb0pLzXsqYpuxjvvrNr+84NmCdxRBduN2HJ0Ndp1CLPSME0LAAAA8GxY0UPVQtKl3GpWlsyHSpe6tMoc+7W4wfejbzHzMG+m8tByfnfC1TT+DtzYw7IBAAAA3Mfpvx+9aGoodIk/uEPRZUaw+SKKdwAAAOBdnP770Yumci3F31u+Q9EXFO8AAADAu7jA96NbaD5m8y6jqtxC0QEAAFySK3w/+hapNifvfZxQdAAAAJfEnkcHAAAAwKmBogMAAABXAIoOAAAAXAEoOgAAAHAFoOgAAADAFYCiAwAAAFfgTIpufwhWiMfPbpKfwtMH2AAAAIDrYYpuspeezF4/j5609XUyyT7zH4Ld8RT4w//CHQAAAPCZmKKTel/j+9EL+0cCAAAAp4YVPcSbXuIDd1Z0QivSvvrUa9rPcr9XRMlcOF3Dpmmoe9BGj5Oj8h8ZbK59EVB0AAAAF0cU3WWPxdrFOCt6U15q5FMV3Yy33r3RhFyjs0JlGjYAAABwdljRQwVD0qXcaqL/yH3/v2HvZKei26/FDb4fXcO3ePKbEq5aJ4QcAADAxTn/96ND0QEAAABWdNa8FlXuopSbgpqka/v3UQm2yhz1qmUL2X6u0MYJRQcAAPAjucj3o0PRAQAA/HAu8P3o3AxFBwAA8MOx59EBAAAAcGqg6AAAAMAVgKIDAAAAVwCKDgAAAFwBKDoAAABwBaDoAAAAwBU4k6LbH4IV4nE1AAAAABCm6PbweX6Se/k8etJW7rHWJ8M+8x+C/cZT5vrUulUAAACA82OKTup9ye9HnwFFBwAAcDFY0UO86SV0Lis6oRVptw/I2l4w7We53yu3+8WVTdNQ96CNHidH5T8yYNcl/vhbcjK7xd+pAAAAAOdFFN20b/uGUm5MitiUfTCVe0wx3cge9iu6y3HjPTRaw+OKeM8x87C0NGK/UwAAAOAUsKKr9FEhJF3KppSGf5D1j+ibpn6TneJqvxZ38/vRZ+3erNWdTgEAAICzcLnvR4eiAwAA+JFc7vvRtzjbdig6AACAS3O170fXUaVs41NUeTkAAADABbjI96NvuJwTqUd+Sp+ialaXpgAAAAAnxZ5HPy/lMzoAAADwM4GiAwAAAFcAig4AAABcgdMrOgAAAAAIKDoAAABwBaDoAAAAwBW4uKLf8TTdThb/fi8ux8/FLeLRHoX6rfXbXOz3DOqfT3j0/u5/lvJDOMt1CAB4Aabodhv3Z2XQ3vzy916MT77tZyfX9w/uxUmqaLdVnFk8D/9LfMHNOA/xdsF7qqJ7qu439aj87LdzlusQAPACTNHp/v7w70d/LN8/ee87SWe4sWNpjD9ib/URN+M8xKMU626Koh/i5lzK1DdX96j87LfzCdchAOBDYEWPQyGfaOWkiHNh/S5eZx06c3ceXhFAEBM1bHHc/MwgWvLErTFIvbw25dYSPD/ZbTNeu60iDONRPNl7k0ZEpq0ubPG7tXWcsplGMVXYgg+WeWPLX390kn97vfRZPDGjiWdGCnNzsYXU5ZmG5AVbh9kZ57l/e2QXs1HyacPiXUIeakhUs/UetTPD7cS8ZgmEdltF2Fx0lj2oxgIA4CyIovttHMcKN6YTpykv73k7kdzIHtSnVebk2BRq0JDEpTkV/1zSMYTGaxVn6JQaY2QuD7GV8ij2xeFx8YZforSblYZpegNxZ64DMhUt3K8Jmccp5SZXN6EZO/MWEcorTdJ113i4InHK7DHZPptrx6tdqwjmQIaNr4e2RSl2YqZW3YxZ1OCJEo/WtKzM1nvUzoxiX9JNRbNDqBurJEq7WWlo7AAAPh9W9Li388eUOCkMv/n7I+Ob7Dy8OBw58tIrx0FdXJImHpaWoOg4qzi90zLRzU+XWU/kfX6JYftNdxke2/rq8XA65Uhx9km4ST9llrcIwBv4NTfY+C5vhWrfzWqVUHNWEcITlYf2uc0lUClRERG3VcNxib+NR2taVmbrPWpnxs18ardVEsP2smoAwLk4zfeji2Pq//fPF0GRUER2cmmgOqxn2BvLDGS5heZkLLzrJFW/w9jqEnhIpxweZ2nPtHaaqPbnLfyYG3nNDTY95W3oN+bL8N2KPr8eCHOU7PRmS8u2jhJ/O0xrWlZm6z1qZ8Yin4p2WyUxbI9VWh0AcCpO8/3o4pf/uZDU/PcXzZCqHD3DsykY9vZO+6NwzXtPUtmEzTuh8cSiPJxuH7eOZvxOdLJVhFnewo+vzNzVeLxbqz1lQFjRKqH9VhH6lgz3dgEP1tX6LXnb4vdmrQ7sTNZ71M6MaqfbDu22SmLYHuFZHQBwKs7z/ehs+e/XF/9TMcXMJfeigeqwnmFvXk7A65rbKZT89HNnUQ3b3djepBGRaavyRlo8WtYFLuIUA8ec8pR9eYvrylcWU6fxDImJXJZllQDUnFWEviUQA3XJEaLVheyX4InuN2KWIU08NieZWqz3kB3FdjZFezOf2m2VxLDdjVW/AIBTcKbvR5fDjI8bO9f8PNJTSMtBjZ9IY5peb69TOpuZ2eCZ3xvxcOfhk1TywLm2qmRFiEcRTdE32kXlvj270FibLVnXa6HFyvg1GjbaeIZsM2i+m612CDelHrWciZCs7kzHp4Tmicnz7e/dX6z3kB1lpugbPniWn1m7Ip1QdADOij2PDsBrUEUh0bD6uynvih7Op60XAHBhoOjgpfw0hYOiAwBeBhR9RfNz10z6QSU4BBQdAACeBBQdAAAAuAJQdAAAAOAKQNEBAACAKwBFBwAAAK4AFB0AAAC4AlB0AAAA4ApA0QEAAIArAEUHAAAArgAUHQAAALgCUHQAAADgCkDRAQAAgCsARQcAAACuABQdAAAAuAJQdAAAAOAKQNEBAACAKwBFBwAAAK4AFB0AAAC4AlB0AAAA4ApA0QEAAIAr8EMV/Z9//v3z97///v75959/rOlUnD3+pyKpEb5+WxMAAPwANkVXjdgpEqYodGTuGvz7Sw5Ygsxb60Hco/M9MTuqiLSAuyP/DjO/z1b0/mJY5z/t8HsS1cPhdor+rn0EAIAXYIqu5/XXlxx4t0RCju+/f/7Q/3cpOg2ncVQQJ+xA2w+hEepxbOrywk9g71KCd/ml/P7985v/55tlV4juY5t/qWwj//3zdd8WPxYN1yoOFB0AcGFM0fn4o6NOD7ylSMtpzkIuur5L0YOsykcpc63i3jkW5Vb8BM9V0onvihWW2BC1b4ODNGvo1wQvoUJIrTQq+qis44nNjqd04Xfr2hF/dGU0nhluil8iyGjUqlaknT2uDRbULFsQxnng8Mfxq68SD0eRphARodKYULx3aB8AAE4HK7ocaHIcdsfigrsU/fDpH+ixq6e/2tEyoUb78ppy4vuxzuunaukls+EumPmNco6ZUAfiIXrMV+SE58qAqPZ+lRLhIv5ZPDNkFO9svh50rsbZlH0wz9wHzxjlIeIsZfWg5SDHwNUUqjKcpaOs4gxHAgDA6WBFj2OuPxYXuDofOMp5xm77BT3Bg+0o96Ctauf8bRflHF8rhNa0rMz8FjvZC5fdZpke3PQbZMvELP5FPDNiTA6y5D+M8BA2XxeygA35Grd3DckXt1vUXBXH1cV6vwjttoqjo6ziDO0DAMDp+JWPwv5YXMCDj5yDcm5uR/ZR9ATX41g9W7vYbTEvbVcNlTvTib9WCK1pWVn4jfByzETxGFRTS79BsbaIfxbPkGInAijtZkiFmJutfQ9qyCpOTQLDDrR36/SJi/UqQy+xnEJvHwAATscvPpA74qBccOgolxNzO6DvIKuRnv4a5OzD7k3Kib9WiF4JFn45MUFyUTwqeV1cveU32B//LJ4hmtsGsVPtW22TdG3fQ4lc2bOPGoPOXe8XMfSio6zSke0DAMDp2J5eI/pjUc9rObHrUesnedM+HC9t48N6Yb+gp20cx26SZ2kg2r6fcuKvFcJ8t0EO/cqKxsspHhXNgPq1bNzyq+yMfxHPkJho1YigtZ8Di6C968bvupfIA7Yzas/kuTFeQmvyRgy95LCHlFn7r08AAHg79yi6NiW23n68t2RW42cURddDnKZF18ZSFepgQlVB2tUgVymulIpmltuf+a0OcvsotpSheGRs6veO+GfxDNF5VnGzYqk1k4Ikcl+ePkQDtUqiuhiuN/lNPV+/qSxddTyRfDW9t+wTUHQAwIloFB18HxEIlgWriiSE0L6eT4sHAADAk4CiPxhRzKSgraC+nk+LBwAAwJOAoj+e8mPc//d//w/+w3/475L/2T0PwGcARX865QjAf/gP/13mP7vJAfgMoOhPB3c+ANcD9zX4QKDoTwd3PgDXA/c1+ECg6E/n5p3/u31g7EPIT3X14fEv3PEv2D39N+z06bKbv5z/snhOxLaB7bOCs3ZwCCg6+EBM0e34Tmfijed0+Teojf64zyzstB2bnTJF2/1gj/DsCOfy6DQvbgUfP7L/PJ6h6L6E5jnptCfV4NbVJWrIzYfcXqagutJTKLo/vM7s3NDhPj4WTZ9VErP2H8V38g9FBx+IKTpd10/6PmydqwfcwE53puTxGQ8nwrMjnMvL01w7rTK3/zwerugiHKvvpy96rMMpPyX/C0q2e9Y5fyAac6xlxsviWUAhaJx+ie2IebmPD0HTZ5XErP3n8M38Q9HBB8KKHocmvYS0lJM07v+bn94KRUGtIvdP2MzM7Hs41v4NRV/Fb5o3t3YHceebcSdiiAh9gLjnIhd0TFSlg/Pg67ix6pworrZmZ8iwgXH2GUg41jFitl5Cgjc0zhlqRP4mXAzf7ByKZwhH8vVHjfu3y4shT8E2bGveYpYJNVE6KMYMkTE8cb2PhVnetmYJ0loFXYZVEn27rc1p9iuWfTzDn8l9+c9A0cEHIoquN7de3H7T6j2sd3VT9sFU3oPO1dNH7544idSSljN6PKm7oPjNQpXD7tFOqwhD+8ozTq648xfrFYfi2gfkvBH93MVJlHOVh6mH2doVH5Kx6WpJh61zrvQxKxIST7b6EkuLx5xtHo1niATDxuWVTKiHqaJzmXuk4gUdE4RKWH2Jj709WEYO3KmBvqzkjGX69tlIwnbBM3Al9ue/AEUHHwgretzJjUz6SWr4rX70Bih28jHXOmi6xIu1WotG6X6/o+hEb/95NIqelhBIhL+105qEWFdRF0WWUK3FsmLJZsRybaViqqdkm8gJ56rHptUhy/XWHZlR1p5ycjieITHRV8yvuaEM06oM+vpKb7kyNHZ/MGx5lKUeDcEqTs2DL0OrhDZYJdG3c8u+SK7E/vwXoOjgA/lVTq44NUo7V+SQOnoDxBFJZZ2q7YQ6sMoIdWZ+LRzzmw8yL45D0k6rtGT71vQE8p3Pi1DSwiUIwpYTxBp57V2QEvt0I7STCrrEMF62dUbJNlHz76FpdUa/3p0BBGV8+L0vnp6Y6Pb4NTeUYVaV3qHH6LD6LdhyWsiMEk+ggbQ03nWaVRLD9s3YaMol2Zn/Hig6+EB+DU4EOafqiWY1wu4Abb9JHJFcFl8xV01qeYbPjnA8Hj9iudyetgXttEpH2Lf6E+jvfNMDX7uFz3mtkWgXje6XsD6JIicl5zvXW7JNlBY3c8OOktebr4c9xMZbtVnXnfFkwqDbC0tjv1rVPt0BbVG4XcZZfQfrfQwiMKs7+UYYoqFaJTFrJ9TXrPdi7Mx/DxQdfCC/ylG1HWjtiRbNVOZbIB0i+3/XneC5bkcdaPuMLRy588JOjqcsoaCdVunIdgg7y+bW7mB45+e1R4ThW9sJTd5f+RUea3IWJ1E5kS1xMlInafsC3/wUSdpHcX0sS2pvK08i7ynXYez1N+MJwqC5SWYjV9K22Y/Ml3e3UuNBWt1JWLP6HIliMDLiHKLrskpi1q6UXk3LfRn+cPbnvwBFBx/IL7qe9fxS4kSzezhob+bcl6f35COSqzJTD8HWgY0pbrNfPUCN3J6amdRF1AXO7RPPOLn0zl/kM0eogzaR8HxpVSnL1fOo2G+WnLvmh3hGZtRjbjND1jXoeZYW6yVyXw61R+1sCUl+D8UzIwyaG3nVkNIK0vevS/abeGwDpNRQE1joJtwYT2wRpbzVVMsW10biUHubTOttG8/OHfnPQNHBB2LPo4Pn8Z07X0/S0A8AwIcARQcfCBT96Xznzmc9v9YHIwCuARQdfCBQ9Kdz353vPwM99pPAnYx+RCzs+5l8cB47Xw+xf5RHrQt8IFB08IFA0Z+O3vn4D//hv+v9Zzc5AJ8BFP3plCMA/+E//HeZ/+wmB+AzgKIDAAAAVwCK/iM4xdNH/qsDD/hn5qeu94FxAgDAAzFFt4dR0wl44/nU9Bs/1GOtIxZ22o7NTpmi7dK2/ZqY/M4R2+KyFbfwiOJW8PEj+9fmqMJpRq3yWnSfrXIvR9d7Bw+J8+xsx8AzUw0A2IkpOh1P+H50EJxd0V/AWeJ8Hiznct+V+xoA8C5Y0fWGJLWklzjHo1GrcX7pAznRfpOioFYR9Q2bmZl9D8fav6Hoq/jtbJpbOyOyJCFl2/eXsyFYMrfBQZoVo3OKaArVYqJme2Zf2ezwVjSp1mlWWWKb5cSebq2tnTKeYN+Pi3MWD2FdKWlnJ9+AXOX1NakDALweUXQ9nPQPWfqh4yddV/bBVN6DziWrUuYTUsuEWtJyRo/RfCASxe/dik4M7SvXO3mDkm1bqeew9PZJIzhvPiaX1ZAmzXfbP7eN7FM5ks92ZLhWiTxyzXpk3xsxt9cklx8SZ98SmJfWwqmRW9nuR0vh5J4CALwMVvQ4iRqZjNtU8aMq38l7KHbyPd86aLrEi7Vai0bpfr+j6ERv//LELiu6L5HzksM+aTnhXE3bwUWfG8PW9oO+vcS5gEd6DD3FTokneh8YJ7ewpXE8F8MSImuWtypNGgEAbwHfj36pT04LSrbXStYnTYYXeAJ1DfdxYb+aavM/tDZjs9RN6e3wZktLviYfG+c2Y/cSToreOnENlDQCAN4Cvh/d7Fv9upRsL5SM6JOWE14olpWZ/Xw95HatEkNra9RmmdXbIVcb3vWMOIfxXAxfoufNsrXlBwDwevD96Jsdws7iubXzUrJd9rfksKRF4Q0Y7VexrMzs53eEWi6OhtZu0s8qLeKL3DYrIp4UZ+edG/qUnhpOiq9Ik6XtAIB3ge9HbwZf7+St+0jIyavtvZJZNc/yk7qa8nY1pOVgYT/tVzwySbTGiaVC1PFhfG6ndkj7o+KcxaNYb9t4dpolLzcLAPAa7Hl0AK6NqA8rqlVFrkPIAQDgAkDRwY9AFDwpeivwAABwAaDo4KfQ/1jcOgAA4BJA0QEAAIArAEUHAAAArgAUHQAAALgCUHRwgLM8hfXUOLd/j8cjWwCAT8IU3Z4sTSfgjedrt0d1ucdaRyzstB2bnTJF26Xta//fjCtuBR8/sg/28FSlJHQnrfINnh0nodejVX4k6QzATQTAR2CKTscTvh8dvJ1HKfoLGF69PxM83A/Ah8CKriJHNyS9xHkajVqN8+vo3VsU1CqivmEzM7Pv4Vj7NxR9Fb9Gu7D2k5HUCGnX/DrhrAq+KTfaLb2xd5vx4JZelklhc2ttLfRO+HqaxKlEq461VkGnWUWYxUNY13WvK91GqwAA3oQouh5OdLj58cqN3lrLPpjKe9C5erermsadr5a0nNFjNB+IRPF7t6ITQ/vK5U/e71N2zTLmexG93m555opkNV9LPKzdu36zFoSvIX0v73uKTR3N4tdyxMlzU5xEb79vCcxLa+Ey+JZecGkAnAtW9DiJGpm0k87xo0pE+cDdW+zEEUm0Dpou8WKt1tKeGt9RdKK3D3YSV4ui+xt7F3tR27eO8XitDjdrBhtiS+N9X8cZvet4gr692Ce4hS2N47kklBVl/64BAJ4Hvh/9sp+cnkTZtZki1vatYzxeq4vNGsK2lO5CKnESvNnSkq/JRTzSk0hxEr19YpvRdV2byC0A4I3g+9HNvtXBLcquzRRxfv2Mx2t1vVkz1GaOilA3VhHI+IZ3reOPYPprrLcfDOO5Nut7EADwGvD96Jsdws7iuTVQdq1cJ7EXpZ03z2dFWZOds80NdyW/REWUFrl+KJxqeR6/hsntWi6B9R4znXduuG9pn4+tbp4NAMBrwPejN4OvffJ+h3o9EHKCa/tIEdvxWd62nq/fVE7ZbmYtFaLadyOzOInasYzfyga+H71S1ksrsw4AwPuw59EBeCxFKd+OhMOKalWR688JDwAAvg8UHTyFj1N0VvCk6K3AAwDABYCig6fwaYpOcEAbkHMAwNWAogMAAABXAIoOAAAAXAEoOgAAAHAFoOjggjz1abHt3+OXz9cBAMCLMUXXAzCfgOV503I4pkd1ucdaRyzstB2bnTJF26Xta//fjCtuBR8/sg++g+6AVb7Bo+w8VdEVvR6t8lPxW2m7MQEAb8QUne5LfD86uJtPU/QXMLx6fxTytv7vnz/6YP/0BAAAvAxWdBU5uinpJc7TaNRqnF9H/zRHUVCryP0fNjMz+x6OtX9D0Vfxa7QLaz8BS4JhOS/XQ+Q8DzXsOtHxnG3BN+ugnQVlUtjcWlsLvRNe2yROJVp1rLUKOs0qwiwewroudF3JiiR/nKOaHADAWxBF18NJb04/dPyk68o+mMp70LlkVcp892uZUEtazugxqu6C4vduRSeG9pXrnbxHyftFWMX/+mkkreS8T7Jl0vN8t50FasgqHX0v77u05DV6nBwEVfMsKkecPDfFSfT2+5bAvLQWroHc05Snq60LgDPCih4nUSOTfiIbflQdvYGLnTgiidZB0yVerNVaNEr3+x1FJ3r7QJnlWfcx9qjkvE9yHX+vnQVsKIVaUDdW6eKJ3nU8Qd9e7BPcwpbG8VwVzszPWzUAnwm+H/1HfyLvKcnc8t5eD2VYn+Q6PiYctLOGbSndhaRurCKQcW3RGNTRIh7pSaQ4id4+sc1YXthXgjPG+dsyAwB4F/h+dLNv9R/PLM8L5SP6JM+vn2N29qA2yajVBXVjFYGMb3jXLB5tj2D6a6y3HwzjuSqcGc7flhkAwLvA96Nvdgg7i+fWLs9iv7gs+6VJylkqaSTK9RNzc3mPnZ2oM6sIpUWun4HwlDjjWsrvXLVcAus9Zjrv3HDf0j4cz9PV1gXAGcH3ozeDL3zy7mea5y11t7/XvF4/Wd6O2JlR7buR2k64ndqR4uwV3coGvh99QLntOBEXWh0AZ8SeRwfgsRSlfDsSDiuqVUWuPyc8AAD4PlB08BQ+TtFZwZOitwIPAAAXAIoOnsKnKTrBAW1AzgEAVwOKDgAAAFwBKDoAAABwBaDoAAAAwBV4s6Jf8qmeTH4aiqtXXy8AAIB3YX8FduO1YvNshVM9tco7eLGiv329AAAA3oUpusqA6c3yL3uci09T9GcDRQcAgB9Lo+iEVVyBSCEMb2SJ+vrDws/Sr/3cx136hsCwPyDl5s1grm6j03sINTL8vurWPrN4OKoOJZKX/etaxLNgs0+4i+F6CWqnIdFLZesYxalwtI6OX6x3uC/E0G/eoL4KAADgYymf0VkotExwxVUhyqolJAvySmN5OqtEskO4EEzbtUrofKts8sODqJp7txhamwtoSj8s7OTyel3aRcPMcYq/J9tnc+34vCLFHMgwXxmPz3aqTR9TUG9WERb5H/odjG+jBQAA8JnUf0dX3SJE3fmIt6oe7XTgW3M0mABE3can6T7C1CJcKNpkFVegLQx3V9rLrBkjhTu4rhJPO72n2nezWiX6yMMTlbc4ih0Pi8raoe2FvitP5GoyO/TLZSvWnAMAAPhkms/odJKH2EhzQY55P+5dKVwXvN2mJzGQOTw05ugYRdus0k7kajIb4YVTGbJCZ1tFkKkFceCOPEZzUePxcVrtiflWTfEr2m8VoW8hpnG28RQG620DyNOHfokmF23wAAAAPpb2p+5ctON+Jl35tOehPj3qNqydThXukxdtCXSeVXiiGbKqu6MyFTdGUtSjs60iHF5Xice7tdpTBoQVrRLabxWhbyGmcXpgVm8ZrLeNJ5sd+lV0EA2YOQIAAPBp1N+Mo6NcDnw+8bncK40pQiiFTV/YIXgW/3YZN2lLoHas4oq1Kai7s7cDSRr3EMFZXeDYDq4r4hnOzeQ8sE2iDUDNWUXoW5SZLx7PEQ1SYb5TV46HYJs+YOaX0El//1YvsgvyfmrkHQAAwBupii41PrC5rJVATv+Z8sl4Pe4Flw3FTKXGapxQ+27Yhrk7KtcJEzXKNF58fHW9XNdw8JptBs13s9UO4abUo5YzC9e5g8xb63S9432Z+SXMTtcLRQcAgI/lNH8FViSG5ciqIi0h/M9Dte0Fjj6Kn7lqAAA4NedRdFbwpOitwD+Pn6ltnl0oOgAAnIYzfVMLy8zGK+Sc+GmK7kmmFUPOAQDgTOC71wAAAIArAEUHAAAArgAUHQAAALgCUHQAAADgCkDRAQAAgCsARQcAAACuABQdAAAAuAJQdAAAAOAKQNEBAACAKwBFBwAAAK4AFB0AAAC4AlB0AAAA4Pz873//H2z0QclllBSxAAAAAElFTkSuQmCC;" parent="jNX_CL863BR4BcK0fppc-1" vertex="1">
          <mxGeometry x="34.49562500000002" y="1334.00171875" width="667" height="350" as="geometry" />
        </mxCell>
        <mxCell id="FDnJl6wzbN69MDGgBGXz-0" value="" style="shape=image;verticalLabelPosition=bottom;labelBackgroundColor=default;verticalAlign=top;aspect=fixed;imageAspect=0;image=data:image/png,iVBORw0KGgoAAAANSUhEUgAAApkAAAG2CAIAAAC73wp7AAAAAXNSR0IArs4c6QAAAARnQU1BAACxjwv8YQUAAAAJcEhZcwAADsMAAA7DAcdvqGQAAAASdEVYdFNvZnR3YXJlAEdyZWVuc2hvdF5VCAUAAH0gSURBVHhe7d0FXBR5/wfwu+e5/3P3xKVXKrZn63nq2YWAgQoWWNjdoohd2IqiIGJTAqKidHe3dHd3l5T/7zpzHK6gCyywq5/3fZ/nNfOb2dnZxZ3P/GZnZj+rr3nNVHVVNVVVVVXlGxVlb6q0sqSopKEK8gobV35efk6DLBQKhUKhUC2pbDZC83LzuBK2uFH4lpdWMKFcWcFEdCUT2XU19UyCs1n+quqV4kHFJuuA4oHmS0HhAAqFQqFQqLaVosI7Cft3KR6keiua9Q30KdGrKqvYLK8sq7p3757qTdWw8LBMAACAj4Kvn6+nl+dHWW5urvfu3Dt6+GhUVBTFOfXOP/Py9NLS0kpOSslMz0ShUCgU6uMoSjdPD8+PuF4YvTh69Cj1zl9Vvfrs4cOHAX4BGamZKBQKhUJ9NOXq7Orh5vlx1/379148f0Fx/tnVq1cT4hK53gIUCoVCoYS67O3tuZLv4ys7G7szSmc4Wa6qdiMhMYGp4OAQMzPLZ89NeKkXJmY+3j4Nj0WhUCgUSnDKxsrGwdHho6/jJ45XlL2d5S+Dg3WfOl+956x81+mDdVvPzRtZjkKhUCiBLDMzM67Y+yiLk+WlXFke9PLGA4t9Z43llV58sM7csPBElqNQKBRKIOvF8xdcsScUZWlhZWJsamdnx4zSAI1SY8MMXHXsxLHS4rLPbty4ER+bwFRgwMuYuISC4oqC4vIPVnZuoYenT8NjUaiPvmKjY318fSLCI7ja21i02MDAQNqT5moXqGqn145CtV89ffLM3tahubIwt7h1+5by1StPnz7lmsSvunPnztlzZ94tA30DrjkbytLc6tbNW08eP9XU1LS1tqWiARqlRprENTNTx44fKykq4c7y1LTU17ypqKhElqM+qfLx8pk4ecKdu3fiYuK4JrWlHO2dli1fdkDxQFJSEtckpu5o3NHU1gwLDeNqb7IUDyqulltNtmzecv7CORdXF4phrnmYcnf1uH79Ou3XN24Mfhkiv1f+3JlzEWGRNBoSHKKkpLR+3XpajpiE2EPNB3Ex8Y3nR6EEtvT0HtnZ2DdZlIsPHjzw8/XLycm5rXHnyZMndtZ2XPO0vdTU1AoLC9nI/AvtuOvqNrtiOro6Tg7OVZVVNla2WtpaVDTAGbW1oUlcMzNFWU7P8tn1G9fpo85UgH9Aamrq67rXvFR5WYWbm2fDY1GojikPdw87W/vQkFAa9vX2s7O1C34ZTMNeHt60o21lacU5vBQdGx0V7ebqZmZqbmFm4ers+jIwyN7O3t/Xn+YMCwlzdHDy8fThmodGmadoqAD/QFqmmYk5fWDCQsO9PL0oy/X09JycnKg9wC+AmS0qMsrJwcnczNzBzpGGw0PDnRydPT28aIGe7p4UmdGR0X4+/vSk9NQNC6ep9KE1N7WgboHsMpnTp5Ty8vKpnRZrZWlNS/P29I6OinF1dlu4YOGadauNTYx9vH0bHt5crVojJzpj+kHFg0eOHJknNVd6oZSpqWlcbBxNcnNxMze3sLW2o9cSGRF5S11DXEKMtgCOjo7BQZz3kIr2GI4ePyo5TzI4OIRGLSwsFi5ecPjw4aysrLNnz/p6+yYlJjW8XmdH55io2A++XuZ57W3tI8OjaDQwINDG2ob+TNaW1m6u7szzolB8L21tbfqcvltGz43u3r7n7uH+6tUrCtfMzExdXV19PQNz+mf6zsxtqesqNwoKCgMCAhuKPl/0/5oPNbnmbCgTY5N7d+5FRUaXl5VbWFpYW1nTAI1qaGjQJK6ZmTp6+GhBXuFnKtevRURGMOXr50s9A+Yurx+s4qJiV1eXhseiUB1T2lraK+SWP3n6JCo66sTJE2vXrw3wDTAyMtq4aeOKFStWyq3Ys3e3l7enrY3tmnVrNm/avH379p07djrYO+zavevc+XOxsTEUiqvXrqaEdnJ2ajxPRFhEVFRUwxP5+/vL75dftmLZrp27qGPq7ubOZPmmTZvWrVtHGXn27JmXLwNpzkuXL65aJbdSbuXyFcsvXDzv5uaucECBEpG6tpSCCgoK4aER586dk98n7+vrGxVFMcpZ/qNHj+ghy5YuozWfLTn7TZbn2dnbycvvpRcit3rl5i2bTExNjhw5PG36NPGZYstXLLt7725ifCLz8OZKbrUcJTHtu1DoampqTZoy6fjx45GRkbfvaKxes3rFSnqPlh86fNDD00NuldzkqZMXLVlIK2BraxsTE8NZQkS4jq42PZ2evh69w6o3VafPmO7r40tTl8gufvbMKCE2QVlZec3a1Rs3bVi1epWGuga9Le95vQ/uP6CZ129ct3bdmgvnL9JT0JIXL1lE7+3iJYtpTyIhIaFh5VEoPtbtu7eNXxi/W/QP2NvDu6ysjMny4uLilOQUzQeatFfNNWcbi56ooKDg6NGjd/9y4eIF2rDQANecjcvAwOD+/XtREVFVVa9qXtXQAI1SI9dsDcVm+bVr1+jjy7xy+sTGx8ZUlBXxUgV52chyVMcXxcPsWbPPKJ0J9AucLz1/x67tyUkplNOzZs1KTkyhHi11RtVvqlPsSS+QNjU2S0lKjYuJz87MoX4qPTApIVnlmsp86Xnp6enamtqN56HPA/UsG56I+o6z58w6dfJUXHR8fEx8eUkFc4z9wIEDCQmJO3fvXLVmlbeXt42NDaXd6VOn01MzFA8emDN3NnX09+3fN3P2THquBYukJSUlE+OSaFUpQdPS0iggaeE+vj7bd2wTFROldaau+ew5nCzPzMqkj7q4hHiAX2BURDR11o8dO+bq5rp82fKt27eGh4fTRodWm1k92vN++uwplYOjQ3h4GNNIxWS5v19AfHxcaHAorfCePXsc7Z2kFkitXLEyNTmNdvBFxaZTL0RTU3PW7Fn6BvrZ2dm0xaH5mSU4OjnSQlatWkX7DVu2baH9nvz8fA8Pd1qU4WNDZwfnGeKil65cysnOVTyoSIt1dnbaK7+nydcb4BewYOGCDZvW52Tn0PPSLgKt7f0H9zhv40EF2tvIzc5LT2NfEQrF36LtwLMnRu/W6ZOn6d+2i6tLaGgoZbn6LfX0lAyth1r6jwy45mxjXbxwKT+/4MjhIw0tZ8+c9fX1oz3ghpZ3y/DxE5UbKl5eXnVv0ACNUiPXbA115PBR+jB+pnz1Cn3gaT+aysvTJzIqurCwgJfKzMx0dnRhHohCtXcFvwyhCg8Jp2GKPerqUZyISYg52HGOD1MXc9vWbbSXTcm6bPlShf0HgoODKAvnSM6WkJDYt18+IDDgscFj8Znit+/c3rRl04ULFymf7OzsuOahrnnDMwb4B1Dczp0nOXPWTOpw29vbubm7Ugjp6+nnZuVRN3TZ8mU+Xr60CRCdMV3vkR6lrJqq2gzxGQZ6j2/dujVNdOqTp082bFi/YeMGQ4MnU6dP0bilkZmeSa8iLCTMwZ6Tl9S1pXW2tLSUkV1CL4qSfv/+/dRZpw56QEDAzp07N27YmJyQIisru2fv7uiomMjwqIbVM3hsMGvOrDlz5yhfUQ4LC2toZ7PcJyA2Os7KyoqTmooKJsYmlLX0FIWFhfr6+pSpVy5dsbKwnjlLwsLSPDUpreHhVKEhofTqJk+dZGJqIiYupnH7Fu3luDpzXvsTw6faOtoTp0wUk5gxd/5cKtllsvQnUFNTa/L1UnJLzJKYPmMaMzPVs6dG9AbSovz8OV9Vcra5jd5zFIqPdU3lqp6+3rtFG4EjRw8fPHiQOgaU5fv37adRikLdR7pcczYuVVXV48dOUBg3lMJ+Ba55uOrc2XO0nTmoePCh5kOmzihRlvvSorjmbKhHeo9uqN4wN7OoqqpKeIMGaJQaaRLXzEzRvkJOVg4ny4ODg5k49/LyDo8IzcvN5KXS0pIdkOWojqob129QNvj5+dGwna39fKn5FAwyMrIV5ZUUe1u2bp4nPS/Q/+X9+/fnzpekORPiEizNLY2fG+/atZNizNLCMiQohHKOHii9QMrezoGC09Pdi2ueN992s89InWNLCysKvOvXr0vOnaN6Q83bx5vJs/i4eCbLfX18zc3Np82YdvLUSXdXD/l98pSvFHvW1tYSs8QXLVl06fIlWvPFixfT8p2dnKmvf+bMWUo4Tw/PzVs2z5Oa5x/gf/vWHbZfnpmpdEZptuQsFycXU2NTpl+enZVDeyrrN66zsLTw9ea8fKY4hwSsbbzcvWOjY5MTkxva6TXOnC3xZqOkv27dOur6GxgY+PsHzJOaSztAtPNx4cIFWuHnz17QmzBbcrbGbQ3qoLwMCGpYAhVtISjv6SG0W+Dh4ZmYmNSQ5XbW9jPERA8eUnR0dLC1taX8jomOMTMza/L1+vj4UAddbvVK+zdo/4N2O/T1DWhRtF9CD2z8pCgUf+vCxfN6unrNFX2uXZxdSopLDxw4wDWpyVJRUfH29qbsb3Di5Amuebjq9OnTlOW0i9BQz188p4XQorjmbKjbGrfv3r9bUlISGhaqfE2ZigZo9O6duzSJa2amjhw6kp35JssDXwZSUefG3d09JDQwMzuFl0pKibNzsKdHoVAdULJLZbdu2xIQ4B8SEkIJsW/fPsoDSu7i4uKXL19qamnKyMhQj5biZPvO7YkJiS+MX8it4nzlvGjxoq1bt8bHJkRHR9+/d58eRb1hGo6IoMTSe3eehmek7NmwaQN1NCkCaeFeHt7BIcFMnkVHRjdk+cuXQSdOnaD0omenEFW5rkLpGxjwUlpaeoa4KEWd0TMjMfEZUgukEpMSr127Rh1WG1ub8PDwO3fuzJozc+WqFZs2b2K+L6edaxMTE3rGFStX0MJXyq2gj2R6WvqVK1doF2SJ7JJnz57RAxvWMCQ0JDIikooGGhopOKlLPXfeXGkp6bVr11KkZ2VlRUZFXlO5Jr1AmlaSdiCOHDuSm5NH+xP0qudLzdu0eaObmxt1xxsW4uXlRU9HL3bXrl3JCSn0pI6OjsxrjwiNOHfmnOxSGXrfaFV3794dEhTq7+vf5OulB95UU1+4eMHGTRupaN+C9re0NLVoUZxjDGF/vxYUiu91/tx5LW3N5kr9lrrqDdW7d+5dvnSFa1KTpXxV+erVazraOg21T34f1zxcdfLkyXt37zd+CBUthBbFNWdDqamrqaurOzg4UEdc444GFQ3QKDXSJK6ZmVJUVMxMz/o7y6lc3VwDgvyT0hJ4qZj4KFs7m4bHolDtWpRqlEmZWZlBwUHUEVe5pjJr9qzU1NSExASa6k/8Aige4uMSioqKcrNyqQdPfc3Q4LD4mPiC/IKcrNyQ4BB3V/fJUydToGbnZNNn3dfP9915Gp6RFklRHRkWSemVmZFVXlIRFhJGjWVl5TFRsV5envHx8fRclKN+fr7BL4Pp2dPTM0pLS5MSkmj3wsnJiVa4qLAoPDwiKCgoOzu7sKCQdslj42LLysqioqPo2X29fcOCw3JzcpMSkzgrkJlLL83fzz8iLDI6MiY/Py8/ryA0NJSWTy0Z6Rn0QHp4wxo2Wc4uzhmpGdTFp2fMzymghcfGxL4MekkLoRyllUxOTqGVzEjLDAwMpOdKSUrNys6i3kNYeNi7yykoKMjIyAgKeukfwHmPmddO721wEL3usIT4hNzcXHqZISHBTb7e4OBgP38/2rOhRuqFcxoLC+k1RkRGVFdXh4WEN35GFIq/RaH5QPOBrvajJktHW1fzgdbD+5o6Wrpck5osbU3tB/cechXXPFxFy+eanylaFNecDUVrdUtdQ+2G2sP77MJpgEapkSY1zNa4FA4o0MeZO8v9A7wSEiN5qajoYFtbZDmqE0p+r7yUtJSqqmppUVnjdkpQTlcvJLihhbI5PCKcMpiGNW5pyMrILl+xLDwknDru785jZ2937/69hrJ3sH/51zKpaKDhIU0Wsxyuxg8WpWxo6N87EA0VFhreZHsbizor1FemJ+Vqb0U1fm8/WMzz0oviakeh2q/0Hunf0lDXN9D/uEvhwP6MtIy3stzF1cXWztrN3dGVh3J2dbS2sW54LArVYaWnp2dlZZ2elkE9YK5J7ylzc3PDJ4bUC6eualhYEwlkYmpyRfnyddXrTHl6ejXeLUChUMJV7m4e6urqhgaGXCd+f2S1X2FfSkryW1nu4+NtZ2dvbWVjbWX9wbKxsffwcG94LArVYUXdyujo6MjIiJb2LyMiI6KjY0Ka7+9GRUUlJMQ3VFBwENcMKBRKiMrUxExLS/vp06dGz4w+1qIsT05+O8tRKBQKhfpoyt/f38zUjLLczMT8Yy1Olichy1EoFAr1EVcgp3fOdTL5x1TIchQKhUKhhLsoy5MSkOUoFAqFQgltIctRKBQKhRLuQpajUCgUCiXc9XaWkwDUW+Xp5cnVgmrX8vbxDuD8xu9bjT4+PrZ2tmZmZqbQgcwtzN1c3bj+FigUSrCKcGV5gB+Ku6xtrLlaUO1ajo6Ovt5+jVv8fPwtzS0dHB2CXgY13GMZ1QFFO1UvXrxwdnBu/OdAoVACVZw4R5Z/sJDlHVzvZrmnu6eJqUlZWRn7s0TQUerr67Ozs+/cvdP4z4FCoQSqBDTLNYz8HF0D/HwDuNpbVH6+/pQH7yl/X3+uhzRXyPIOrnez3N3Vw9TElI0X6HBXr1xt/OdAoVACVS3Ocj8fP67imoEvdUzT/ZZ5xGNrHzeP1se5k5Mj53eZmkGTXJyduB7SXCHLO7iQ5YIGWY5CCXI1keW+Pr4+3j5NlpmZ2TOjZ43rxYsXnh6eXLO1ulzdfQytvG+/8Dpwy809qVjHNUH9hZ+dszfXbDyWg4NDYWFh5RtlZWUlb9AA00KTaAauhzRXVpZWXC1NlpeXl4WFxXOjF8+fNVvGxsZOTk5cD3xPfZrLtLez9/T0atzi7OyMLO9EyleuNv5zoFAogSr/AH/uLPfy9vL0og1pE2Wg/7j0ba7OroRrtlaUq4fn7afuxzU97zsmGAfn2UYWuqaWGYQU6vllnNby0jX14Jqfl7K3t2vI8qzM7MT4JCoaYFpoEs3A9ZDmytLCiqulyTJ+buLp6ZmVnp2bldtcJcQlmJqaOTo4cj22ufo0l2lna+fu7t64hXrqyPJOpHxFufGfA4VCCVRxDkLzmOWPDR+bmZjV17z+u2pf+/j4PNZ/3GwZPuZaSJNl6+RxSdfrpk2cWVSZXlCZhnehimv+ZZe8Sy55D/yLNJyyFG66GVq2LM7v3L2joqLCZHlxcXFUZBTzHTkN0CiT5TQDzcb1wCaLxyzXN9DPzysoL6l4T5UVl/n7+1tZWXI9trlqv2UW5hXlZuW9Sdm8ksISWk5eNjOaSwOdu568ZHl1dXVocJjK9WuHDx4+ffK0gYF+bm5ufX09Oxn4ClmOQglytSDLtbW03wpyHkpHV9vTnXs5XOXs6qFi6HXPKU3bt/ied+EDj7wHjsl37BKNQktvOmdfMY65oOlpZN3ifrmq2o0LFy9QYJeVl4VHhFtYWrwwfkFFAzRKjTSJZqDZuB7YZPGa5XoGJcUltGRGampqIOdbjICw0DC2qbCwqLAoJDjU0pLnjHx7mU1q3TIdHZ2srawpNU2MTUNCQmg5eo/0aJSKBjp3PT+Y5RTktja2x44dMzExCQ0N9ffzv33n9rlz51OSU9k5gK+Q5SiUIFcLsvzBgwelxWVFBUU8Fs1M8f/BLNcxdlExibrvUaTrU3zTMv6Svt+9p27ble007DNO6Xrffuri4NyaA+wNWc70y/18/R4+eEhFAw39cr5nuY6OTmFBYUEeWy8Dgmxt7SjL9R/pNzQW5BdSwFtYmHM9trniWmbT1apl2tnZpaWmOzs5m5qaBgeF0HIowh0dHeLjEgwe67dlPfNy82nnwNra2tLK0tXVlV3JlqznB7M8MSFR6YwSRfjrv/rhtH/2UPOBlpbWq6pXbBPwD7IchRLkaiLLPT28PNw8362bD5+p6di2qK4/NOJayLt1QN1Z0zXnrnORunXy8buONo4ebi6e2y5b7Fdzfmbp7uriwTU/j3Xjxt9ZTkpLSx3tnahogGlhspxm43pgk2VpbsXV0mRpaWsW5hcW5LL1MjCIigYMDPQbGqko3c1Mzbge21xxLbO5asUynRyc01PSnz0xSk9Pz83OpYVkpGcE+AeEBIUaPTVq3TKZlaHFmluYx8bEpSalcfZjWr6edtZ2bi7ujVsc7N7Kck9PT9UbauVl5ez4G2kp6efOns/KzGLHgX+ULys3/nOgUCiBKj+/d7Pcveksv/bAIiIxPzKllPeih3AthKuMLdwP3Xa/71x816Fwl4qLnROb3Kp6Ds5vz8l7ubt6uDq73bypfu782di42NTUlCaLJtEMNBvNzBUb75aluSVXS5NFeUZdz/ycAqOnz6lr++SJIXVPMzMzjZ4b0Sj1etOS0/NzC1qakY2XyVVtWaanh+fzZ8/tbexp4Q0VERbx3Oj58xfPW72eVKnJadQjT0tLy8zINHhs0LBw3pdp+6Esd3Z2UlNVq6ioYMffyM7OVlJSSktNY8eBf5DlKJQgl59vC7LczNwz7oUbr2XhFXfp7guuhXDVXUOHs/oRqlYFl5+nHb3lxDWVKRNL19sGjkw9N3fhmvpuUe76efv7+fqfOn1q8/ZNm7ZuXLNh9crVK5aulF26UkZ2uYzM0jclK3Py5ElvLx9vDx9TU1OuhXCVsYkxV0uTpamlmZebxwnvZ0ZvTivLy8rIzkzPZIapH5yYmJiVlUV9XzMTXjOy8TJpaVzl6ODY6mXm5OTk5eXl5ubSwhtQHFIjafV6kpSUFCsrK3o4hfoLI2OmkfC+TEtLS9rHatzCleXBwcEnT55IfTu2LSwtrly5XFJSwo4D/yDLUShBrpZk+cMXBnZR+g5xPNZTp6gPZvmtR/ZKuhGXn+eeepSgdNeWaypT5+9bb77ovUctfMtlz6uadlxT3y1DA8O62vry8vKr15Tpha1Zu2b5ymWU3AsXL1y4eAHVgkVvauGCS5evcC45Ly7R03vEtRCu4jXLH2jmZnPyzNTM1NXJjdIoIjwiOSnZ1dWNRs3MzBKTErMys/x9WpKRjZbp5OjEVbQX0uplBgUHubq4eXl7vclZVnRMtJurG2n1ejJCQ0L9/f0TEhPMzc3ZJspynpf5wSynv5qKisr5c+djY2Nf172mDrqtne3mzZu1dbRra2vZmYB/kOUolCBXy7L8gcVLTatYHkvHOvyDWX7PwOHwnaCzj3OPPEzaf62J76RdnD23nDVX0Eg5cC9nx9WA2wb2XDO8WzpaOrRlpy7g6TOn58+fP3nqpCZryrTJp5VO02xEW1ObayFc1YIsz8rLSM3MzOBUaGhYoH9gfGyCrbUtp4Xa0jIz01qekY2WyV30f61dJmV2UmKSuYU5Lbyhgl9SjzeYGlu9nkyFhoT5+vlGRkXa2dk2NPK+zA9mOSnIL7xySXnlqhXbt2/ftGXj5k2bd+zasXnr5pdBL3FlGt8hy1EoQa4mstzJ2cnB0eHdUr77/OZTfw2zMB5L/UXAxTtGXAvhqufm9huUrE9p5xx5kLHyqLmFtX3jqXYODuqPLDcoORy4nS2vlrL5rJOxhV3jGZqsu/fu5OXlxSfEHzx6dNToMX/8MarJGjVqtOIhRZqNih7CtRCuemH8gqulyXqTZ7npKRlMUZ55+3iHhoba29s3NFKkUZ49N3rO9djmimuZTVbrlkk7bdHR0bSfYWFuERoUSssxN7WwtrYODgm2seIEcFvWMzoy2t3V3c3F3dvbu6GR92WamZvZ2b/1t7a0suTKckZCQoKdrb2Pt8+riurc3JwDigco1Ol1Ic7568qlK43/HCgUSqCKsobXLFd58PyKrucNo9Brzz5cKkahyvq+ynefci3k3dpwynS/asI+1aytF4J3XzDVe25tQxlu72Bsbq+iabXlrM2ea0k7r2buvBJ1XM3G2vatsG+ybt3SSE5OCQ0LVbt5a9de+V3yzdTevTduqvnG2wZHBNJDuBbCVS9e8JTlD+4/yMrITkhMYIoShTmVPTgouKExKTnJz8ffyOgDezkNxbXMJqt1y/T0oF05//DwcH/fgKCXQbQcOxv7yIhIWltba7s2rmdaWlp+Ludkt8yszIZG3pdpZsZrlnNJTEg8eFBx48aNQUEv2SbgB2Q5CiXI1YIsv3HvidI95wt6geceNV/abF14FKj0wPnKbQOuhbxb6jpWq4+5bL+YvPViyvrTgZtO2+y9YLTv0rNdF6w2K3lsvxy17VLa3msJ28/aaD2x5npsk6Wqqkq9zED/QCpfX87d5d9TzqHGfoHe165f41oIVz1/xlOW37t3jzKMEouJruTkpPT0NCrSkGc07OHuwXtGci2zyWrdMin2YmJioum/mJj4hHhaTlxsHI1S0UDnrqeZSSuznLrjtPL0D/qM0hm2CfgBWY5CCXK1IMsv39Q6oWF19Ykfj3XyrtXZ61pcC3m3LG3sFZRNVh/13aAUs/ZkzJYz0dvOx247H7P9QtzmM/GbzybuvxG3+ojl5Xsmdvbcj22ylK8qX1O5ypTyFeUP1tUrV+l/XAvhKh6zXFfnkbOzU2ZGVl52fnNFSWn42JD6nVyPba7ab5nZmdkNl33n5xTQchpGqTp3PVud5YTivLi4qLCwkB0HfkCWo1CCXDxnuZ3DzdsPth66tOXghS2KPNTBCzTzNfUHnC+9uRb1dtk72Bs+s9x0XG+FovP6E2Frj4WtPhq86mjwupPBW8+Fbznru3iP3hmVp5bmVnY29jQz18O5y47z3faMWaJz5819bvR85Uq52bNmN1k06fnz5zSbqNh0ztfh711PXrLc3tbh6dMn6rfUr5NrzZaq2g0tbU0rCysH8s5CuOqTXSYny+3eznJLXrMc2gOyHIUS5PL2fifLHR2caNPcZNFW2MTEhDLyg0Wz0cxcD2+yrKyszUzNtPWe7j6tL3fg8QpFC7mDdnIH7eUOWa0+aLT+8MPLag8f6xvSMmk2mpnr4e+WuZm5kpLS8pXLlU4r6Rvov6eUlM6sWLmCZqaHcC2EqyjLuVqaLFpDHsvGyobrsc0V1wPfUx/TMk2NzWyt7Rq3WJghyzsTZXnjPwcKhRKo8vZqSZa3U9lY21pbWpubWT3Ue37t7pPzak9OXdc/r6Z/68FTA8On1GmmTjnNwDnz7Z3HNlk051PDp9dVrl+8dOH8ufOU1qdPnz5x8jgVDdAoNdIklWsqTwyf8LJYHrMcxa9ClgsaZDkKJcglEFneUHY29kzRdpyqYZRrNt6r8dJsrGypGi+Za+b3FLK8g+vdLKf9OVNTk+rqajZboAOVlpaqqt5o/OdAoVACVYKV5QJbjw0fc7Wg2rWeGz2nHa/GLXY2ds+ePfP39y8oKCgqLEJ1WGVlZT1/wfnWrPGfA4VCCVQhy3kq4xfGXC2odi0zU3OufjmVjZWNvr7+ndt372jcQXVY3b9/39gY//5RKIGuJrLcztbO2soahUKhUCiUUJSnpyd3llvbWFtYWqBQKBQKhRKK8vD04M5yMzOzF8YvUCgUCoVCCUW5ublyZzlFvKmJKQqFQqFQKKEod3d37ix/9eoVeyUKAAAACLzk5CRkOQAAgBBDlgMAAAg3ZDkAAIBwQ5YDAAAIN2Q5AACAcEOWAwAACDdkOQAAgHBDlgMAAAg3ZDkAAIBwQ5YDAAAIN2Q5AACAcEOWAwAACDdkOQAAgHBDlgMAAAg3ZDkAAIBwQ5YDAAAIN2Q5AACAcEOWAwAACDdkOQAAgHBDlgMAAAg3ZDkAAIBwQ5YDAAAIN2Q5AACAcEOWAwAACDdkOQAAgHBDlgMAAAg3ZDkAAIBwQ5YDAAAIN2Q5AACAcEOWAwAACDdkOQAAgHBDlgMAAAg3ZDkAAIBwQ5YDAAAIN2Q5AACAcEOWAwAACDdkOQAAgHBDlgMAAAg3ZDkAAIBwQ5YDAAAIN2Q5AACAcEOWAwAACDdkOQAAgHBDlgMAAAg3ZDkAAIBwQ5YDAAAIN2Q5AACAcEOWAwAACDdkOQAAgHBDlgMAAAg3ZDkAAIBwQ5YDAAAIN2Q5AACAcEOWAwAACDdkOQAAgHBDlgMAAAg3ZDkAAIBwQ5YDAAAIN2Q5AACAcEOWAwAACDdkOQAAgHBDlgMAAAg3ZDkAAIBwQ5YDAAAIN2Q5AACAcEOWAwAACDdkOQAAgHBDlgMAAAg3ZDkAAIBwQ5YDAAAIN2Q5AACAcEOWAwAACDdkOQAAgHBDlgMAAAg3ZDkAAIBwQ5YDAAAIN2Q5AACAcEOWAwAACDdkOQAAgHBDlgMAAAg3ZDkAAIBwQ5YDAAAIN2Q5AACAcEOWAwAACDdkOQAAgHBDlgMAAAg3ZDkAAIBwQ5YDAAAIN2Q5AACAcEOWAwAACDdkOQAAgHBDlgMAAAg3ZDkAAIBwQ5YDAAAIN2Q5AACAcEOWAwAACDdkOQAAgHBDlgMAAAg3ZDkAAIBwQ5YDAAAIN2Q5AACAcEOWAwAACDdkOQAAgHBDlgMAAAg3ZDkAAIBwQ5YDAAAIN2Q5AACAcEOWAwAACDdkOQAAgHBrxyyvqamJjo5euGjhd99916XLj22sH77/YczoMS5OruXl5ewTCJX6+vqSkpLYqFiVq9elpaQHDxn00y/cr5Hv1b179yHDhsjILNG4rZGSlFpWVva6nl0fAAD4aLRXlqelp91SvzVu3Nit27caGxu7OLu0sawsrZROK40dO27f/n1hoWF1tXXsMwmDyspKW1vb9evXT5o8afWq1crKykbPn9nZ2nG9Rr6Xo6OTgYHBmTNnl8ounTRl0p5dezw8PKqrq9nVAgCAjwL/s7y2ttbN1X3xkkXzpeZbWlhy+oJ8Qvnt5+e3bdu2GaIzdLR1qqqq2AmCLT83f/vO7dNnTFc6oxQYGPiqqhOitKy0zMvT6/ChI9OmTTt58mRFRQU7AQAAhB//s/zK5SsDBg44feZ0ZlYm28RXJSUlhgZPRowYsUpuVUlRKdsqqBITkqZOmSoqOiM0JLTTdz4owt3dPH7//fcFixbQHgbbCgAAQo5vWV5dXR0UFDR71uzBQwdZWVm19/eykZGRM2dLDB482NTUtKJcEHuZ9fX1kRGRM0RnyK2U49cpCHyRl50vNkNs8eLF6WnpbBMAAAgz/mR5VnaWqqqqqKiovLx8Wnoa29rOqqtqVG+ois4QPah4KDw8nG0VGNnZ2evXr9uyZUtJSQnbJDBo3RYvXrR///7iYoFbNwAAaCk+ZLmzk/PChQulpKVMTE1eVXVoB7S2ttbPz2/L5q3Tpk3TfKhZVSlA3d+jR4/Onz8/KTGZHRck9fX1IcEhM2bMuHfvPtsEAABCq01ZTj3Oc+fOdRPpduz4sdycvLq6zji3vJ6zGo8NH/ft32f16tUpKSlse6cKCAgQERFxcnKi1GSbBAz9sfT19Pv165eXjS/OAQCEWyuznLl2XGaJzOgxo13dXNnWTpWZlrVo4eJx48Z1+jXo9AZOE526fcc2dlxQ0R9xzuw5a9at7pydMAAA4JPWZHlaWpqqmuq4cWP37ZdPSkxiWwVAQUGBqqrquM6+Bt3WzrZvv74ddt5AW3h7+nQX6R4VGc2OAwCAEGpZltfW1rq4uCxazP9rx/mFvQZ9+7YZYp10DXr9a8WDius3rmNHBVz962mi09RvqrOjAAAghFqW5Rq3bg8Y8Fv7XTvOLyUlJU8ec65BX7ZiKdvUUYqLShYvWmzw2IAd50FFWcVTw6faWtpUeo/07e3t8/P//g47LCzM0sKK64RzM1MzG2tbZrikqJR5bEOZm5oXFhQyUz9I6bTSxk0bcW9XAADh1bIsnyE6Y9PGTW3f7tfX11dUVHDdTJQa+fvF7UOth19//T92pKMkJiROnz49OroFR63pb9CtW7dvvv6mZ4+ePXr0+PXXX3/48fubqurMHeKUziiNGzcuMiKSmZkxcODAsRP+ZIbDwsM+//zz77//vodID6ZmSswMDQllpn6QsYnxggULCgt5zX4AABA0LctyyTmS165eY0fagIL8ptpNVxf2pLnamtqXL18+vP+Q+v0Ojg6lpfy5m5uXl9dPP/3EjnSUyKjIKdOnJCW34DQCJst37d5VVlJeUlwSHRO9bv26IUOH+Pr60lResvy///2vynWVwvwipkqLy3g/V8DNzXX27NkCfqAFAADeo9OyXFVN1dnZmRn18fIRExPbum3rocOHpk6f+vDhQ778/odwZfke+T3s+JtL9qmDbm9vT8M8Zfn//nv77m1mtKW8PLzExcVT01LZcQAAEDadk+WNj7GXlZXt2Lljy5Ytubm5lZWV9+8+mDBxQlZ2FjNnW7RTlttY21ZVNPsWtT3LS0tLV61aNXHCxOgozoH69s5yH09fZDkAgFDrnCwvLi5Zs2aNjq4ODWdnZ48d/6ee/iNmkr+///Bhw0ODwpjRtminLO/du/dXX321fsM6FxcX2ueoqnzrVPlWZ/k3337T97e+ffv1+d///te7by87Gzvm7AEevy//7zf/+fGXH6l+7vqz4iFFZhIvkOUAAMKuk7K8qHip7FLNB5qv61+npqYOHTrE3MKcmRQXHzdl6pRnT58xo23Rfln+2Rv//Oc/R40ZdfTIMRNT4/j4+NraWpra6iwXnyn2UPMh1XWV6/Ol5s+RnBMREUFTm8vy8RPHM8OU5V9++eXqNauYh2tqaXp7ezOTeIEsBwAQdp2f5SkpKUOGDLG1Za+wohQUFRXV1HzIjLZFe2c56/PPvv/h+6lTp2zfvt3M1NzL06vt35fHxsQOHDTwusqNmpqa8xfP//nn2PCwt348pl+/fqLTRZlhHGMHAPjEdX6Wp6WljRgxwsLCkpkUH58wdcrUZ8+eMqNtwWT5ufPn+Fvff/89m+Jvo246Tfr111+/+s9Xnl6e7Erw4N0sz87JHvPn6P3y+ysqKnR0dQYOGOjp+fcC83PzRUREVsmtYkbbnuUDBg64cP6C0VOj0NDQ6qoadgIAAAiJzs/ynJyciZMmaGlpMT9D4uPjS9EeFsa378unTJ7C3/rqy6/Y9H7Hv/71r++++/7LL7+8qnz1PW8jFybLt23fWlRYRJWXl2dubv7NN9+oqanW1NbEx8d369rt0sXLBfkFlZWVxcXFGrc1vvv+u4avIdqe5d99992I34f37du3e/fuvXv1XrJoycOHD9PT0+np2JkAAECAdX6WU9fz4KGDK5avSEpKKioqOn/h/MxZErm5ueysbdBBx9g/++wf//xHz5495s6dd+zoMV0d3QmTJrTiGPtv/X9btHARlbiEWL9+/davXx8XH0dTKysqr1xR/m3gb0sWLzlw4MCypcsHDRq0fsP6mhq2A82vY+z1da8z0jPt7ezPnTtPqzF56qTDRw6/fPmSOQ8AAAAEVudnOQkNCZWWkp4zZ87CRQunTZv24sWLhqBqiw7I8v/78gt6T65cueLg6JCbw9n/aMW5b2VlZYaGhpp/0dHVsbGxycr6+6o86ovb2dnRO3/syLHLFy8bvzBpfJs2Gn706FF0dBQ73kJNfl9eWFBoZ2e7Y+cO0RmiGrc1+PLnAACAdtI5WV5XV5eTk9NwfzcazcvLc3FxtrG1SUlJ4cuNYki7ZnnPXj1Pnz4dGR5VUFBQU/131LUiy3lEgVpVVcV5Lr7eO73Zc9/qOTsZRs+N+vXrt3rVmoqyCrYdAAAETOdkecdopyw/cuSok4NTc13V9svydtJslv8lKSnpj9Ej129Yn5OdwzYBAIAgQZbz2ceX5SQxIWnhwgV79+0tLeHPrfIBAICPkOV8Rlk+cdIE6suy4wKPsnzmzJnpGenseFPq6+uDgoJnzpK4eOki2wQAAAKjZVk+a9as00qn2BGB5+jk2KVLF3ako8TFxU2ZPCUxMZEdF3hWVlbz58/Ly8tjx5tRV1fn4OjQo0ePht9NBwAAAdGyLN++c/uY0WOszK0qygX6TKiamprAgMAZojNEeoqwTR0lLzdv3tz5djacnzgTCjdUb6xZvba2hqcLzy5cvDB4yOC0tDR2HAAABEDLsryiouLmzZtTp05VVDwYGhrG3xOq+SUjI1NVTXW66DSFAwpZmdlsa0epq63bsWPHQcVD7LjAmy81//z58+zIh1RX1UgvlNq/f195eTnbBAAAna1lWU6qq6v9/f23bt06edJkzYdapaVl7AQBQN1xO3s7KSmpOZKzLcwtGq5562AGjw2GDB0sFBdxJSUl9erVq0V3nA0ICJguOt3VxZUdBwCAztbiLGdQTJoYmw7/fdi6deuK8ovY1k5VWVl5+eLl/r/1u3D+Yl5eXn1dpx00KCkq6T+wv/JVZXZcgG3dslVcXLxFt4J5VfXq9OnTW7Zs6axdJQAA4NLKLGfExcYtWrhoyOAhdrZ2ZWWd1kGnFY6KipKcJ/nnn2Mc7B2Yn/3uXEZPjXr27hEdE82OC6D6107OTiI9RKifzbbwLDAwYPzEcS9fBrLjAADQqdqU5aSkuOSG6vWJkyfu2bMnNDSsg3O0vr4+LS1N5ZrK2HFj5eXlExME5ezx+rrXcqvlNmzc8MHzwztLWmqa9AKpo8eOsuMtQf9CFA8qLluxDLdqBwAQBG3NckZgQODOHTvFJcQePLzfogO2beTm6r5o8aIlS5aYW5i/quLPnV/5JSo6at78uVeVr1ZVVbFNAqOsrEzhwP7lK5dlZmSyTS0UGhrap28fRydHdhwAADoPf7L8dT3nG3QDA4N+/frJLJGhPh/b3m4qKipOnT7Zo0ePEydOZGVmMb+XKlA4F2TbO4waNVr95i22SWBQr3rylMmBgQGtft/o1dE/GlFR0Y7cdQMAgCbxKcv/kpGZMXe+5Kgxo0xMjNvpsiXm2nFpKemhw4c4OzqzrYLKzNysb9++BxQP5Ofld/oX+bU1temp6bLLZIeNGOrj68O2tlZ+fr5Ir+5GL4zYcQAA6CR8znJSWVGpcUtj2rRpiooHg4OD+Rtg7LXjM6Yd6Ixrx1uHUlNyjuQC6YWGhoad+PV5akrqgwcPZs2ctWL5isQE/txi9sL5C7JLZQoKCthxAADoDPzPclJdU+0fwLkGfcKECXfv3s3OyaY+ehsVFxdbWVux145bWHTiafOtkJ6ecevWLTFxMWkp6bNnz9rb2ycmJpWWlrKvrd0UFhYmxCdYWVkdPXKUUnze/Hm6urqFBX//9nkb0T6BuLi4laWVAH7HAQDw6WiXLGdQVpmamQ4bPlRERKRnm/Xo0aN7j24XL3XyteOtVl1dnZWRpa2tTbsjIj27d+vWjV4T+9raDb1pXbt27dWnF/XFzU3Nc3Nz+XvmOb0o+ous37CupLSEbQIAgA7XjlnOyMvN8/bw9nDzaHslJSV3+lfOfFFZWRkVHeXp7sn1Avlenu5eifGJlLjsE7eDgICASZMmvXz5kh3nTXV1TTDApyEpKenj2HCBIGv3LIePG/1r2a+wf+mypTz+OgsjJir2yy+/nDBhguh00fauocOGfvXVV1yNKNS71bNnT5EeIlyNbawRv49YIL2gsEAgbo4JHzFkObRVaEhon359zE3N2XEeUJb/8ssv3l7eSYlJ7V13794RERHhakSh3q1t27eu37COq7GNpaujiyyHDoAsh7aqq6tTvqY8dPiQ/IJ8tulDKMu7d+uenprOjrcnExPj3r17syMAzTt4+OAe+T3sCJ/Y2dghy6EDIMuBD+prX48d/+ep0yd5/G4eWQ4CCFkOwgtZDvzh7OI8bdo0B0eHunr2NJ/y8vLmoh1ZDgIIWQ7CC1kO/FFZVXnu3FnphdJZ2VlMy2PDx2vXrs3ObuKWPjxmeWpqyvnz5/z9/bmuX6+srNR9pLtz5076h2tna//6vecII8uBR8hyEF7IcuCb7KycxUsWyS6ToeHamtp1a9d9/vnnI0aOCPDn/nVUHrP81OmTX3311ebN3L+VfuzosQEDB1CWr1i5XERERE9fj53QFGQ58AhZDsILWQ78FBsbO2zE0O07tr0MfDl58pTP3ujZq+fjxwYVFRXsTLxl+auqV/369502ddrvI35PTPz712yjo6P+9+1/Ne5oMKPbt26fOXNmekazi0KWA4+Q5SC8kOXAZ4GBgWLiYhMmjf/xpy5MlpOvv/n60JFDKSkpzDy8ZPmzJ0a/dv3F0sJSVFT0pvpNtvX16zNnz3Tr1i01LZUZpU5///79nZycmNF3IcuBR8hyEF7IcuC/kOCQCRMnfPY5G+Sszz+TlJR0dnGuq6v7YJbXVNeKi4nPl55XVVV1+PDhUaNG/XVG3WvZpbKDBg1quJFWampqrz69njx9woy+C1kOPEKWg/BClgP/5eXliU4XZSO8kX/84x99+vTRf6QfGRb5/iz39vH++eefzUzMaNjd1f3nn352cmB/31ZCXGLMmDHMMMnIyBgwYICuri47/g5kOfAIWQ7CC1kO/BcTE/N/X37BBvg7vvjii127d1KWpzWT5dTnPn78+E+//piVnkXS0tKGDB2ybOkypi8+f/784b8PY+Yk6enp/fv3NzAwYMffgSwHHiHLQXghy4H/VK6psLndvC5dutjZ2TUcKm8sLS2dOt8ivURmzZzF1G8D+//666/R0dE0dffu3T179CwvLWdmjouL69W7l4WFBTP6LmQ58AhZDsILWQ78d/vO7d27divsV1BUVDx9+vTZs+euXL6icvW6urr6nTt3NDU1L124RFnu6ODYZJZbWloOHDBQR0fb+i8Wlhbdu3dXvqpMU03NTOmxDSe7aT7UHDV6VEhICDP6LmQ58AhZDsILWQ78V1lZWV5eXlFRQQP0z6m6urqmpqa2ppaSm7nry3vOfaOHHDp8aL7U/IKCArbpjfXr1ktLS+fl5tEC/xw3ZuasmT5evpbmliI9u+9T2EfLZ+d7B7IceIQsB+GFLIdO8J4sz8vLoyC/c/cOhT/b9Ia7h/v06dP9/fxpODExcfacWd26desu0n3Tlk3FRSXMPE1ClgOPkOUgvJDl0Al4ub78/ehfaWpaapM3iOWCLAceIctBeLVvltfW1r4MfKmppflQ82Hby9bW9lWV0O9nlJeX+/r4Pnn6hOvVtUfRO//i+YugoKD3HILuFG3Pct4hy4FHn0qW17/Ozsp2dnLW19Pn2mK0R2nraJubW8REx1AcsCsgtMoTkrL09TO1tfhQuo9e5fH6I9G8aN8sV76qTJvsP0b/MWvOzDbW2PFjf/nll9VrV5cUvXVrbiESGxu7f//+/v37dxfpPnTE0CmTp3C9Rr6XmJjYbwN/69qt69ChQy9duJSV+eFebMdAloMA+hSy3MfHR05uZZ8+fbqJdBs9eozoDFGujQbfa8LECX379O3ateu06dN0H+lUVVWxqyJU6uvq8h2dYkSnR/8+InaRdNsretiwmKlTC9xc2Sdos3bJ8urq6rDQsNmzZg8eOsjS3Ip2A/kiIjxCXFx8yLDBlhaWFeV/39xb8GVlZalcVxk8aLDELHHDx4b5BfzcHfsgivBbGrfGTxw/YvgIPV29woJCdkLnQZaDAPqIs5y2yTExMVs2b+3WtdsquVXOjs7V1R16rC46Jvr4yeNDhw2dPm26q5treTl7TakQqKt/lZeXeulK9NgxqcpXaysr2fa2qa99nXzqdPTYP9Ouq77KzWVb24D/WZ6bk6uqpioqKrp399601DS2lU8qKiquqVylfclDhw5FRkSxrQKsrrbO2clFUlJSSlrKzMSsud/z7gCVlZXa2tozZ85cuWLly5eB/NrBah1kOQigjzXLqyqrNDU1p4lO27hh47s/WtiR0tPSz545N3b8n4qKiqmUDp26FeJFTWlZrqVV7KKFcUtl8x3t6/n6ZSUtLc/GLm6JTJzcinwHxzbuJfA5y51dnBcvWiwlJWVibFJV2S7fbdfW1vr6+mzYuH76dFEtbc12eha+eFX1Slfn0YiRwy9cusDZrensf7j1dfXR0dH79++fMGGCmblZk9d2dwxkOQigjzLLa2pqjp84LiYmpqurW14mAL3h+teeXp5ycnLLli2j1GEbBVJVZnbS4cOxc+ek31KvyspkW/mr/nVFUnLq1WsxotOTT52qTG/9JpFvWV5WWnbh/MVuPbodPXIsNyevXXOivr6+uKT4seHjPn37rF23lu+9f76glTQ3Nxs8ePAL4xd8PAWh7crLy+/euztsxDBPT0+2qcMhy0EAfZRZrqCo0LNPDx8fb8E5AZa2jenp6StWrJg8dbJAbRsby3dyiZk0IW7p0uKXL/nbHX9X3avqktCIuMWLYyQkil8Gs60txIcsp38i1NuTkZUZPWa0qzPfvsnnRXJyspS01Lhx41ycXBv/PLYgiImJGTdx3L179wTtHHJSVVV15qyS5FzJtLSOSNN3Ics7jJODU33tW0eEyivKU1NToyKiU1JTSktLmbv3VFdX5+TkJCUlRUdEZ2ZmCuwWtl19ZFleW1Or+VCzV5+eAQEBbJMgyc/NnzJlytLlSwVr011fT93x5FNK0SNHppw7U9uB61ZdUJh84gQ9b+rVK9UFBa/rWnYgt61Znpaedkv91thxY+Xl5ZMSktjWDlRQUHD9+vVx48cqHlAMCw2rq+2048aNVVZWLly8cNfuXUVFnXzOS3MyMjKWLV+2b798pxz5pyzv8kMXzYdapiam7V1Hjx79NLO8sqoyPCJ8ztzZnu6e9DllDpUVFxefO39OVExUZomM+Exx+tgWFxVTu6+f7/IVyyVmScyVnCsxU0JTU/MTjPOPLMsDAwJnzJhh+MSQHRc8sbGxY8aMUVdXF5DL1eqqqnMtLOPk5OJWrij09GBbO1Ld61wr67gli2gd8uzs6lpyflXrs5zefTdX98VLFs2bN8/SwrK0tIyd0OGo4+vn67dt2zb6h6v3SE8QrkF/cP/BkOGD4+Pj2XGB5O3j3adfbydH9rdEOxJl+X/+/Z9FCxetXLmivWva9GmfYJYXF5dcuHB+6/Ytw0cO37Vrl9IZpZISzt3xvL19Jk+a7GDvUFZa5urqOn7ceB8vX2qnnrqriyv1y7Ozsm/evDlx4gTqnb9Z0ifkY8ry8vJyRUVF2lcrK+u0LTMvTM1Mac+SdjrZ8c5TnpCUpHggZsaMNDW1yowM6qCzEzpcZVp66tVrsZJzko+f4P0a9NZnufJV5QEDB5w+dVpAPvO0qdLX0/99xO+rVq3q3GvQ83PzBwwYcPf+XebopcCqrauV3ys/aeKkjv8WgLK8a9eu4WERBe3vkd6jTzDL3d3dFy5aGBERsVJuRVZGVm5uLtMv9/T0nDxpCucUYuoVxcVOnjzZ29v7zSP+Ro+dMGl8aloqO/7J+JiyPC4ubuz4P93c3dhxQVVUWES73Deuq3bid5Gca8ftnWKmT49buqwsOrpOAI5I0ToU+frFzp7F+zXoLc5y9trx2XP4e+04v0RGRjLXoJuamnbWNejaWtoDBw+oF4Z7HOXn53fv3t25w7vm+L68vbm7uYvPFA8IDFi+cnlxYUnDbmVlReWhg4dEZ0y/fu26jKzMug1ri4s5x9gbVL+qvqasskRmSWFh59+HoIN9TFmudEaJejWVfLoYul09e/JMWloqLy+PHe9Ib64dTzl/jnPt+LWrdQL2drHXoI/j6Rr0lmV5w7Xj8vLyaemCePY4qaioUL3BWcmDBw+Fh3f0oZvamtptW7cdP3acHRd4y1csV1JSYkc6CrK8vZWUlChfVZaSluo3oO/BQwdtbG2Yz3VOTg5t5WVkZHfv3S0nt3LP3j2ZmVnMQzjqacNqNHPmTGdnZwE/qtQePqYsnzR50p27t9kRwRYSEjJt2rSYmBh2vKPUlJbmWljGLlgYt3RpvpNze5+s3jq0Vvn2dnEyH74GvWVZrrBPYerUqSYm7XXtOL8w16BLL5CeOGki29RRcrJz5krOdbR3ZMd5QG+mm6ubvZ09lZOj08uXL5mvNhlJyUl+vv5ct0ny8fZpuOdDRVkF89iG8vH25f30BXW1W3Jych18kgGyvAPQBzk2JlZilsSZs2emTpsa9ebeSmZmptQpp3YazsjImCM558GDB29m55x3o6WlNW78WCtLq+qaTrupUSd6f5aHhIbQPrq7mzs7/mY74+joePbcWa5jG411SpbnF+T/2vVXHx/ub0/eIz+3oGEDQpuj+Pj4hiAoryj38/PnOrWZevw0G23uaLi+rj4xIanh4UzFxsQxc35QcVHxwoULX7x4wY53lDxr65iJE9JUVdvr2nF+Ya5BV7kWPWZMjokp2/iOlmX5nNlzzp873/Zrx6urq11cXOJief1jtwL1Kuwd7Lt06cKOdxTOd5BTJ7forLfU1NQhQ4b88EMXKvLzzz8PGTbY6Nlz5vuLK1evzJSYGRP91k7ruHHjJGaJM8NRUVHMYxtqypSpwcG8XqToaO8kNV+qIP+tHwtvbzxmeWRkpIysjLW1Ndc/OU8Pr8tXLq9aversmbNsU/M+8WvS1q5fm52ZLS0tbWVlRaOPnzyeLTmLOZ5JO3DLl624eOnimxlfa+toUSfe3c1DQE4q7njvz3Law540eeKoUaPzc9nTkbKzs0f9MWr/PoX3XFXVKVkeHhbRvXv3zIxGR1w+xNbWtmED8uOPP3bt1nX5iuUFuZzvWWJiY2bOmnnl0hVmTkZKSkrvPr1fGHMCmCLj8uXLDQ9n6uCBg8ycH0Tb6jXr1lD6sOMdJVNHJ37jxhpBvdSIS111dezcuWnXb7Dj72hZlkvOkbx29Ro70gYlxSUb1m/Qe6RPw3W1dbRvu2z5sn4D+v3222+xsZweA194eXn99NNP7EhHiYyKnDJ9CnWm2XEe0N+gW7duu3buKsovzsvN9/XznTJtyh+j/ggODqKpSmeUKLkjIyKZmRkDBw4cO+FPZjgsPOw///2PsrJydkYOUwV5hbU1vG6O3dzdZs6cmZGewY53CB6zfPuO7f/6179kZZY2vrSvuLDk519+7te33/fffz9DTJRtbd6nmeVeXt4nT56wsraSllqgck1l+vTp6amcP7G/v9/48eOvXrtKu5sP72uOGDHC15dzHruLs0ufPn3k98obPTViSiDuEdaxPniMPSwstMsPXQ4fPky9kZqamh07do4ZPSY46H37zZ2S5e6u7j1EehTmt+BJLSzM+/bta21pTVuh9Iz0Wxrq3bp326+wnybRNo3+zZw+dZqZk5GUlPTNd98YPnlMwxQZp0+fHjN2TERYZMNWqLy0BacrrduwVulsR3/TR1mesGtXrWCf599Y7MJFApfl9DEIDglmvnGnYZMXpgcOHNi+ffuvv/4aERHBzNN27ZTl74/JVmd5442Io4Njd5Hudna2NMxLlv/3f/+93drvxnw8fcXFxfl80nI9ZxeNHW4KL1mel5vXs1fPZUuXjRw5MjQ0lG198w8mKCiIdgfXrF6LLG9OTk6Olo7W7r27BwwccOzoMYrw2jrOv1v6u9jbOWzcsHHhgoVr1641fGLIfN69vL02btxALQ1ys/nwew/ChZfvy29cvzFkyBBrK+tHerpff/O/O/fuvP84Zbtk+Yc+X05Ojq3J8n59XVxdmFHmuPe06dNomMcsnzBxfG4u55B7K2zasunMuTPsCJ/U01v03lM+kOV8yPLKisp79+55NFyMT/8s6znbXKHIcuq7XLx8MT4hvsnPcNuzvKKi4siRI6P+GBUcHEKjwpjlBQWFCvsPPHj4ID+v6UP3vGT5LXWN7iLd/P38JSUlT546wbY2qHuNLOfF2vVrX1Vyf/lN+6NFhUWCcCcGgcJLlhcUFCxdKjtu/Dja25ZbJdf41JYmtUeW5+fn79q1S0dXp7lrDdqY5fX19QEBAWPGjDmw/wCNCmmWF7h5UFTn29vVlDb9N+J7lhf5+mc/MayrYk9Pq0hOztDUrPnQvxDeCWKW004f9bc0H2qx428IS5ZTMHz11VciIiJLZBbbWnO6zo21Ost/+eUXiuc/x/7Zp0+fwUMHWZhbMhdc8pLl//jH5790/XnQ0IFUQ4YNPn3mrU/d+7VHlqempv7www//+9//6F2iLqCvtx/XwYwPZnl1Vc3I30euWbeGdpgunL9A73k919EQZDlvQkJDPsEz0luHlyynN9PSylKkh0jXrl1zcj4cXe2R5ZSjX/zrn19//XWPHj127t75MvAl1ykOrcvyL7/8cvCQQbRhGTVqVI8enE8uc+8QHrP8q/982X9gf2Yr9MfokRkZLfjarj2yPENTO3rQoOiRI2KmTEk5f6EyjfsEN75neWlYWOysmSUhbw4i1tdnPtKPW7GcczdWPhHQLF8qu1TzgWbjYyBClOWfNdLlpx+OHj0aGBhIO8vV1TWtzvLRf446eOgg1YYNG3r27rFmzRrmg9Rclo+bMJYZpiz/v//7v5mzZzIPP3zkkGnz5zq+qz2yPC09rZtIN/YNIp9/NmLk8GsqV5MTkouKimi788Est7W1+fHHHz3dOL/+EhwU/OuvXZ89ecZMYiHLgd94yfKqqirKLcrRf/7fP3x8fdjW5rVHlqekpnz3w7fsh4t8/tkfo/5QV7+ZnJhCm1b6fLUuy7/97tsVK5fTNkThgMKsWbP69u37zIjzoWsuy7/lZDnnBrFMlnfr3nXXnl3MVujkyZNFhS149vbI8sxHejFiYgVurslKp2KmTY4eOiROZnH20+eVKWmc/Kas5XeWVxcUxi1fkamt+7quvqa4KH7tmvRbt+v5dybpp57lFLH81bNnT/Yj1MiXX/2LEvHypcu379ymVG7j9+XBQSG9eve8d/d+XW3dufNnx44dGxH+1tvSv3//aVM5X2WRth9jnzZtWmhoKPvy+IFWqVv3Rln+F+qpL160+ObNmwZ6Bu/J8urqavm98l1+7mJrbUesra1/G/AbbVze+peJLAd+4yXLnZ2dBwz47cTxExMnThg77s+0tA/cZoOynDabCfEJ7GeDH0JCQ779vlGW/+Xrb79etnTZrVu31NTU2vh9eWVl5e49u3/p+ktBXmFUdNSECRNOHD/JTGJQln//3fdGz4xomMnyNh5jP3X0aDV1h/hX6XfuxMwQKw56SVXk55+lb5AoLx8rOTt29myK8Cx9veQTJxN27uRjllNsZ9y7G79xQ01RUUko9dFnF/n5sdP44VPP8vlS8/lb//nPf9iPzjv+8fk/fvjhh6+//p+aqhpzhJwX72Z5dk72mDGjFQ8cpE/Uvfv3hg4Z6uvjy057cxVAjx49ZGVkmdG2Zzm9SxISElwvsy01c+bMr//3NfumvOOLL76g/aFvvvlGR1unyX9ssbGxkydN/m3gbxLiEkxRt55W0rdxNwhZDvz2wSzPL8gfN26czBLZrMwsXz/frl27Hjt67P33VqMsp83anNlzuD4jbSmJmRL//ve/2Y/TO774vy9EREQoaJ8bvaip5nUrxJXlRO2mGm3rPN09U1JSZojN2Lh+IzvhjQC/gF9++cXSknOhIx+yfPOmvcOGx8nK8LFiZkyPmTyFyXK2XgbmOzllaGkm7N4VPWRQ9PDhMVOnsIfE+YSeJVZSsjQsIvnEqfiNm2r5ejHIp57l9G+Uv0X/gtkPzTu++OcXQwYP6dGrR3BwMO9fUr6b5UFBQd9+++3FixephxoWFtalSxeth1oNp9oZmxh/9913d27fYUbbnuUjR/6hra3N9TLbUrq6Or/83Oy7RJuhmTNn0d86KiKqyXfJyMiof7/+gYGBmX/L6NWr1/ETx9g5CLIc+O2DWb5x88aff/7Zx8eHNlz0T/fenXs9e/S0t7dnJzeFsnzC+AmGhoZcn5G2FH1aaVeY/Ti949///ff06aK0SUlJSuV9K0SL5eqXb9my5Z///GdCQgIlwoYNG2jHpfHvXMjv2ztm9BjmAhM+ZPmWTYfXrM21suRjJR1SjJk+/a0sDwzIemwYv25d9O8joocNjRGdEb9uPfXg2ZXgh7rqmoQd2xP374v+44+sxwZsK58IQZZTfl9Xub5h/cavv/768MHDGrc0Spo587BFOub7cvrnTn3xgYMGnDp5KjE+qdXfl9MHY/++/VRyq1bSak+aPOnly5c0tbS0dOeOnb90/Vlhv8KjR4+OHTnWv3//MWPHNPyZ2p7l7f59+Wefffnlv3788cc/Rv5xU+1mdk72e74vLysr275924qVK7jupXVAQVFCfGb6mx9cV1a+cuTwkRHDR1DA04Caqtp7TrRpRZbL75NX4u38Qer3xMXHUQfo/MXzQW/uB8DIy82/f//ent17tmzdrKqmmpyczE54/bqwsFBDXWPLti2Xr1x+/xHamJiYrVu2jv1z7LYdW9mmN0xMTWg72x4/p0urtGCRNDvSvImTJ1hYWLIjnSE7M1vzgZb8Xs5/ZuZmzZ1MTkmWl5fn4ux6TeWaqlqzG8EG78ly2pN+8dyY9qqVr1xlm978KRcskJZeIJ3b/L2yO+L7cs7n60vaaIwaM4p2L/Jy81r3fTn1EJYtXUaboL179k6bPo0+sBTYzFR3N/fffvttwKDfVK6p3L/3gGajmekzwpxzx5csb6fvyym/Cz3cc80tko+fjBEVjR75e5zs0hzjF3WvXrXTNWm5FpbRQ4ZEj/2zuohvZ7AzBDHLKyoqbqnfcnNlf8PH3d1t7Tr2qlaybdu2fH7sK7Vrln/++ec///LzDNEZu3bvtLaybtiatCLLaXOzd+9e9sWvXbtp88YrV65ER3PuuMnIysq6du2arOxSyTlzFy9afOLEycYZQMFJW3YnZyd2vIXaJcvT0ujNYbYyPXr0mDNnzslTJz08POr/uojvPVlO7+Sp06csrSyZ66EbhIeHH1Q8yNy0WfGAIvtmvXHs2LGkpGbf8FZk+bq16w8oKrAj75WcmDxfaj69QHo5mpqabOvr135+frt27j6tdOr8ufPz5s8bPXp05pszGSmAaS9WYqYEpYusrOzMWTMLC5q+rIj2Eq5cviK3chX1Arle3ePHj2VlZAuaeWBbHD92fOq0KexI82hv8tnTt09F7Fi0z7ti+YrjJ44dOnRowMABO7bvaPL6OtqUUceA3uTff/+dl38D78ly6qfSonbv3V1d9fdRa9pX8Pb23r59e3RUs/cSb48sT05J/s//2GPsffr0njtvrpKSkq+vb8PnqxVZTnui7MeJrFtLO0lPnjxp/PWBj6/Pjh076LXMmztvxfKVDx9qNtztrqamxtjE+MzZMx+8Qq857ZLlOrrR48YlnzoRt1Q2ZpZE3Eq5NPWbZdGxnOvO2RnaJcsrM9Kjf/895dIFdpx/BDHLO0b7ZfngIYNOnjxpbm6enJzCtv6lFVnOo7LSspzsnJLikvo6Xo+b8aKdslxEpMfUqVOvKV9zsHfIyszmWmderi/nl/dnOfW3aCumoaFx+fJl3Uc6TP++cZYnJCRYWVpFRUU+N3re+BwIG1tr2t+ijV18XHxCQvzs2bMbZzklccNLpr2QX3/51djYhIZfmLygnZvExEQaTktN69Wn14P7D9/Mxc3ezkFy7hzaaGprayUmJJWXl1tYWFC6Gxk9oyd6T5bTSlJXlfpPKtdVrKw5X2cS+lDb2dtdvXpVTU3Nx8unuZM5KMsnT50cGRGlrn7z3v17DTcrJbExcWpqqnfu3KG3qEVZHhIaYmtnGxoaqnZTTfOhJm3uaeeVdkdo9QID2d8UoJz4+24Tbw48UNezprrWxNg0JIhzlwVCK/Pk6RPqdNJwQkJiZcWbmKl/ramp1bVr17im7v5Nf9zsrGxaYaUzSm3M8lZrpyynfrmYmJiKioqzi3NOTi7XsfRWZDkv6P2kXc/cnNzqV3y+XX97ZfngQfGbNmQ8eFDk51dbyv3VdTtlebaRUfSo0e1xj3dkOZ/FxcRnZmVWVVWx429rvyxvJ+2R5ZRkifGJeXm5Nc3cI09wstzd3W3ylMk7d+2kPrTcKjkra86h44YsDw0OHfnHyHv37mVn5AweNNjMnL3YLy87n/LM04NzyRwpKCiYPeetLG/Mxtqmy08/0Eum4ePHj88Q//s7/vnS8xctXsiOvE3rofboP0fPEJ0hv1+euubqN2+NGDFiv8L+1avWDBkyZPGixc1luYKiwh9/jDx67KiioqL4TM5N+zm/c3roUN/f+uzZvZf6W+857kVZ3rNnj7lz5+7es5ueXWyGGNP3SoxPote7YOGCXbt2TZs6rWfPnrxn+dkz5wYNHiQ5T3L37t0DBw+cLz3v4CHFtevWyC6XHTx4MBPVe/fsXb9+AzM/GTpiCMU55ZOq2o0RI0fQTg/tfCxdvnThogU1r7j3Qp4ZPaMsT0xMYMebcu78uY8py6ura+LjEvLz85q7c347ZXn7aY8sr84vrEhKrikprm/mxnztcE1afvyaVdEjhqepqbJNfIUs71CcLJ82Weiy/IOX1vCXgGQ5pcX9+/c3bdjEdaCbspy26ZTBQ4cM1dLUZhp379k1V3Ius/U8dfL0uHHjGnq3zWX5ps0bJ02c1Kdv74cP2M435eiKlcuZYbJn954/x49hR95WUV4hv0f+ypUr9Cy07zhxykQKLVrh4pJiOTm5+fPmN5nlNHOfPn2eGj5rvJW3tbUdPnx4UNDfX+c3h7L8119/ZfKV9ld+6fozdalpePnK5bPmzGJer5a21rfffst7ltMyu3btxlxU6evt9+WXX54+fZo5UWbWzFnnz52ngS1bti5fvoLT9EbPPj2NnnMudiILFy3cvGnLpQuXaA8mI5P7rIjcnLxxY8dt3PDWKdbv+siy/IOcnJ3eZDn/v4VpJ+2R5R/E9yyvq6oqcHUpjYji4zXljSHLO1RUdNTEyRMSkzgHUYWCp7vXnNlzsjKz2fEOITj9cgcHh+nTpx87cszwiWFoaCjzj3/tmrXUHaT+upmpGTMbiYmO7d27j7+/P+UHdSi1ddiMJ81luYWlxcOHD9dvXD9p8sTYaM5B4C1btixf8XeW79y1c8y4D2c57SCOGz+WucSD4pz2DKSlpJvrl2/cuFF0huiNG6pW1lY5OTn1dfV3bt9dtGRRUdGHt+yUuyNH/c6OvH49YuTwR7qP6D3p1aeXpha7O1JdVfPTjz+1KMvHjGFfY1lZ2Q8//GBnZ8eMbt+5fdfuXTTwnixPjE8cO25sd5HulpbcZ9tlpGdu2rRJRlYmv+ADp9d8allO+0wiIiK83JZOQGzYtOHchXPsSEdpp2Ps7YefWS4uJr5502b6QLLjAoy2gGqqav/973/Z8Y6SlJQkOmN6RBjfrqxrb8ZGxosXLS4p5vMpl+8nOFleXl5OnZjLly4vl1suJjHD0sKyrq6OzfLJk58bPWfne2OV3OrjJ45r6WgNHzG88Wk+7z/GXlRUNHTYkBMnjtPwkSNH6FmYdrJo8cLmzhtvnOW0kzF50uSGnxDU0dWRlm42yzMzMx/pPTp48ODM2RIU4dQ5U7uhJrdqJXXo2TmaR7nb+Ny3P0aPfKj5sKKiomfPnk+fPmVbX7/+6ZeWZXnDMquqqn788ceGC59279m9fft2Gti67a0s79aj699ZnpQ4asyoX7v+4v32r3EXFxZv375t/br1Kckf/nroU8vy+Lj4rl27xse/73sHwUGJs2LlCo3bt9jxjkJZHjNjRkUK9zlPgqkyPT169Gi+Zbm1pfXgIYPXrVtXJNjfxFRWVl6+crl3n16nlVpwZ3K+KC0pW7J4iZ6eHjsu8I4dP0adRa5zZ9qb4GQ5o7q6Jjcv9/jxYxSfFKLMMfZnz5726dPH6CkbKsTLy2vCxPGU8ecvcI4MN3h/llNHtt9vfQ8c5PxMxePHBj//+lNpKec63eKikr59+6reaPqrtcZZnpKSMm7sOHd3d2qnj+ep06eaO8bOoL8mBXBEZES3bt0cbB0MnxhOnDgxO+vDh16azHJa2oTxExQPKDKNYWGh337XsmPsH8zyo8ePTp82nWmkveHvvv+uIctll8muXr1m/z6F8RPGVVX8vWlavWbVfOl58fHxvPzT/dSyvKa2pmv3rna27PEPAZeenjFTYqaHx98nP3aM0siIWKl5MVMmF3m/tZsocOpf51pax0wcFztfqjyh2SO+LctyEh0TvWDBAupn2DvYC+AvHNPKR0VF0YdnzOgxDnYO1MdiJ3SgI0eOrl29lh0RbLW1tVOnTL1zh73tTIcRkCyvram1tbbV1NKk9Ql5GSqzROb6teuU6w3nvplbmFGc6+vrMx+KvLw80RmiP/zwQ0oi2xesq6k3NHhCHd/hvw/fsG7Dw/sPI8M5d843MNBXu6nm4OBgZ2O/bv06ERERikBqp978hEnjKZ8C/elTt3/IkCFMrr+rcZaXlpVu37l95aoVYcFhJsamgwYNkpKSajLLC/OLTp466ezsnBCbqK2p3ad3n8T4pOSk5PnzpeRWygX4BwS/DHn+/Hlzh9aazHIaeP7CqEdvEUNDQ3/fAKn5Ul1++oG/We7s4ty9e3cdHR1Pdy/6K/zw0/eU5fTCryhfphebmJBE79tU0SkbN29grpLas3vP119/feTIEXrDqfR19XOymjqeXP86OiKaZlgss/jHLj/SgKO943u2bx9NlpOlskuVlM508D5667i5u4mLi2ekt+C3WPiltqwi6djx6JEjUy9ffpWTQ3vB7ASBUZWVlXL+XPTYsWnXVdimZrQ4y0lJccl1leu0Sdq/b394WHin5OW76F9tenr69RvXx44du1d+b1xcE9eodAxnJ5fevfskCMMBLnc39549esZEN3t1bDsRkCynf7ouzq4b1nN+zFtWRvbypctZmVnU/uD+A+YHoIitnS2lI/WMabiyovKAguK6NetKStgApg/Lvn372Kty37B6c1dLVxfXTVs2LV60eMniJXv3yvv6/H1b5tjY2B27dixYuGDL5i3M7YCaREvW19NvuM6eHrV//35paelt27ZpPtRUv6leXt7EnnR5WcWZM2eXLV1Gr2jd2nWWf93RJTwiXGG/Au2Fy8jIqFxXafKx5LnR88aHHE6cOuHq5soMq99Sp5Rdumyp8QtjRUVFP55vNN14mRTPO3fubLh3wiO9R5TfzDAtX1ZWdqXcSlsbW9oe+fv7c+67sG8v9RmYGSIjIxsee+7cefbtfoPaaQ+ema0x2ibQ7hQ70xsqKtebe+3kY8pyg8cGs2bPok0iOy6oqqurlZWVt27Z2txObQfId7CPW7Y0fs2aPDv7umo+X27XarQLn2tlHbdkSdzK5QXuHg2XxTenNVnO8PP327Fjp7iEmJaWdsM9CjqRu7s7bThpU2VuZv6qqjP/HtR1oC01bTiau2JEQNA+mZi42L598h2/N0ZZ/sP3P2ho3H5s+Li9S0FR4f3HV2uqa4qListKy5iTq98jMyNz7ty5BgYGvLxj9Nend7i0pPTdmamlqKiIxw9aA1rPgoICrl+PbVJlRVVRUTH3RcD1nG/u6WW27v4ElIvUm68or/jgu9Q6tPzy8orGNyfpeB9TlmdlZUlKSj56pMt1zyVBk5qSRlshIyOjjt8K/a2+vjIlNfXqtRixGUlHjlSm8vMC3dapSExOUlSk9Um/faeStx2y1mc5faRpT0r3kW6/fv1kl8qmpXboRU2NVVRUnDt7vkePHsePnaB+lSAcVqJeVPce3Rp6RYLpzp07Q4cMLSns0LPeGJTl//rXv0aPHjOh/Q0aNJiX70o/SEFBoWefntR9z+Lhi2fe0SYsNCxUR1e7cRnof/hOzvTp43rUo0ePEpr/Oq2xtjyWQd0pZ2enxku4paEuIyPbuKWly2yLd9eHqvFlCLz4mLKc/l1pa+nMnC3xnvvLCoIjh48sXS5byMNFFu2trupVaXhU7Pz5MRISBe7uzV2V3gEKXNxipk+LXyVXFhNT35Lf6Gptlv8lPTVDco7kmD/HWFlYNdzVr2PU1NQEBgZKS0sPHT7E2dGZbRUMFy9clJCQ4BzqF7ivYDh9ID8/v4mTJj5/9tZ52h1GQI6xt0hMTExoaGjjW3jyBXXfrayt1m1Y17i2bN7CTm5efn4+16M2btrg6cnevub92vJYBnWg1W/dbLwEqQVSgwYNatzS0mW2xbvrQ3XkyFF2Mm8+piwnmZmZCxcuVDiwv7kbW3Uu+pdvYmoiItLd2UWANt21FRUp5y9E//lnmqoq52dXOrBnSHsPr3Lykk+cih45IvXylZrSll0vxocsJxThN2/enDZt2kHFg6GhYR2TXvQvVVVNdbroNIX9ClkZHXp5NC+Ki4vXb1hPG2XmRtwCJTYmVkZW5uDBg+/57rBdCWOWw0fvI8tyQrvsf4z649yFc62+U3o7qa6ptrK0Gjh44N17HX3i7QfVV9fkWdvELlocJ7M4z9a2tkM2knWVr3JMzeJkZeNWrCj46ySVFuFPlpPq6mp/P/+NmzdMnjRZS1OrtIX7FC1C3XE7eztpaak5krMtzC068aSJ94uJjl28ePHS5bKJCQJ0G7gA/8BZs2dt2LC+E8+LQZaDAPr4spy4urr+/seIY8ePCc6tY2qqa549ezZh0gQ1NTWBPamoMi2duuaxknOSTxznnOLenipT0xMPHIidK5l+S/1VTiu/E+FbljNKS0tMXpgOGz6s/a5Br3xz7Xj/3/pdOH8xLy+Pvz80wl/19fVZmdmyMrKDBg3i/MhxZ69pbU2tgYFBnz599srvKSr68J1D2g+yHATQR5nltBWKCIsQExdbtHBRZhrnMo3OVV/7+uyZs4OHDNbV1hXMg/8NqINe5Ocfu2hhzJQp7XUNOnPt+IRxsQsWloaFt+Usej5nOYO5Bn3I4CF2tnZ8vAadViwqKkpynuSff45xsO+ca8db5/ixE/3691VQUIiLiyspKengM0tramqKiooioyLXb1hPexW3NTr/oFaLspx21zKzMq8oX5FbJbd82XL5vfssza1qXvH6HiLLgUcfZZYzEhISV6xY2a9vv5vqN7MysyrKKzr4HOHqV9XU9bKxsZk0cdKQYUOYSzeFQm1ZRfJJzjXoKRfPV2Xz8xr0qsys5DNnebl2nBftkuWk4Rr0XTt3v3jxwtrGuo1lYmpy9sy5sePGysvLJ3bUybH8Ultb6+XpvWHDxmnTpq1bv05dXf3p06dW1lZcr5HvZW5u/uTJk2vXri5fuXzS5Im7du0KCw0ThCMZLcpyWucRv4+QmClx+vTpCxcvbNu2bcniJbzcxYyBLAcefcRZTqoqXz02eCw1X0pCQmLfvv2aWprGxsbW5J3tBh/LysrKxMTEwMCAtt4LFy6cKTHr3LlzjX9LV1jkOzlzrkFfvSZTWzvPzrbtlamrx/u147xoryxn+Pn7US9qwQLppcuXtrEWLFqwSm6VuUUnXzveFsXFJe7u7nfu3Nm1e9fy5Su4XmB71JIlS1asWKGgoKCto+3vH9BZZ7q9q0VZfuHChZ9/+Ym5WwtH/evUlFTe/5Uiy4FHH3eWM3Kyc+1s7a4oX9m4ecNS2aVLl3FvNPhbsktlFi9ZLLdK7uixo9SBiYmJEdgvyD+gvr4ylXMNeuyihfFrV7e9YqWkeL92nBftm+W02S0vr8jjk+LiYkG4dryN6urqKFMLCwvZV9XO6IkqKjr6eNoHtSjLlU4rfffddyVFrTzDEVkOPPoUspxRU1NTWlqSn5/PbibaWVFRUVVV1cew9a56VZ2f/yovjw+Vn8/7teO8aOcsB2hKi7Lcw9OjX79+ffv2PXHipKOjY1paWov+iSLLgUefTpbDxwdZDp2gRVlOnJ2cN2/ZLCEuMWDggH79+126fIn29NlpH4IsBx4hy0F4IcuB/8LDwwMCAsNCwyIiIuhfGPWkc3JyCvMLy8vLmX9dLc1yUltTl5aa5unpeeL4yW+++UZfX5+d8CHIcuARshyEF7Ic+G/7jm0///zzL7/88uuvv3bj6C4iItJDpEfPnj179epFydq9e/f//Ps/ly9drm759ZRVlVW0cPony45/CLIceIQsB+GFLAf+MzMx//zzzz9rBk367rtvKeGTk5PZB7xXelp6ZkYm9ekp+CsrKqMjY/7936/On7/ATv4QZDnwCFkOwgtZDvyXlp7WvXs3Nrrf9q9//WvK5CkPHz7k/Ri7ynUVcTHxHTt2nD93/sABxWHDh82ZM6fJ36tuErIceIQsB+GFLAf+KywslJKSYtO7ka+++mrLls2REZHRkdG8Z3lKaoqZmZmamprSaaVzZ8/pPdKLi49jp/EAWQ48QpaD8EKWA/8ZGhh+9/23n719lP3zf352/8H90lLO7zW14ty3uro6+pfJ+X69hRepIsuBR8hyEF7IcuAnytoH9x50E+m6bcfWfv37MSn+xRdfDBk6xNvbi52pVVneashy4BGyHIQXshz4hoLc4LHB0GFDnjx9kpOdO1dyLgX5V//+au3ateER4Y3v+oQsBwGELAfhhSwH/qCodnNzmzxlMnPld31d/YEDB/7v/764oXojJ5v713+R5SCAkOUgvJDlwB+FhYWLZRYpnVGqrKxkWqKjosPDw2uauucwshwEELIchBeyHPjjloa6hIR4YiJPP0eLLAcBhCwH4YUsBz6Ijoj+bUD/5y+es+MfgiwHAYQsB+GFLIe2qqioWLhowcYNGyur2KPrH4QsBwGELAfhhSyHtnr29FmP3j1yMrlPcHsPyvIuXbro6OhYWVi1dx09dvSXX37hakSh3i0ZGZkFC6W5GttYZ86eQZZDB2j3LK+tra0kFXyoJs+iEkb19fX0JvPrbXlfVVZWV1c3vhiM74oKixYvWaysfJUd501ifFJPgE/Dpo2bios5t0gCaD/tm+W5ubmampqHFA8pKii2va5eu8r7XbgFUf3rtNQ0O3u7Bw8enDlzRvHAQa4XyPc6qHjw4vmL2traLq4u2TnZ7GrwD+0lmJmaSUhI0Otim3hWDvBpwJFO6ADtmOXubu7UY5OUlLx8+bJ6m91QvSG3aqWoqKiWtmZVpfB9NrKysq5evTZTYhYl34YNG88onVFTvcm+tnajdkPtxIkTq1avmjJtynyp+ffv3y8s5OexvpKSkk0bN1+6dAlbKwCATtQuWV5WXnbx8sXuPbsfUDyQmZlZU1NT12a1tbXFxcUG+o/79O2zbv3atLQWdwQ7kauL27jxYydOnGhuak5vCEUgvcl1texLa0e1dVVVVfS+paen6z3S/2PUyDlzJENDQ9nVarNA/8CJkyYGBQWx4wAA0Bn4nOU1tTUxMTHLly0f9ccoFydXtpWvkpOTpaSlxk8Y5+LsWlFRwbYKqrKyMvWb6r90/Zn6x4WFhWxrJ6HdiK1bt4qIiLwwflH51x1dWo32rmRlZPftl6cBtgkAADoDP7M8Iz1DQ0ODOqB79u6JjYttv1Ou8vMLVFSujxk3RvGAYlhYGPU+2QkCJicn59DhQ5OnTDYzN2ObOhvlrpam1ug/R127pkL9dba1VVwcXXr36cXHXj4AALQOf7KcEsLdzX2J7JI5knNMTU1LS8vYCe2mpqbG28d765ZtM8Rm6D3Se1UlcN/XUsf33PlzCxYs8Pf3Z5sEhq2drZi42P0H9zk/IdoqFRUVEhISCgcU6uoEdEcKAODTwZ8sv3H9xoDfBpw6eTojI6Ndr4DiUlxcovtId9jwYavXri4pKmVbBcML4xdjRo9xcXbpyDeERxTARs+NRv4xMjgwmG1qISMjzjXlefl57DgAAHSeNmU59erCQsOpLz5oyEBjE+PO+t40IjxCXFx8yLDBlhaWFeUC8Q16SWHJ4MGDb6heZ8cFD/2xFBT3i4mJVVVVsU08KyoqWrpU9uKlC+w4AAB0qtZneW5O7s2bN8VmiO3dvbcVlxfzV0VFxTWVq6KioocOHYqM6ORr0Otq6/bI7xEVEy0R7BtEJCYmDhs+TP2WOjvOG+rTm5iYiInPSE1NZZsAAKBTtTLLOdeOL1osJSVlYmwiIFd719bU+vj4bNi4fvr0Tr4GPTQ0tFevnh7unuy4ANN8qDl4yOCsrBbcRqawsHDlypUq1663+rt2AADgrxZneVlp2cVLnGvHjx45lpudJ1CnPtXX1xeXsNegr123trOOFlxRvjx79myhOCnsVdWrwUMGGT5+wo7z4PHjx2LiYvHx8ew4AAB0tpZleUJCvIyszKhRo12c2+XacX5hrkEfO+5PJ0dntqmjvKqqXrF8xa2bGuw4D+rr6ktLS0uKSzhVUlJeXt74zAP6c5SXlXPtGZSVldFszDBNYh/7V9FU3vckdu/aIy8v/5q38/My07L69u/z8KEmOw4AAAKgZVm+cNHCefPmJSUkseMCLD+/gCLqq39/yY53lPS0dAnxmQF+Aew4D/Lz8nft3CW3Uo5qzeq1e/buuX1HIy42jslXE1MTzgUC6Rlv5mUdOnhISUmJGc5Iy2Ae21BHjxxNTkpmpn6Qjq7OUtmlvJwzmJeXt2jholWrVgn+LXoAAD4pLcvyObPnXLx4kR1pZ45ODh6eHuxIq7i5u/3444/sSEeJjo6eMm1KUlILdnfob9CtWzdxMXF1NXXVG6pHjhzu06/36lWrmfvUKp1RGjduXGREJDMzY+DAgWMn/MkMh4WH/evLf8nKyl6/dp0pPV29nOxcZuoHOTg6zJGck539ga/My8vLlU4rTZs6LSUlhW0CAADB0LIsl5wjee3qNXakne3ZvefEiRPsSKt4eXn99NNP7EhHiYyKnDJ9SlJyi7N8j/yeulrObecrqyoNDQx79BCxd7Cnqbxk+X//91+N27dqa2qZ4twIj+dr2r09fcQlxN9/f3taKz29R6NGjQoLDmObAABAYHRClldWVuYX5BcUFFBXr+E+KlVVVW8aCxuefdvW7YcPH2aGW6edsjwvL6+ioqK5O8C0JcuZ0bq6OnNz8359+7m6ck5K4DHLb9+9zYy2lI+nr7i4eGpasxeY1dTUWFlYDx46yPCxoVCc0AcA8Knp6CyPjo6i3vb2ndt37tx57uy5kuISCsWE+IQLFy5s3rp569at169fZ473CmyWz583f9/efYZPDCMjI2qquW+P0+osnzN3juGTx4aGj2/fvj112lT5vfI52Tk0lZcs//LLL9dtWKv7SIfqkZ6uj68PM4kX78/yrMwsNTW1YcOHaWvpCOCNcgEAgHRollOvbr/C/k2bNrm6cf6zMLegrnlxSfH2Hdv37t3r4GhvaWW5cuVKjdsa1BcU2Czv3bv3Z5999vXXX1PErlu3zvDxk8bXZ7c6y3v27jlbctasObP++OOP73/8Tln5ankF50x1XrL8n//854BBv80QF6USlxBTVVVlJvGiuSyvra319PBctmzZnNlzLC0ta6pr2AkAACBgOjTL6+teb1i/cc3qtY3vnZ6ckDxp4qSAgEAapj46dUzXrV9bVFQk4FnO+Pzzz7/99ts+ffts2rIxKJDzM96tzvIt2zbnvZGdnf30ydMevXuYm5nT1OayfPKkycwwZfl//vufq9eUmYeTsrIW/LZNk1keHRm9cePG3n16HTl0JD09vbkvFAAAQBB0aJaTAP/A8RPHde/efY7knOfPnr+qeuXm7vbvf/+7V69e/d6gpJReIJWfn8+vLE/lNxERETbJ3zFw4KD9+/aP/GMk5Svv+cdkecP35YTifPTo0SeOn6yqekUhPWrU6JDgEHbamx4zvV2zZs5iRtv+ffmUKVN8fH0S4xLtbR3OnD47fdp0+gPNnSfp7enD+zl0AADQWTo6y0lNTQ11YS9dvjh8+PAA/4DQ0NDRo0Y7Ozvn5uYwVVxUXF9Xz68sn85vX331FRvdzfn8s7t37tLLZNfjQ97N8sTEhP6/9T9y5GhVZZWNrU2PHj0szC0adg6Cg4N/+eWXw4fYN6ftWf5Dlx8mTpwwderU+fPnb9m85Zb6rbDQcHYyAAAIvA7NcuqF+/v5M5c/RYZHTZgwwdPNMy8vT1pK+tjRY/l5+XV1dfHx8aEhoXz8vtyP37p27cpm9tu+/vrrJYuXKCoqDhw8IDyiBVnIZLm0tLSpiSmVlraWjIwM5beJiUldfR310amjLC4ubmJiGh4ebm1lvWTJkl+7/hoZyf6ETNuzfNz4cfYO9nHxcfS34FzPBgAAQqVDs7yirGK/vELPnj379Ovdp0/fnbt2FhUVUX57+3iLzxSn9t79eg8YMEBdXZ3WQSi+Lyeff/75oCGDrt9QiYuLo5cTFhbWuu/Lv/zyy++++57qx5+7UBf5+YvnzK+R0vvj6+c7Q2xGly5dqDv+w/c//DHyD0dHh4Zuetuz/P3XpAEAgIDr0Cxn5OfnR0RGUC+c67vYpKSkqKgoynt2vM3aL8spv7/55hsa2Lx1s7+vPzvhjVac+8aj9NSMAL/A5MTk2hp+/k48shwAQNh1QpZ3mHbKclkZ2Q3rN+gZ6GVnZ797glv7ZXk7QZYDAAg7ZHmLJSe9r2eMLAcAgA6GLOczyvIJk8cnJiWy4wIPWQ4AIOxaluWc30m70EG/k9Z2Lq4uP/7YhR3pKFHRUVOnTxGiLHd2cZ47d25uLud+sQAAIIxaluVyK+XExMTCw8MF/Tc26l9nZmTu2r2rd59ebEtHyUjPmCkxy9fXjx0XeA8ePpBdKltezrlfLAAACKOWZXnQy6Bt27aJS4hr62jXC3Cau3u4y8jILFq0yMTUhG3qKK+qXq1aterGjRvsuMDbsm2zoqIi7u8GACC8Wpbl9fX1paWlujq6/fr1k10mm5b+vh+97hTVVTXnz13o0aPH8WMnqGvO+41U+eiaytVpolPZEcFGf+ve/XoZGT1jxwEAQAi1LMsbJCUlSc6RHDN2jJWlVUUF364Ib4vamtqXL18uWCg9ZMgQWztbtrUzREZGivQQcXfzYMcFFe3o3L1/d+DAgcVFJWwTAAAIoVZmOaEIV1VVnTp1ysHDB8PCwjr3IG1mZqbGLQ1R0Rn79+/Pyvj7F0g7ywFFBdEZ0/Py8thxgZSYmDhk6OD79x6w4wAAIJxan+WE5vTz89uwYcPkKZO1tLRa9FOb/FJXW+fs6CwtLT17zmxzM/OSEoHoYmbnZI8bP/aK8hWB/dnv8vLyAwoHFi5YWFlRyTYBAIBwalOWMyg+nz17Nmz4sPUb1hUVFLGtHaKysvKK8uX+v/VXUlKiTnB9nQCdweXg6DB85DAHewd2XJDU1dU9NjAcMXJ4RNhbP4sOAADCiA9ZzoiOjpaWkh4ybIi9g30HXOBEK5kQl7BAesGY0WMc7BwE8Bq56uqam6o3x48f36LfMu8AtbW1Xh7eI0eOfGr4VNCvLQQAAB7wLctJYWGhisr18RPHKyjsb8dr0N9cO379xvVx48fu3bM3Li6ObRc8+fkFx48fHz9hnKmJaXmFQFzAXVRUpKOtO3r06KtXr+KacgCAjwM/s5zh5+u3Y8fO9rsG3d3dXWYJ59pxMzOzV1XVbKugKi4uuXf3/tDhQxQVFePj4juxg067VsHBwVu2bPlz3J/Pnz+vrMTX5AAAHwn+Zzn1mznXoD/i/zXognDteCvU1NSEh4YvWrJw8JDBV5Wv5efnsxM6UHpqxqGDh+gvsnnTlvj4eBxaBwD4mLRDlv+F8kNyjuTAwQP27t178cLFNtbRw0cnTJjQ6deOtxr1g3V0df4YPbJr167iEuL0nlw4f4HrNfK9Tp08tXXb1ilTpnbr1m3ilInm5ub8/e1zAAAQBO2Y5aSiokJD49ZaPqFkEoRrx9uiuqrG091TVU31wIEDmzdvZl9Yu6GnOHhQUeO2xsvAl4J8z10AAGiL9s1yAAAAaG/IcgAAAOGGLAcAABBuyHIAAADhhiwHAAAQbshygI+ci6vLnbt3cHcggI8YshzgI6epqblu7brSklJ2HAA+OshyAMFSWVUZEhLi5e2VQdIzGm4UWFNTExUV7eHuEREe0dDJrqurS0lO8fT0DAwMLC7++wd/a2tq4+PjqT0uNk7zYbNZXlRUlJiYUFZW5h/gHxQUVP2qura2NiYm1sfXJzc3l5knP78gNSWVGSbRMdElJSX1dfXpaemZWZlMI61PVFRUWXkn/OoxABBkOYAAKa8ov6ZydeasmVu3bdm7d6+srKyOjg61U1jeuXNnjuTsdevXLVy48IryFZqTctfGxnbR4oVr1q5ZvGSxvLx8SmoKzUztlhZWUtJSGzdvoPlllsg2l+Vm5mbLVy6nB65fv56e9Mpl5adPn61Zs4aeYons4uIizs6BgYHBPvl9zPyEFmvvYE9Z/tTw6fLly2ke2p+glVy5aiWyHKCzIMsBBIirm+vEiRM8PD3y8vKsLK0GDBhw8cJFpn30n6PsbR2ou2xlZTnyj5Fent40LD5T7OrVa9lZ2ZFRkRIzJdRU1aj7To+VkpJSv6mek5MbHh4+aeKk5rL8oebD777/Tu+Rfk5OjuFjw27dui1bvjQjLYM64oMHD9ZQ16B5rl2/JjlHkpmf9O7d2/DJYxooLS6VEJeg3Qg/b7/x48fbWNkwMwBAx0OWAwgQCteVq1YUFxfTcFlp2ZIlMpwsr3/94P4DGRmZoqIiaq+urpaTkzuoeDAuOm7Mn6NDQkKokTrHGrc1ZGRkaZ74+PiJEydSilM7RfulS5fek+X9+/dnhlNSUijLTY3NmFG51XJbtm2mgeaynKSnZoj06t7/t35Hjx3FuXUAnQhZDiAoKI9v3ry5ddvWsjLOweramrpVcqsoy2tra1Wvq27atKm0lM1jmmf9xvX+PgFTpkxp+Al/Pb1HkvMk8/PzXwa+nD59emJiIjXW19ffu3v/PVk+btw4ZjgnK0eku4iHmwczumXL1hVyK2jg+o3rkpJsltMaNs5y2qtYtHhhd5HuJiYmwvK7hQAfJWQ5gADR09ebLz2POd8tMyNr9qzZlOUUk9pa2vPnzc/PL6D20tIyWRnZ00qnYmPixowZ4+vrS43U/76qfHXVqlXFJcUJ8QnjJ4wPDAyk9qqqVydOnGxLlt+//2DS5ElMY2ZGZvfu3RuyXOOWxvARw7fv2L58+bKCAs66AUCnQJYDCJDIiMipU6YePXL0ZUDQ6VOnu3TpcunyJWr3D/AfM3aMuoZ6dVXNo0ePfhvYPyQkhOJTeqHU7r27S4vLAvwCf//j9/sP7lPXubCwcIns4oMHD1ZUVHi6e/Xv/1tbstzTw6tr1642VrYF+YVHjh3597+/YrLc2clZpKeIs6NLRkbGwkULjx0/9uZxANAJkOUAgsXZxVlMYsaAwb8dPnJYco6kuro6025qYjpsxLBu3boNHTZUR0enurqGGoODgiVmSnTv3q1Pnz7Hjx9vuCzNz8d/6tSp3Xt0o6g+cujIAYUDzHF7Lk+ePlmwYAEznJ+bP378eH9ff2b0yJGje+R3M8Onz5zu0aNHnz59L168OGbMGHMLs8KCwo2bNtIWg5khwD9w1KhRAQEBzCgAdDBkOYAAoV51Tk4OfQZpwM/Xb8rUKR7unuy0N79/n5KSUlL693XkpKa6Ni0tLb+AvQy9AXXKU1NTamo4kd92JcWl+Xn5tFbsOAAIEmQ5gACprKy8cOHCihUrVq9dLSYmtnP3zuISzjntbUQfaidnJytrq4aysbWOjo5iJwOAkEOWAwiQ+vr63NxcTy9PitvQkDDOHdb4cX54cXGxvLz82kY2rN/w5MlTdjIACDlkOQAAgHBDlgMAAAg3ZDkAAIBwQ5YDAAAIN2Q5AACAcEOWAwAACDdkOQAAgHBDlgMAAAg3ZDkAAIBwQ5YDAAAIN2Q5AACAcEOWAwAACDdkOQAAgHBDlgMAAAg3ZDkAAIBwQ5YDAAAIN2Q5AACAcEOWAwAACDdkOQAAgHBDlgMAAAg3ZDkAAIBwQ5YDAAAIN2Q5AACAcEOWAwAACDdkOQAAgHBDlgMAAAg3ZDkAAIBwQ5YDAAAIN2Q5AACAcEOWAwAACDdkOQAAgHBDlgMAAAg3ZDkAAIBwQ5YDAAAIN2Q5AACAcEOWAwAACDdkOQAAgHBDlgMAAAg3ZDkAAIBwQ5YDAAAIN2Q5AACAcEOWAwAACDdkOQAAgHBDlgMAAAg3ZDkAAIBwQ5YDAAAIN2Q5AACAcEOWAwAACDdkOQAAgHBDlgMAAAg3ZDkAAIBwQ5YDAAAIN2Q5AACAcEOWAwAACDdkOQAAgHBDlgMAAAg3ZDkAAIBwQ5YDAAAIN2Q5AACAcEOWAwAACDdkOQAAgHBDlgMAAAg3ZDkAAIBwQ5YDAAAIN2Q5AACAcEOWAwAACDdkOQAAgHBDlgMAAAg3ZDkAAIBwQ5YDAAAIN2Q5AACAcEOWAwAACDdkOQAAgHBDlgMAwKelrq6OHfpYIMsBAODTgiwHAAAQbshyAAAA4YYsBwAAEG4fcZYnJyLLAQDgE/AxZ3kSshwAAD4ByHIAAADh9hFneUoKshwAAD4BH22WH9ifmpqKLAcAgI/fx5rlCgcUMtIykeUAAPDxQ5YDAAAIt484y7MzcpDlAADw8fuIszwnC1kOAACfAGQ5AAAACBYmyw8oKhTkFSDLAQAAhM9fWX6gIK8QWQ4AACB8GrK8MB9ZDgAAIIQasry4qBhZDgAAIHwasrykqOSzc+fPeXt50zgKhUKhUCihqcAAZ0dnxYOKFaWVn6lcV1G7qaZvoKdvoI9CoVAoFEooSveR7unTp/X19DlZnpKS4kQcnezs7Gxt7aysrCwtLS3MLczMzIzJC+Onz55yPHlq8NiA83g9fV1dXW0dbW0tTj14+OD+g3soFAqFQqFaW/eZSKVs1dHVoZzlMNCn5OV49vTF8xcUx6amppTOlNGWVpa2FNh2dk4OThTklRWVn1XS/5dV0khZSXlhYWFBXkF+TkFmRmZGemZyUnJCYkJcTHxMdExEZER4aHhYSHhIcAj16wMCA/x9OeXt5e3h6YFCoVAoFKp15enpyUQqZStVUFAwpS0VJW9UVDSlcEJCQmJiYkYaZXNmXk5+fm4B5XVpcSllNyfLKyv/H1OZG/8QHDPXAAAAAElFTkSuQmCC;" parent="jNX_CL863BR4BcK0fppc-1" vertex="1">
          <mxGeometry x="34.49562500000002" y="1752.00171875" width="665" height="438" as="geometry" />
        </mxCell>
        <mxCell id="FDnJl6wzbN69MDGgBGXz-1" value="&lt;font style=&quot;font-size: 14px&quot;&gt;show&lt;br&gt;&lt;/font&gt;" style="text;html=1;align=left;verticalAlign=middle;resizable=0;points=[];autosize=1;strokeColor=#b46504;fillColor=#fad7ac;" parent="jNX_CL863BR4BcK0fppc-1" vertex="1">
          <mxGeometry x="34.5" y="1723" width="43" height="18" as="geometry" />
        </mxCell>
      </root>
    </mxGraphModel>
  </diagram>
  <diagram id="wJfMxIf83VfdWJHmarCC" name="dff">
    <mxGraphModel dx="1014" dy="632" grid="1" gridSize="10" guides="1" tooltips="1" connect="1" arrows="1" fold="1" page="1" pageScale="1" pageWidth="413" pageHeight="291" math="0" shadow="0">
      <root>
        <mxCell id="0" />
        <mxCell id="1" parent="0" />
        <mxCell id="d_VkYpjWvewFLdayO_jV-2" value="" style="verticalLabelPosition=bottom;shadow=0;dashed=0;align=center;verticalAlign=top;shape=stencil(rVXNcoIwEH4aju1gMgI9tlTvzvQFAkbNGJI0RNS3b8jCDBFBxM7AYXeT/b79TYDT8kAUDVBISkVzE+DvAKGKaEYybtXIWg6gTEIQBSkoaOwf/lzd7TVn6m3NpYIzpdHySM9sa5rLTByoZgasZ9AtQucRr4Lw02rrD6e5FMLyYFKUnqVjt84JE+aWSu1ZWZCCGqpB2zC+eNK1kd7REhQBWj8DtZoBFc+D2kyAWjwTFZyKfk/SVvoLeLVScwdFeyd1amLVQ2XBaUby417Lk9jejUzXTdXroaYDIj+U27TdD8TxGUDF6U5qOkJnxziH5hyphiJ12/YMrbmQFR0q9RBp3wNngg6GPc3FGInodRLTXPgkktdT0ayEl3IR+xOxHB29+zTijxkufBY3+ZzDAv9/VWcEkjzDws3mwPjYp+bR4Bl6qZcF4WwvAC6not577aPiLfuqcy6TxsjC3yZLv5UerOCJ2JtJ2PE0bJeu3sZyWniWneIP);rounded=0;sketch=0;fontSize=14;fontColor=#1D3557;strokeColor=#457B9D;fillColor=#A8DADC;html=1;" vertex="1" parent="1">
          <mxGeometry x="180" y="110" width="70" height="60" as="geometry" />
        </mxCell>
        <mxCell id="d_VkYpjWvewFLdayO_jV-3" value="" style="pointerEvents=1;verticalLabelPosition=bottom;shadow=0;dashed=0;align=center;html=1;verticalAlign=top;shape=mxgraph.electrical.signal_sources.protective_earth;rounded=0;sketch=0;fontSize=14;fontColor=#1D3557;strokeColor=#457B9D;fillColor=#A8DADC;" vertex="1" parent="1">
          <mxGeometry x="110" y="100" width="20" height="20" as="geometry" />
        </mxCell>
        <mxCell id="d_VkYpjWvewFLdayO_jV-5" value="" style="endArrow=none;html=1;rounded=1;sketch=0;fontSize=14;fontColor=#1D3557;strokeColor=#457B9D;fillColor=#A8DADC;curved=0;entryX=0;entryY=0.25;entryDx=0;entryDy=0;entryPerimeter=0;exitX=1;exitY=0.25;exitDx=0;exitDy=0;exitPerimeter=0;" edge="1" parent="1" source="d_VkYpjWvewFLdayO_jV-2">
          <mxGeometry width="50" height="50" relative="1" as="geometry">
            <mxPoint x="250" y="220" as="sourcePoint" />
            <mxPoint x="290" y="107.5" as="targetPoint" />
          </mxGeometry>
        </mxCell>
        <mxCell id="d_VkYpjWvewFLdayO_jV-6" value="" style="endArrow=none;html=1;rounded=1;sketch=0;fontSize=14;fontColor=#1D3557;strokeColor=#457B9D;fillColor=#A8DADC;curved=0;entryX=0;entryY=0.75;entryDx=0;entryDy=0;entryPerimeter=0;" edge="1" parent="1">
          <mxGeometry width="50" height="50" relative="1" as="geometry">
            <mxPoint x="290" y="190" as="sourcePoint" />
            <mxPoint x="290" y="122.5" as="targetPoint" />
          </mxGeometry>
        </mxCell>
        <mxCell id="d_VkYpjWvewFLdayO_jV-7" value="" style="endArrow=none;html=1;rounded=1;sketch=0;fontSize=14;fontColor=#1D3557;strokeColor=#457B9D;fillColor=#A8DADC;curved=0;" edge="1" parent="1">
          <mxGeometry width="50" height="50" relative="1" as="geometry">
            <mxPoint x="110" y="190" as="sourcePoint" />
            <mxPoint x="290" y="190" as="targetPoint" />
          </mxGeometry>
        </mxCell>
        <mxCell id="d_VkYpjWvewFLdayO_jV-8" value="" style="endArrow=none;html=1;rounded=1;sketch=0;fontSize=14;fontColor=#1D3557;strokeColor=#457B9D;fillColor=#A8DADC;curved=0;entryX=0;entryY=0.25;entryDx=0;entryDy=0;entryPerimeter=0;" edge="1" parent="1" target="d_VkYpjWvewFLdayO_jV-2">
          <mxGeometry width="50" height="50" relative="1" as="geometry">
            <mxPoint x="180" y="100" as="sourcePoint" />
            <mxPoint x="300" y="170" as="targetPoint" />
          </mxGeometry>
        </mxCell>
        <mxCell id="d_VkYpjWvewFLdayO_jV-9" value="" style="endArrow=none;html=1;rounded=1;sketch=0;fontSize=14;fontColor=#1D3557;strokeColor=#457B9D;fillColor=#A8DADC;curved=0;exitX=0.5;exitY=0;exitDx=0;exitDy=0;exitPerimeter=0;" edge="1" parent="1" source="d_VkYpjWvewFLdayO_jV-3">
          <mxGeometry width="50" height="50" relative="1" as="geometry">
            <mxPoint x="250" y="220" as="sourcePoint" />
            <mxPoint x="180" y="100" as="targetPoint" />
          </mxGeometry>
        </mxCell>
        <mxCell id="d_VkYpjWvewFLdayO_jV-10" value="" style="endArrow=none;html=1;rounded=1;sketch=0;fontSize=14;fontColor=#1D3557;strokeColor=#457B9D;fillColor=#A8DADC;curved=0;entryX=0;entryY=0.75;entryDx=0;entryDy=0;entryPerimeter=0;" edge="1" parent="1" target="d_VkYpjWvewFLdayO_jV-2">
          <mxGeometry width="50" height="50" relative="1" as="geometry">
            <mxPoint x="110" y="155" as="sourcePoint" />
            <mxPoint x="300" y="170" as="targetPoint" />
          </mxGeometry>
        </mxCell>
        <mxCell id="d_VkYpjWvewFLdayO_jV-11" value="A" style="text;html=1;strokeColor=none;fillColor=none;align=center;verticalAlign=middle;whiteSpace=wrap;rounded=0;sketch=0;fontSize=14;fontColor=#1D3557;" vertex="1" parent="1">
          <mxGeometry x="80" y="180" width="30" height="10" as="geometry" />
        </mxCell>
        <mxCell id="d_VkYpjWvewFLdayO_jV-12" value="Clk" style="text;html=1;strokeColor=none;fillColor=none;align=center;verticalAlign=middle;whiteSpace=wrap;rounded=0;sketch=0;fontSize=14;fontColor=#1D3557;" vertex="1" parent="1">
          <mxGeometry x="80" y="140" width="50" height="20" as="geometry" />
        </mxCell>
        <mxCell id="d_VkYpjWvewFLdayO_jV-14" value="" style="endArrow=none;html=1;rounded=1;sketch=0;fontSize=14;fontColor=#1D3557;strokeColor=#457B9D;fillColor=#A8DADC;curved=0;entryX=0.512;entryY=-0.002;entryDx=0;entryDy=0;entryPerimeter=0;" edge="1" parent="1" target="d_VkYpjWvewFLdayO_jV-2">
          <mxGeometry width="50" height="50" relative="1" as="geometry">
            <mxPoint x="216" y="80" as="sourcePoint" />
            <mxPoint x="300" y="170" as="targetPoint" />
          </mxGeometry>
        </mxCell>
        <mxCell id="d_VkYpjWvewFLdayO_jV-15" value="" style="endArrow=none;html=1;rounded=1;sketch=0;fontSize=14;fontColor=#1D3557;strokeColor=#457B9D;fillColor=#A8DADC;curved=0;" edge="1" parent="1">
          <mxGeometry width="50" height="50" relative="1" as="geometry">
            <mxPoint x="106" y="80" as="sourcePoint" />
            <mxPoint x="216" y="80" as="targetPoint" />
          </mxGeometry>
        </mxCell>
        <mxCell id="d_VkYpjWvewFLdayO_jV-16" value="Rst" style="text;html=1;strokeColor=none;fillColor=none;align=center;verticalAlign=middle;whiteSpace=wrap;rounded=0;sketch=0;fontSize=14;fontColor=#1D3557;" vertex="1" parent="1">
          <mxGeometry x="90" y="70" width="30" height="10" as="geometry" />
        </mxCell>
        <mxCell id="d_VkYpjWvewFLdayO_jV-21" value="R" style="text;html=1;strokeColor=none;fillColor=none;align=center;verticalAlign=middle;whiteSpace=wrap;rounded=0;sketch=0;fontSize=14;fontColor=#1D3557;" vertex="1" parent="1">
          <mxGeometry x="180" y="110" width="70" height="10" as="geometry" />
        </mxCell>
        <mxCell id="d_VkYpjWvewFLdayO_jV-23" value="" style="verticalLabelPosition=bottom;shadow=0;dashed=0;align=center;html=1;verticalAlign=top;shape=mxgraph.electrical.logic_gates.logic_gate;operation=and;negating=1;negSize=0.15;rounded=0;sketch=0;fontSize=14;fontColor=#1D3557;strokeColor=#457B9D;fillColor=#A8DADC;" vertex="1" parent="1">
          <mxGeometry x="290" y="100" width="40" height="30" as="geometry" />
        </mxCell>
        <mxCell id="d_VkYpjWvewFLdayO_jV-24" value="Y" style="text;html=1;strokeColor=none;fillColor=none;align=center;verticalAlign=middle;whiteSpace=wrap;rounded=0;sketch=0;fontSize=14;fontColor=#1D3557;" vertex="1" parent="1">
          <mxGeometry x="330" y="110" width="30" height="10" as="geometry" />
        </mxCell>
        <mxCell id="d_VkYpjWvewFLdayO_jV-25" value="" style="rounded=0;whiteSpace=wrap;html=1;sketch=0;fontSize=14;fontColor=#1D3557;strokeColor=#33FF33;fillColor=none;" vertex="1" parent="1">
          <mxGeometry x="70" y="50" width="290" height="170" as="geometry" />
        </mxCell>
      </root>
    </mxGraphModel>
  </diagram>
</mxfile>
